<svg xmlns="http://www.w3.org/2000/svg" xmlns:xlink="http://www.w3.org/1999/xlink" width="1124" height="1080" viewBox="0 0 1124 1080">
  <defs>
    <clipPath id="clip-Web_1920_2">
      <rect width="1124" height="1080"/>
    </clipPath>
  </defs>
  <g id="Web_1920_2" data-name="Web 1920 – 2" clip-path="url(#clip-Web_1920_2)">
    <g id="Layer_2" data-name="Layer 2" transform="translate(-0.003 16.411)">
      <path id="Path_1" data-name="Path 1" d="M1038.72,632c2.14.38,4.57.66,6.56-.41a5.14,5.14,0,0,0,2.32-6c-.65-2.73-2.95-4.71-3.23-7.57a8.1,8.1,0,0,1,2.62-6.83,17.9,17.9,0,0,1,7-3.5c2.3-.68,5.23-1.19,7.16.62,1.6,1.51,1.88,4,2,6.09a26,26,0,0,1-.53,8.3c-.43,1.48-1.36,2.71-1.89,4.14a6.621,6.621,0,0,0-.12,4.15c.88,3,3.39,5,5.83,6.72,1.57,1.13,3.07-1.47,1.52-2.59-2-1.47-4.84-3.47-4.63-6.32.09-1.28,1-2.39,1.51-3.53a14.5,14.5,0,0,0,1.15-4.29,35.873,35.873,0,0,0,.07-7.82,11.5,11.5,0,0,0-2.22-6.36c-3.6-4.41-10-2.55-14.39-.6-4.79,2.12-8.51,6.29-8,11.82a11.3,11.3,0,0,0,1.17,4.14c.7,1.39,1.83,2.67,2.17,4.23.73,3.31-3,3.07-5.19,2.69-1.89-.34-2.7,2.55-.8,2.89Z" fill="#fff"/>
      <path id="Path_2" data-name="Path 2" d="M1036,629.69q-6.06.18-12.14,0c-2.68-.09-7.41.47-7.84-3.16-.18-1.55,0-3.13-.15-4.69A28.153,28.153,0,0,0,995.09,597c-6.18-1.66-13.94-1.56-19.31,2.33S969,609.86,968.86,616a51.21,51.21,0,0,0,3.1,19.82,36,36,0,0,0,5,8.89c.8,1,1.72,2.24.41,3.25s-3,1.22-4.42,1.57l-23.66,5.7c-3.25.79-6.62,1.58-9.49,3.36a15.26,15.26,0,0,0-6,7.34,40.4,40.4,0,0,0-2.25,9.29q-.94,6-1.59,12.1a245.464,245.464,0,0,0-1.38,24.54c0,5.93.25,12.13,2.43,17.7a19.88,19.88,0,0,0,12.86,12.14,44.492,44.492,0,0,0,9.53,1.62c3.9.33,7.82.57,11.72.85,2,.13,3.92.3,5.88.41,1.69.1,3.3-.15,4.37-1.58a11.728,11.728,0,0,0,1.37-3.54,2.86,2.86,0,0,1,2.53-2.05c1.34-.28,2.72-.28,4.06-.53a9.51,9.51,0,0,0,4-1.82,18.868,18.868,0,0,0,5.17-7.14c2.66-5.57,5.7-13.46-.19-18.13-5.73-4.54-13.06-1.62-17.74,2.89a24,24,0,0,1-3.72,3.26,9.431,9.431,0,0,1-5.13,1.31,22.66,22.66,0,0,1-9-2c-2.08-.95-5-2.68-4.8-5.33.09-1.57,1.2-2.87,2.1-4.07a21.151,21.151,0,0,0,2.68-4.56,19.669,19.669,0,0,0,1.39-9.65c-.21-1.9-3.21-1.92-3,0a17,17,0,0,1-1.66,9.61c-1.44,2.81-4.21,5-4.49,8.36-.48,5.81,6.34,8.73,11,9.81,3.2.75,6.68,1.25,9.88.26s5.36-3.55,7.82-5.75,5.36-3.66,8.56-3.46a6.85,6.85,0,0,1,6.46,5.14c.7,3.31-.9,6.85-2.25,9.8-1.14,2.52-2.42,5.24-4.59,7s-5,1.44-7.63,2.1a5.9,5.9,0,0,0-3.06,1.72,9.909,9.909,0,0,0-1.69,3.91c-.48,1.55-1.38,1.43-2.89,1.33l-6.37-.45c-3.58-.26-7.16-.48-10.74-.78-6.16-.52-12.71-1.73-16.8-6.82-3.57-4.45-4.58-10.51-4.9-16a168.78,168.78,0,0,1,.51-21.8,207.954,207.954,0,0,1,2.71-22.53A23.1,23.1,0,0,1,938,664.4c1.81-2.72,4.68-4.17,7.72-5.11,3.49-1.08,7.11-1.81,10.66-2.67l11.6-2.79,5.31-1.28a22.827,22.827,0,0,0,4.64-1.42c2.58-1.24,4-3.87,2.56-6.57-.75-1.43-1.94-2.65-2.81-4a32.2,32.2,0,0,1-2.31-4.34,40.643,40.643,0,0,1-2.75-9.55c-1-6-1.42-12.93.6-18.78A12.23,12.23,0,0,1,978.7,601a19,19,0,0,1,9.44-2A25.15,25.15,0,0,1,1013,623c.14,3-.3,6.31,2.57,8.21,2.6,1.73,6.35,1.41,9.31,1.48,3.72.1,7.45.09,11.17,0,1.93-.06,1.94-3.06,0-3Z" fill="#fff"/>
      <path id="Path_3" data-name="Path 3" d="M952.3,744.41c-3.7,11.51-3.78,23.71-3.82,35.67q-.06,19.2,0,38.4.07,38.4.54,76.79.25,21.69.65,43.37a1.5,1.5,0,0,0,3,0q-.69-38.26-1-76.53t-.2-76.54c0-13.49-.44-27.36,3.74-40.36.59-1.84-2.31-2.63-2.9-.8Z" fill="#fff"/>
      <path id="Path_4" data-name="Path 4" d="M994.24,841.35c1.11,26.2-6.71,51.55-10.19,77.29a168.83,168.83,0,0,0-1.65,21.66,1.5,1.5,0,0,0,3,0c.13-26.17,8.16-51.38,11-77.24a143.161,143.161,0,0,0,.85-21.71c-.08-1.92-3.08-1.93-3,0Z" fill="#fff"/>
      <path id="Path_5" data-name="Path 5" d="M942.71,643.72A67.65,67.65,0,0,0,945.26,619c-.12-1.49-.32-3.2,1-4.24a12.618,12.618,0,0,1,3-1.51c2.35-1,4.44-2.11,4.79-4.86a1.46,1.46,0,0,0-.74-1.3,11,11,0,0,1-6.47-7.76c-.43-2-.35-4.06-.93-6a8.73,8.73,0,0,0-2.74-4.26c-2.59-2.15-6-2.84-9.32-3.1a76.231,76.231,0,0,0-13.68.27c-3.59.37-7.69,1-9.53,4.54-1.68,3.26-.88,7.13-.06,10.52,1.12,4.62,2.29,9.24,3.48,13.85,1.13,4.32,2.1,8.76,3.57,13a17.06,17.06,0,0,0,3.3,5.93,19.511,19.511,0,0,0,5,3.79c4.55,2.54,9.34,4.7,14,7,1.72.86,3.25-1.73,1.51-2.59-3.9-1.94-7.8-3.86-11.7-5.81-3.19-1.6-6.39-3.35-8.17-6.59-1.93-3.54-2.64-7.86-3.66-11.73q-1.68-6.3-3.25-12.64c-.87-3.5-2.27-7.3-2-11a4.85,4.85,0,0,1,2.05-3.94,10.85,10.85,0,0,1,4.71-1.3,83.591,83.591,0,0,1,13.14-.43c2.85.14,6.14.49,8.47,2.31,3.18,2.49,2.1,7.1,3.35,10.52a14,14,0,0,0,7.39,8l-.74-1.3c-.1.81-1.1,1.27-1.73,1.58-1.05.52-2.17.89-3.23,1.4-3,1.45-4.1,3.93-3.86,7.21a67.358,67.358,0,0,1-2.41,24.34c-.56,1.85,2.34,2.64,2.89.79Z" fill="#fff"/>
      <path id="Path_6" data-name="Path 6" d="M912.32,586.16c-2.07-5.24-6.75-8.69-12-10.35a40.779,40.779,0,0,0-9.64-1.57,72.741,72.741,0,0,0-9.9-.22,18.48,18.48,0,0,0-8.65,2.65,25.31,25.31,0,0,0-6.33,5.93,55.868,55.868,0,0,0-8.36,15.5,95,95,0,0,0-4.31,17.46c-.47,2.91-.86,5.84-1.2,8.77a57.2,57.2,0,0,0-.77,8.55c.08,2.1.68,4.47,2.69,5.54,2.79,1.49,6.35-.81,8.92-1.86,1.47-.59,2.93-1.22,4.42-1.79s3.22-1.06,4.85-.23c1.23.63,2.3,1.5,3.57,2.06a16.708,16.708,0,0,0,4.45,1.23c3.71.53,7.51.62,11.26.87l11.91.82,11.87.81c3.72.24,7.53.35,11.06-1,1.79-.68,1-3.58-.79-2.89a21.34,21.34,0,0,1-8.91,1c-3.25-.17-6.5-.43-9.75-.66l-19.61-1.33c-2.9-.2-5.93-.19-8.75-1-2.57-.74-4.51-2.91-7.19-3.3-3-.44-6,1.25-8.74,2.36l-4,1.63c-1,.4-2.59,1.33-3.5.39-1.28-1.33-.72-4.12-.56-5.73.28-2.8.58-5.6.94-8.38a122.171,122.171,0,0,1,3.16-16.56,63.684,63.684,0,0,1,6.05-15c2.61-4.52,6-9.3,10.86-11.56,3.06-1.42,6.5-1.44,9.81-1.34a79.864,79.864,0,0,1,10.13.74c5.64.92,11.9,3.53,14.15,9.24.7,1.77,3.6,1,2.89-.8Z" fill="#fff"/>
      <path id="Path_7" data-name="Path 7" d="M852.66,634.49a12.18,12.18,0,0,0-10.26,3.13c-3,2.62-4.72,6.42-5.83,10.19-1.3,4.4-2.14,9-3.08,13.46q-1.47,7-2.76,14t-2.43,14.08c-.38,2.37-.8,4.74-1.08,7.12a11.121,11.121,0,0,0,.6,5.66,11.44,11.44,0,0,0,7.3,6.26,13,13,0,0,0,10-1.17c8.55-4.6,10.65-14.74,12.06-23.5.3-1.88-2.59-2.7-2.89-.79-1.14,7.09-2.4,14.91-8.09,19.9a11.42,11.42,0,0,1-8.37,3.07,9,9,0,0,1-6.91-4.23,7.82,7.82,0,0,1-.74-4.74c.21-2,.59-4,.91-6.05q1-6.33,2.14-12.63,2.26-12.49,5-24.87c.89-3.95,1.83-8,4.19-11.4,2-2.93,5.72-5.3,9.41-4.61,1.89.35,2.7-2.55.8-2.9Z" fill="#fff"/>
      <path id="Path_8" data-name="Path 8" d="M842.1,707a55,55,0,0,1-3.56,10.91,20.22,20.22,0,0,1-2.22,4.28c-1.18,1.49-3.13,1.13-4.81,1.08a19.94,19.94,0,0,0-9.9,2.77,38.309,38.309,0,0,0-8.75,5.68c-5.12,4.87-5,12.44-5.36,19q-.3,6.14-.35,12.28c0,3.56-.26,7.29.3,10.82a8.68,8.68,0,0,0,2.15,4.67c1.09,1.16,2.58,1.87,3,3.5s.25,3.48.89,5.13a5,5,0,0,0,3.29,3.26,1.5,1.5,0,0,0,.8-2.89c-1.29-.37-1.54-2.06-1.66-3.2a12.07,12.07,0,0,0-1-4.52,11.11,11.11,0,0,0-2.74-2.9,6,6,0,0,1-1.9-3.85,72.248,72.248,0,0,1-.18-10.51q0-5.65.31-11.3c.3-6.37,0-13.78,5.43-18.18a43.525,43.525,0,0,1,8.62-5.11,16.6,16.6,0,0,1,4.85-1.57c1.65-.23,3.3.1,5,0,4.06-.39,5.52-4,7-7.29A58.912,58.912,0,0,0,845,707.74c.41-1.88-2.48-2.68-2.89-.79Z" fill="#fff"/>
      <path id="Path_9" data-name="Path 9" d="M837.2,725.38A30.16,30.16,0,0,1,855.88,738a29.86,29.86,0,0,1,1.68,29.64c-.87,1.69-2.67,3.64-2.22,5.67s2.64,2.49,4.45,2.67c2.24.23,4.47.49,6.69.84,8.64,1.35,17.64,3.82,24.55,9.43s12.05,14.52,10.56,23.66c-.31,1.88,2.58,2.7,2.89.79,1.37-8.38-1.86-16.58-7.41-22.82-6.06-6.82-14.67-10.66-23.42-12.72A109.769,109.769,0,0,0,859.79,773a2.635,2.635,0,0,1-1.31-.22c-.24-.22-.07-.55.16-1,.52-.94,1.11-1.84,1.6-2.8a33.3,33.3,0,0,0,2.35-6.19,32.72,32.72,0,0,0-3.24-24.9A33.17,33.17,0,0,0,838,722.48C836.12,722.08,835.31,724.97,837.2,725.38Z" fill="#fff"/>
      <path id="Path_10" data-name="Path 10" d="M814,789a9.69,9.69,0,0,1-4,2.84,31.952,31.952,0,0,0-4.84,2.47,9.5,9.5,0,0,0-3.67,4.79,18.1,18.1,0,0,0-.63,6.72c.09,1.92,3.09,1.93,3,0a15.37,15.37,0,0,1,.56-6,6.86,6.86,0,0,1,3.32-3.54c3.13-1.76,6.67-2.64,8.85-5.73a1.465,1.465,0,0,0-2.54-1.46Z" fill="#fff"/>
      <path id="Path_11" data-name="Path 11" d="M902.75,810.78c-3.51,20.36,6.19,39.53,9.34,59.25a61.13,61.13,0,0,1,.53,16.76c-.22,1.92,2.78,1.9,3,0,2.33-20.18-7.51-38.92-10.09-58.55a55.381,55.381,0,0,1,.11-16.66c.32-1.89-2.57-2.7-2.89-.8Z" fill="#fff"/>
      <path id="Path_12" data-name="Path 12" d="M993.73,709.62c15.42-21.37,32.51-44.59,59-52.34a53,53,0,0,1,21.86-1.82,1.5,1.5,0,1,0,0-3c-13.53-1.79-27.18,2.17-38.83,9-12,7-21.83,17-30.48,27.77-5,6.13-9.57,12.52-14.18,18.91-1.13,1.57,1.47,3.07,2.59,1.51Z" fill="#fff"/>
      <path id="Path_13" data-name="Path 13" d="M1013.69,628.61c.74,3.67-1.28,7.44,0,11.08,1.36,3.87,5.43,5.13,8.93,6.42a151.635,151.635,0,0,0,26.57,7.11,154.739,154.739,0,0,0,15.58,1.89c1.93.14,1.92-2.86,0-3a151.07,151.07,0,0,1-25.61-4.06c-4.18-1-8.33-2.26-12.41-3.65-2-.68-3.94-1.38-5.88-2.15-1.53-.6-3.26-1.37-4.07-2.89s-.52-3.66-.3-5.41a18.61,18.61,0,0,0,.1-6.14c-.38-1.89-3.27-1.09-2.9.8Z" fill="#fff"/>
      <path id="Path_14" data-name="Path 14" d="M979.57,647.25a67.049,67.049,0,0,0,12,5.34c3.92,1.3,8.08,2.27,12.22,1.52a17.11,17.11,0,0,0,13.42-13.45c.35-1.89-2.54-2.7-2.89-.8a14.18,14.18,0,0,1-11.68,11.42c-3.77.53-7.61-.65-11.14-1.88a62.606,62.606,0,0,1-10.37-4.74,1.5,1.5,0,0,0-1.52,2.59Z" fill="#fff"/>
      <path id="Path_15" data-name="Path 15" d="M972.64,744.12c.82,5.54,2.07,11,2.36,16.64s-.45,11.48-.93,17.2c-.75,9.08-.59,19.24,5.14,26.86a23.55,23.55,0,0,0,11.29,7.86,75.86,75.86,0,0,0,15.76,3.54,125.9,125.9,0,0,0,32.85-.5c12.45-1.65,24.69-4.51,36.89-7.44,1.88-.45,1.08-3.34-.8-2.89-20.84,5-42.23,10.06-63.82,8.37a88.784,88.784,0,0,1-15.78-2.66c-4.54-1.2-9.14-2.83-12.49-6.28-6.3-6.5-6.77-16.42-6.18-24.92.42-6.14,1.34-12.26,1.1-18.42s-1.6-12.11-2.5-18.15c-.28-1.91-3.18-1.1-2.89.79Z" fill="#fff"/>
      <path id="Path_16" data-name="Path 16" d="M979.38,765.37A20.48,20.48,0,0,1,996.24,759c6.77.66,13.11,4.09,20,3,3.47-.55,6.64-2.21,10-3a32.379,32.379,0,0,1,9.16-.66c6.48.36,12.77,2.13,19.06,3.57,7.1,1.63,14.31,2.9,21.59,1.87,1.91-.27,1.1-3.16-.79-2.89-13.26,1.87-26-4.53-39-5.5a37.057,37.057,0,0,0-9.58.47c-3.28.61-6.29,2.06-9.5,2.88-6.94,1.79-13.73-1.9-20.55-2.68a23.4,23.4,0,0,0-19.41,7.19c-1.32,1.4.79,3.53,2.12,2.12Z" fill="#fff"/>
      <path id="Path_17" data-name="Path 17" d="M1051.86,1040.55c-3.89-10.21-5.23-21.13-6.93-31.85-1.66-10.49-3.69-21.23-9-30.54-6-10.51-16.44-17.17-25.79-24.44-4.87-3.79-9.89-7.41-15.63-9.76-6-2.47-12.53-3.5-19-4.29-13.68-1.69-27.56-3.36-41.35-2.08-13.47,1.25-26.64,4.81-40.16,5.7-6.32.41-12.76-.34-19,.73a22.389,22.389,0,0,0-13.59,8A51.859,51.859,0,0,0,854,965.26c-2.23,5.34-4.19,10.79-6.71,16a64.941,64.941,0,0,1-9.58,15c-4.09,4.6-9.22,8-13.72,12.16a45.53,45.53,0,0,0-9.74,13.65c-2.43,4.95-4.44,10.1-7.19,14.88a37.487,37.487,0,0,1-4.69,6.56c-1.29,1.42.82,3.55,2.12,2.12,7.42-8.17,9.92-19.19,15.84-28.29,3.26-5,7.86-8.64,12.45-12.38a57.921,57.921,0,0,0,11.73-12.68,92.257,92.257,0,0,0,8.13-15.66c2.09-5,3.83-10.06,6.19-14.89,2.14-4.36,4.84-8.76,8.87-11.61,4.89-3.45,10.78-3.71,16.57-3.67a133.717,133.717,0,0,0,19.59-1.23c6.63-.93,13.2-2.22,19.8-3.27a129.234,129.234,0,0,1,20.21-1.83,189.283,189.283,0,0,1,20.19,1.24c6.54.69,13.15,1.28,19.61,2.57a49,49,0,0,1,17.36,6.88c5.14,3.33,9.82,7.33,14.69,11s9.71,7.33,13.6,12c6.67,8,9.59,18.34,11.49,28.43,2,10.53,3,21.26,5.77,31.63a74.32,74.32,0,0,0,2.39,7.41c.68,1.78,3.58,1,2.89-.8Z" fill="#fff"/>
      <path id="Path_18" data-name="Path 18" d="M912.77,886.6a340.834,340.834,0,0,1-9.12,56.07c-.47,1.87,2.43,2.67,2.89.79a344.905,344.905,0,0,0,9.23-56.86C915.92,884.67,912.92,884.68,912.77,886.6Z" fill="#fff"/>
      <path id="Path_19" data-name="Path 19" d="M866.66,949.43c4.17-9.42,5.42-19.69,5.31-29.93-.05-5.14-.42-10.28-.89-15.4-.39-4.28-.87-8.67-2.45-12.7a17.88,17.88,0,0,0-7.61-9.15,29.155,29.155,0,0,1-4.9-3.14,5.63,5.63,0,0,1-1.4-1.85,18.246,18.246,0,0,1-.6-3.68c-.45-2.26-2.57-3.8-2.38-6.22s1.77-4.69,2.94-6.79a63.48,63.48,0,0,0,5.56-14.47c1.39-5.12,2.94-10.43,3.34-15.73a19,19,0,0,0-4.07-13.51c-5.58-7.12-14.67-11.67-23.34-13.68a46.34,46.34,0,0,0-26.88,1.61c-4.14,1.61-8.28,4.1-10.57,8a6.359,6.359,0,0,0-1,3.07,11.51,11.51,0,0,0,.9,3.64,9.39,9.39,0,0,1,.11,4.88c-1.64,7.15-8.13,13.06-7.1,20.83.33,2.49,1.77,4.66,2.09,7.14s-.39,5.17-.39,7.74a21.61,21.61,0,0,0,4.09,12.59,22.238,22.238,0,0,0,4.56,4.63c1.53,1.18,3-1.43,1.51-2.59a18.71,18.71,0,0,1-6.68-10.46,20.1,20.1,0,0,1-.34-6.56c.25-2.54.55-5-.16-7.52-.61-2.1-1.73-4-1.79-6.24a13.18,13.18,0,0,1,.93-4.88c1.21-3.32,3.17-6.32,4.62-9.54s2.43-6.58,1.64-10.06c-.23-1-.73-2-.93-3a4.21,4.21,0,0,1,1.16-3.18,15.8,15.8,0,0,1,4.79-4.08c7.33-4.23,16.87-5.12,25.12-3.87,8.52,1.29,17.08,5,23.28,11.06,3.34,3.29,5.49,7.29,5.51,12.06,0,5.05-1.59,10.15-2.84,15a69.046,69.046,0,0,1-4.88,13.92c-1.94,3.84-5.5,8.27-3.75,12.83a19.2,19.2,0,0,0,1.54,2.72,9.56,9.56,0,0,1,.74,3.56,7.9,7.9,0,0,0,2.53,4.66c2.78,2.56,6.58,3.62,9.1,6.5s3.67,7,4.32,10.84a125.287,125.287,0,0,1,1.28,13.54c.58,9.74.45,19.68-2.23,29.13a51.652,51.652,0,0,1-2.4,6.68c-.77,1.75,1.82,3.28,2.59,1.51Z" fill="#fff"/>
      <path id="Path_20" data-name="Path 20" d="M801.13,876.39a32.36,32.36,0,0,0-27.39,13.8c-1.85,2.66-3.44,5.74-6,7.75-1.15.89-3.11,2.18-4.25.77-1.42-1.75-2.61-3.74-3.9-5.59L751.75,882a71.523,71.523,0,0,1-6.57-10.47c-1.82-3.88-2.3-8.05-2.45-12.29-.08-2.4-.09-4.8-.25-7.19a24.08,24.08,0,0,0-1.07-6.65,4.81,4.81,0,0,0-3.84-3.48,3.52,3.52,0,0,0-3.84,2.35l2.2-.9c-4-2.47-4.52-9.33-10.25-9.15-6.16.19-7.17,8.3-7.51,12.92-.31,4.09-.43,8.2-.37,12.3.05,3.88.17,7.76,1.73,11.37,1.38,3.2,3.42,6.07,4.85,9.26a68.557,68.557,0,0,1,3.41,10.1c2.08,7.67,3.63,15.53,7.29,22.65.88,1.72,3.47.21,2.59-1.51-6-11.65-6.23-25.32-12.76-36.77-1.71-3-3.4-5.87-3.83-9.36a75.589,75.589,0,0,1-.25-11.16,68.318,68.318,0,0,1,.7-10.51c.37-2,1.08-4.74,3-5.9,2.16-1.33,3.94.81,5,2.44,1.42,2.17,2.66,4.5,4.93,5.91a1.51,1.51,0,0,0,2.2-.89c.09-.27.7-.2.9-.12.74.29,1.05,1.29,1.23,2a27.706,27.706,0,0,1,.77,5.81c.23,4.07.1,8.15.66,12.19,1.15,8.26,6.32,14.78,11,21.43l7.5,10.76c1.06,1.51,2.1,3.62,3.66,4.67s3.25.67,4.8,0c3-1.3,5.08-3.91,6.88-6.54a46.687,46.687,0,0,1,6.1-7.82,29.57,29.57,0,0,1,21-8c1.93.06,1.93-2.94,0-3Z" fill="#fff"/>
      <path id="Path_21" data-name="Path 21" d="M734.69,910.23c-.26,3.92-.48,8,.58,11.81s3.57,6.78,6.38,9.51c5.4,5.23,11.55,10.17,18.85,12.4,8.34,2.55,17.1.2,25.49-.87,9-1.14,18.06-2,27.12-2.58,10.22-.72,20.44-1.21,30.67-1.7,1.92-.1,1.93-3.1,0-3-17.34.83-34.69,1.67-51.94,3.59q-6.44.72-12.82,1.64c-4.26.62-8.55,1.38-12.87,1-7.33-.64-13.8-4.93-19.19-9.66-3.07-2.69-6.7-5.68-8.27-9.55s-1.27-8.43-1-12.6c.13-1.93-2.87-1.92-3,0Z" fill="#fff"/>
      <path id="Path_22" data-name="Path 22" d="M739.05,928.12a76.738,76.738,0,0,1-10.22,8.73,102.543,102.543,0,0,0-10,8.6c-6.22,6.13-11.91,12.94-19.18,17.89-1.58,1.08-.09,3.68,1.52,2.59,7.38-5,13.18-11.82,19.48-18.06a99.005,99.005,0,0,1,10.06-8.69,79.844,79.844,0,0,0,10.48-8.93c1.31-1.42-.81-3.55-2.12-2.13Z" fill="#fff"/>
      <path id="Path_23" data-name="Path 23" d="M803.66,1037.55c.12-4.62.17-9.39-1.67-13.72a24.851,24.851,0,0,0-7.57-9.27c-3.66-3-7.6-5.64-11.42-8.41-4.12-3-8.24-6-12.37-8.93-7.44-5.36-15-10.19-23.64-13.47-7.66-2.91-15.64-4.88-23.46-7.34-8.6-2.71-17.17-6.11-24.09-12.07-1.45-1.25-3.59.86-2.12,2.12,12.28,10.57,28.57,13.4,43.51,18.3a80.693,80.693,0,0,1,23.33,11.55c8.18,5.61,16.14,11.57,24.17,17.38,3.57,2.59,7.33,5.3,9.73,9.08,2.81,4.44,2.73,9.71,2.6,14.78a1.5,1.5,0,0,0,3,0Z" fill="#fff"/>
      <path id="Path_24" data-name="Path 24" d="M700.46,965.71c-9.7-4.08-19.58-7.69-30.25-7.76a39.579,39.579,0,0,0-14.42,2.43c-4.93,1.89-8.95,5-13,8.31a64,64,0,0,1-13.91,8.54c-5.13,2.35-10.36,4.5-15.56,6.68a298.341,298.341,0,0,1-32.1,11.74,151.062,151.062,0,0,1-18.66,4.2c-6.08.95-12.23,1.45-17.91,4-1.75.8-.23,3.38,1.52,2.59,5-2.26,10.49-2.75,15.82-3.53a145.993,145.993,0,0,0,16.43-3.41,259.756,259.756,0,0,0,31.8-11.12c5.1-2.09,10.17-4.26,15.23-6.43a84.648,84.648,0,0,0,14.39-7.32c4.33-2.94,8-6.73,12.57-9.37a32.75,32.75,0,0,1,13.76-4.19c11.79-1,22.83,3,33.51,7.49a1.51,1.51,0,0,0,1.85-1.05,1.53,1.53,0,0,0-1-1.84Z" fill="#fff"/>
      <path id="Path_25" data-name="Path 25" d="M543.65,1003.92a464.066,464.066,0,0,0-42.12,27.1q-5.82,4.21-11.5,8.59a1.56,1.56,0,0,0-.53,2.06,1.5,1.5,0,0,0,2.05.53,462.019,462.019,0,0,1,41.26-28.4q6.12-3.74,12.36-7.29a1.5,1.5,0,0,0-1.52-2.59Z" fill="#fff"/>
      <path id="Path_26" data-name="Path 26" d="M543,997.57c11.57.42,23.52.81,34.69-2.78,4.41-1.42,9.78-3.55,11.83-8.1,1.09-2.44.67-4.8-.35-7.19a18.1,18.1,0,0,1-1.67-7.27c0-9.91,5.72-19.85.52-29.38a28.311,28.311,0,0,0-11.17-10.75c-4.55-2.47-9.87-3.07-14.25.07-4.05,2.91-6.33,7.71-10.52,10.43-5.09,3.3-11.64,2.65-17.38,2.09-1.92-.19-1.91,2.81,0,3,4.94.48,10.15.9,14.95-.66,4.36-1.41,7.26-4.47,10.14-7.86s5.87-6.68,10.58-6.17c4.91.52,9.51,4.34,12.65,7.92a17.18,17.18,0,0,1,4.18,13c-.34,4.71-1.75,9.27-2.38,13.94a26.222,26.222,0,0,0-.14,6.91c.31,2.5,1.34,4.54,2.16,6.88,1.65,4.76-3.47,7.76-7.22,9.23C568,995.47,555.25,995,543,994.57,541.07,994.5,541.07,997.5,543,997.57Z" fill="#fff"/>
      <path id="Path_27" data-name="Path 27" d="M570.88,932.86A54.744,54.744,0,0,1,579,929a29.088,29.088,0,0,1,8.2-2.22c3-.17,5.08,1.28,6.94,3.51a62.068,62.068,0,0,1,4.89,7,76.19,76.19,0,0,1,7.3,15.71c1.89,5.56,3.6,11.24,6.69,16.28a41.641,41.641,0,0,0,12.34,12.8c1.61,1.08,3.11-1.52,1.51-2.59A38.109,38.109,0,0,1,615.4,967.4c-3.19-5.33-4.78-11.36-6.85-17.17a75.192,75.192,0,0,0-7.73-15.84c-2.9-4.48-6.39-10.27-12.29-10.64-3.35-.21-6.79,1-9.88,2.17a60.007,60.007,0,0,0-9.29,4.35,1.5,1.5,0,0,0,1.52,2.59Z" fill="#fff"/>
      <path id="Path_28" data-name="Path 28" d="M586.67,973.74c3.65,1.57,6.34,4.5,9.07,7.28s5.8,5.6,9.66,6.93c1.83.63,2.61-2.26.79-2.89-3.58-1.24-6.28-4.07-8.87-6.71s-5.52-5.64-9.14-7.2a1.55,1.55,0,0,0-2,.53,1.52,1.52,0,0,0,.54,2.06Z" fill="#fff"/>
      <path id="Path_29" data-name="Path 29" d="M541.25,994.17c-15.5-.46-31,2.09-46.45.92a65.889,65.889,0,0,1-20.88-4.71,57.18,57.18,0,0,1-17-11.61c-2.48-2.39-4.68-4.92-5.74-8.26A75,75,0,0,1,449,959.69q-1.87-11.61-2.81-23.33c-1.23-15.38-1.61-31.11,0-46.48,1.54-14.85,7-30.08,19.7-38.93,1.57-1.1.07-3.7-1.52-2.59-11.36,7.9-17.75,20.74-20.15,34.11a151,151,0,0,0-1.91,23.66q-.26,12.2.48,24.38t2.45,24.19c.57,4.08,1.22,8.15,2,12.2a22.84,22.84,0,0,0,3.78,9.82,46.238,46.238,0,0,0,7.45,7.48,60.945,60.945,0,0,0,8.73,6.14,59.2,59.2,0,0,0,20.77,7c15.69,2.37,31.45,0,47.19-.19h6.12c1.93.05,1.93-2.95,0-3Z" fill="#fff"/>
      <path id="Path_30" data-name="Path 30" d="M535,945.18c-14.18-5.82-25-17.36-34-29.44-2.6-3.49-5.07-7.08-7.5-10.69-1.07-1.59-3.67-.09-2.59,1.52,8.77,13.06,18.4,26.14,31.52,35.16a63,63,0,0,0,11.77,6.34c1.78.73,2.56-2.17.79-2.89Z" fill="#fff"/>
      <path id="Path_31" data-name="Path 31" d="M466.1,850.36c6.69,2.5,13.94,2.49,21,2.66,6.85.16,14.16.4,20.18,4.07,6.64,4,10.25,11.76,13,18.75,2.8,7.16,4.6,14.65,7.3,21.84s6.49,14.18,12.94,18.76c1.57,1.12,3.07-1.48,1.51-2.59-5.64-4-9-10.28-11.42-16.61-2.76-7.22-4.56-14.77-7.35-22s-6.35-14.82-12.71-19.59c-5.67-4.24-12.85-5.23-19.73-5.53-8-.36-16.25.18-23.89-2.67-1.81-.68-2.59,2.22-.79,2.89Z" fill="#fff"/>
      <path id="Path_32" data-name="Path 32" d="M537.41,908.05a96.185,96.185,0,0,1,5.79-12,49.384,49.384,0,0,1,8-9.51,26.3,26.3,0,0,0,3.75-4.47,13.5,13.5,0,0,0,1.18-2.34,21.487,21.487,0,0,1,1-2.86c.82-1.59,2.62-1.15,4.07-.86a13.509,13.509,0,0,0,5.58.35l-1.9-1.45c-.18,3.63,1.86,6.65,3.76,9.56a22.17,22.17,0,0,1,3.78,10.56c.65,8.34-2.62,16.34-5.35,24l-5.1,14.4c-.65,1.82,2.25,2.61,2.89.8l4.53-12.78c1.45-4.1,3-8.19,4.21-12.37,2.19-7.62,3.06-16.16-.72-23.44-1.79-3.44-5.21-6.64-5-10.78a1.52,1.52,0,0,0-1.9-1.45c-2.77.61-5.52-1.26-8.33-.58-3.46.85-3.42,4.45-4.87,7-1.58,2.83-4.16,4.93-6.4,7.2a40.41,40.41,0,0,0-6.24,8.35,104.17,104.17,0,0,0-5.25,11c-.75,1.75,1.83,3.28,2.59,1.51Z" fill="#fff"/>
      <path id="Path_33" data-name="Path 33" d="M468.1,849.74c.73-3.82.15-7.57-.6-11.34a68.54,68.54,0,0,1-1.4-10.2,54.24,54.24,0,0,1,2.62-19.51c4-12.14,12.88-22.3,24.94-26.91a39.171,39.171,0,0,1,18-2.49,30.908,30.908,0,0,1,9.16,2.35,10.54,10.54,0,0,1,4.18,3,27.862,27.862,0,0,1,2.72,4.86q5.31,10.63,9.56,21.74a56.624,56.624,0,0,1,1.92,5.34c.45,1.65.58,3.31-.68,4.63a21.792,21.792,0,0,0-3.16,3.28,13.6,13.6,0,0,0-1.59,4.27c-.68,3-1.22,5.84-4,7.59S524,838.3,521,838.22c-3.43-.1-6.86,0-9.5,2.52a13,13,0,0,0-3.6,8.84,39.287,39.287,0,0,0,.22,5.84c.17,1.91,3.17,1.93,3,0-.32-3.67-.74-7.73,1.27-11,2.13-3.51,5.85-3.22,9.47-3.16a17.75,17.75,0,0,0,9-2,11.15,11.15,0,0,0,5.26-7.28,39.431,39.431,0,0,1,1.19-4.67c.62-1.63,1.84-2.52,3.06-3.68,2.81-2.69,2.34-6.23,1.12-9.59a242.133,242.133,0,0,0-9.52-22.6c-.91-1.9-1.84-3.8-2.81-5.67A14.661,14.661,0,0,0,526,781.3c-2.55-2.2-6-3.36-9.2-4.15a39.891,39.891,0,0,0-19.15.23,44.82,44.82,0,0,0-29.32,24.37,55.25,55.25,0,0,0-5.1,19.58,56.342,56.342,0,0,0,.17,10.39c.41,3.78,1.4,7.45,1.89,11.22a19.17,19.17,0,0,1-.05,6c-.36,1.88,2.53,2.69,2.89.8Z" fill="#fff"/>
      <path id="Path_34" data-name="Path 34" d="M521.88,783c-3.48,4.26-7,8.57-9.52,13.5a36.459,36.459,0,0,0-2.76,7.36c-.65,2.43-1.23,5-3,6.92s-3.95,3.24-5.53,5.31a16.08,16.08,0,0,0-2.91,6.27,15.61,15.61,0,0,0,0,6.7,16.68,16.68,0,0,0,3.2,6.13c4.07,5.71-1.45,12.24-2.33,18.1-.28,1.89,2.61,2.7,2.89.79.82-5.44,4.59-10.21,3.84-15.91a9.769,9.769,0,0,0-1.15-3.49c-.66-1.15-1.59-2.11-2.28-3.24a10.92,10.92,0,0,1-1.52-6.24,13.141,13.141,0,0,1,1.86-6.12c1.28-2.15,3.21-3.53,5-5.17,4-3.62,4.22-8.84,6.15-13.57,2.31-5.68,6.28-10.52,10.12-15.22,1.21-1.48-.9-3.61-2.12-2.12Z" fill="#fff"/>
      <path id="Path_35" data-name="Path 35" d="M499.78,829.25c6,7,15.44,9,24.13,10.57,1.89.35,2.7-2.54.8-2.89-8.19-1.5-17.11-3.17-22.81-9.81-1.26-1.46-3.38.67-2.12,2.13Z" fill="#fff"/>
      <path id="Path_36" data-name="Path 36" d="M559.83,872.8a78.85,78.85,0,0,1,1.36-18c.54-2.92,1.17-5.83,1.86-8.73.61-2.57,1-5.63,2.58-7.83a4.64,4.64,0,0,1,2.5-1.88c1.41-.36,2.13,1.14,2.84,2.14a29.656,29.656,0,0,1,3.58,6.56,24.12,24.12,0,0,1,.93,15.37c-1.63,5.7-5.23,10.61-9,15.05-1.25,1.46.86,3.59,2.12,2.12,3.94-4.59,7.59-9.58,9.5-15.38a26.68,26.68,0,0,0-.47-17.57,32.6,32.6,0,0,0-4-7.66,10.88,10.88,0,0,0-2.78-3.21,4.76,4.76,0,0,0-4.12-.08c-2.66,1-4.21,3.54-5.09,6.14a120.222,120.222,0,0,0-4.74,33c.09,1.92,3.09,1.93,3,0Z" fill="#fff"/>
      <path id="Path_37" data-name="Path 37" d="M679.27,833a16.3,16.3,0,0,1,5.53-7.42,17.3,17.3,0,0,1,4.21-2.27,11.582,11.582,0,0,0,4.25-2.31,9.081,9.081,0,0,0,2.22-4.45c.47-1.9.85-3.84,1.22-5.77.78-4.12,1.44-8.26,2.19-12.38,2.47-13.61,6.61-29.47,19.34-37.11,5.52-3.31,12.39-4.83,18.67-2.93,6.59,2,11.14,7.63,14.57,13.3,3.82,6.32,7,13.07,8.12,20.42,1,6.51.81,13.25,2.74,19.6a22.85,22.85,0,0,0,4.41,8.28,30,30,0,0,0,7.83,6.07,76.828,76.828,0,0,1,8.38,5.19,29.891,29.891,0,0,1,6.8,8c1,1.55,1.86,3.14,2.75,4.73s3.54.17,2.59-1.52a65.806,65.806,0,0,0-6-9.31,30.767,30.767,0,0,0-8-6.77c-3-1.81-6.1-3.35-8.9-5.42a18.72,18.72,0,0,1-6.12-7.64c-2.68-6.22-2.5-13.29-3.32-19.89a47.385,47.385,0,0,0-2.48-10.65,74.435,74.435,0,0,0-5-10.55c-3.39-6-7.7-12.11-14-15.32a24.243,24.243,0,0,0-19.5-.6c-14.06,5.31-20.91,19.74-24.14,33.5-2,8.32-2.92,16.83-4.82,25.16-.38,1.7-.76,3.5-2.35,4.48A46.3,46.3,0,0,1,686,821.4a19.39,19.39,0,0,0-7.44,6.54,19.654,19.654,0,0,0-2.15,4.3c-.67,1.81,2.23,2.6,2.89.8Z" fill="#fff"/>
      <path id="Path_38" data-name="Path 38" d="M691.58,821.91c4.37,4.27,5.35,11.62,11.76,13.81,6,2,11.79-3.39,14.64-8,3.42-5.6,5-12.37,5.74-18.81a64.8,64.8,0,0,0,.33-10.88c-.18-3.89-.57-7.79-.4-11.69.26-5.65,2.07-12.14,7.19-15.28a4.8,4.8,0,0,1,7.51,1.5,25.519,25.519,0,0,1,3,8.8,49.53,49.53,0,0,1-.61,21.7c-1.54,6.54-3.33,13.61,0,19.92,2.9,5.5,9.12,9.34,15.42,8.38a13.7,13.7,0,0,0,11.63-12.75c.06-1.93-2.94-1.93-3,0-.16,5.21-4.94,9.65-10.08,9.9-5.42.26-10.46-3.8-12.15-8.82-2.21-6.62.85-13.63,2-20.15a50.349,50.349,0,0,0-.66-20.56c-1.19-4.86-3.48-12.16-9.69-12.08-6,.09-10.31,6-12.1,11.13-2.26,6.44-1.4,13.34-1.08,20a60.231,60.231,0,0,1-2.5,20.93c-1.72,5.57-5.09,12.54-11.33,14-3.39.81-6-1.75-7.73-4.38-1.92-3-3.22-6.28-5.79-8.79-1.39-1.35-3.51.77-2.12,2.12Z" fill="#fff"/>
      <path id="Path_39" data-name="Path 39" d="M724,810.34a21.59,21.59,0,0,0,15.31,2.89,1.5,1.5,0,0,0-.8-2.89,18.52,18.52,0,0,1-13-2.59C723.87,806.75,722.37,809.32,724,810.34Z" fill="#fff"/>
      <path id="Path_40" data-name="Path 40" d="M791.58,841.46c-3.72.89-7.54-1.29-11.25,0s-4.87,5-6.65,8.17c-.76,1.33-1.89,3-3.51,3.29-1.82.36-3.47-1.22-4.84-2.17a15.45,15.45,0,0,0-11.58-2.26c-4.66.8-8.74,3.45-12.39,6.32-1.51,1.19.62,3.3,2.12,2.12,3.21-2.52,6.8-4.76,10.86-5.51a13.51,13.51,0,0,1,5.8.17,16.8,16.8,0,0,1,5.14,2.79,7.49,7.49,0,0,0,5,1.55,6.9,6.9,0,0,0,4.22-2.29,17.449,17.449,0,0,0,2.79-4.45A11.5,11.5,0,0,1,780,845c1.65-1.32,3.89-1,5.84-.75a17.127,17.127,0,0,0,6.5.09c1.88-.45,1.08-3.34-.8-2.89Z" fill="#fff"/>
      <path id="Path_41" data-name="Path 41" d="M680,834.81a8.55,8.55,0,0,1,8.36,5.14,24.479,24.479,0,0,0,2.32,4.84,9.582,9.582,0,0,0,3.63,2.86c2.59,1.21,6,1.56,8.11,3.6s1.71,5.66,3.48,8a5.53,5.53,0,0,0,5,2.19c2.13-.19,4.07-1.24,6.19-1.45,1.9-.19,1.92-3.19,0-3a47.307,47.307,0,0,0-5.5,1.32c-1.64.37-3,0-3.73-1.58-1.3-2.8-1.21-5.9-3.78-8-2.4-2-5.52-2.4-8.28-3.68a6.66,6.66,0,0,1-3.35-3.06c-.83-1.59-1.27-3.36-2.23-4.89A11.45,11.45,0,0,0,680,831.81C678.08,831.91,678.07,834.91,680,834.81Z" fill="#fff"/>
      <path id="Path_42" data-name="Path 42" d="M675.14,831.67c-7.62,1.1-15.25,2.11-22.86,3.3a35.3,35.3,0,0,0-5,1.07,51.053,51.053,0,0,0-5,2,14.47,14.47,0,0,1-9.48.42c-3.11-.81-6.12-2-9.34-2.33a23.889,23.889,0,0,0-9.44,1.27c-3.13,1-6.29,2.19-9.58,2.4s-6.2-.74-9.17-1.78c-3.21-1.12-6.43-2.38-9.87-2.57a14.657,14.657,0,0,0-4.84.59c-1.63.48-3.72,1.49-5.4.71s-3.26,1.76-1.51,2.59c3.32,1.56,6.19-.35,9.48-.82,3.09-.43,6.19.59,9.07,1.59a44.751,44.751,0,0,0,9.21,2.6,23.271,23.271,0,0,0,9.36-1.16c3.21-.95,6.42-2.25,9.78-2.48s6.61.88,9.84,1.83,6.45,1.64,9.75,1,6.37-2.6,9.74-3.37c4.22-1,8.6-1.38,12.87-2l13.2-1.9c1.9-.27,1.09-3.16-.8-2.89Z" fill="#fff"/>
      <path id="Path_43" data-name="Path 43" d="M727.7,891.75c-3.07,3-7.86,2.58-11.61,1.28-4.84-1.66-9.16-4.49-14.26-5.42-9.66-1.75-19.21,1.36-28.82,2a39.144,39.144,0,0,1-7.42-.14,55.74,55.74,0,0,1-7.54-1.76,32.141,32.141,0,0,0-7.6-1.34,41.31,41.31,0,0,0-7.68.76,31.9,31.9,0,0,1-7.8.54,53.064,53.064,0,0,1-7.67-1.61,58.235,58.235,0,0,0-15.91-1.27c-12.72.44-25.43,1-38.14,1.52-1.92.08-1.93,3.08,0,3l34.51-1.38c5.49-.22,11.08-.56,16.51.52,2.62.52,5.19,1.32,7.82,1.81a26.174,26.174,0,0,0,7.9.27c2.58-.3,5.13-.84,7.73-1.07a24.411,24.411,0,0,1,8.2.79c2.53.64,5,1.45,7.59,1.92a37.11,37.11,0,0,0,7.37.53c9.83-.23,19.67-3.84,29.53-2.3,5.71.89,10.44,4.25,15.91,5.86,4.56,1.34,9.95,1.1,13.51-2.39,1.38-1.35-.75-3.47-2.13-2.12Z" fill="#fff"/>
      <path id="Path_44" data-name="Path 44" d="M576.27,905.88q30.78,3.2,61.71,4.75t62.11,1.42q17.46-.07,34.9-.68c1.93-.07,1.94-3.07,0-3q-30.93,1.07-61.88.48T611,906q-17.4-1.28-34.77-3.09c-1.92-.2-1.9,2.8,0,3Z" fill="#fff"/>
      <path id="Path_45" data-name="Path 45" d="M559.61,838.81c-2.3.25-4.24-1.11-6.27-2a21.8,21.8,0,0,0-6.85-1.55c-4.83-.37-9.67.38-14.51,0-1.92-.17-1.91,2.83,0,3,4.84.41,9.68-.34,14.51,0a18.649,18.649,0,0,1,6.63,1.73c2.06,1,4.14,2.05,6.49,1.79,1.9-.22,1.92-3.22,0-3Z" fill="#fff"/>
      <path id="Path_46" data-name="Path 46" d="M399.59,972.72a204.045,204.045,0,0,1-18.25-20.07c-2.74-3.45-5.54-7-7.34-11s-2.37-8.83-2.8-13.35c-1.83-19.28-2.4-38.7-3.37-58l-.38-7.4-.17-3.46c0-.6-.29-2,.1-2.49.95-1.3,7.95,5.31,8.92,6.2,2.85,2.63,5.6,5.38,8.59,7.86s6.17,4.87,9.8,6.06,7.58.18,8.68-3.83c1.16-4.23-.67-8.67-2.57-12.38a192.579,192.579,0,0,0-14.21-23.2c-2.57-3.63-5.23-7.23-8.07-10.66a35.15,35.15,0,0,0-9.23-8.22c-6.9-4-15-5-22.88-5.44-1.94-.1-3.9-.16-5.85-.21s-1.93,3,0,3c7.79.2,15.8.47,23.16,3.29,8.08,3.11,13.16,10,18.12,16.76a207.332,207.332,0,0,1,14.53,22.76c2.06,3.74,4.8,8.08,4.29,12.55-.55,4.81-5.47,2.81-8.23,1.22-6.75-3.89-11.75-10-17.72-14.93-2.23-1.82-6.8-6.18-9.53-2.91-1.17,1.4-1,3.38-.88,5.07l.38,7.4c1,19.18,1.58,38.43,3.21,57.58a82.816,82.816,0,0,0,1.81,13.41,34.23,34.23,0,0,0,5.74,11.6,184.772,184.772,0,0,0,17.3,20.29q2.33,2.39,4.73,4.7c1.39,1.34,3.52-.78,2.12-2.12Z" fill="#fff"/>
      <path id="Path_47" data-name="Path 47" d="M442.31,884.83,412,882c-10-.94-19.92-2-29.92-2.46a148.843,148.843,0,0,0-17,.15c-1.91.13-1.93,3.13,0,3a191.643,191.643,0,0,1,30.11.74c10,.87,20,1.87,30,2.81l17.15,1.62c1.92.18,1.91-2.82,0-3Z" fill="#fff"/>
      <path id="Path_48" data-name="Path 48" d="M370.92,897.3c9.14.26,18,2.82,26.94,4.34a138.461,138.461,0,0,0,27.82,1.48c5.29-.18,10.57-.53,15.85-.88,1.92-.13,1.94-3.13,0-3-9.25.61-18.53,1.22-27.81.93a109.592,109.592,0,0,1-14.12-1.27c-4.49-.72-8.93-1.73-13.4-2.62a92.478,92.478,0,0,0-15.28-2c-1.94-.06-1.93,2.94,0,3Z" fill="#fff"/>
      <path id="Path_49" data-name="Path 49" d="M339,813.86c-2.28.06-3.07-2.64-2.81-4.48.36-2.56,1.8-5,2.73-7.35A70.192,70.192,0,0,0,343,786.62a63,63,0,0,0,.53-16,18.161,18.161,0,0,0-2.15-7.15,19.11,19.11,0,0,0-4.74-5.24c-7.42-5.88-17.7-10-27-6.22a17.52,17.52,0,0,0-9.53,9c-1.9,4.14-2.49,8.7-2.76,13.2-.63,10.42-1.05,21.48,2.11,31.55.78,2.49,2.08,5,2,7.67a10.15,10.15,0,0,1-2.57,6.08c-3.29,3.88-8.28,5.58-12.82,7.49a48.769,48.769,0,0,0-12.84,7.31,29.631,29.631,0,0,0-8.15,11.52c-4.14,10-3.58,21-4.17,31.64s-3.5,21.4-2,32.12c.61,4.37,1.89,10.21,6,12.62,2.21,1.28,4.85,1.24,7.32,1.13a69.3,69.3,0,0,0,16.41-2.7,1.5,1.5,0,0,0-.8-2.89,66.429,66.429,0,0,1-16.09,2.61c-2.37.09-4.89.12-6.59-1.79-1.51-1.69-2.19-4.09-2.73-6.24-2.52-10.19.22-20.81,1.15-31,.95-10.41,0-21.11,3.1-31.22a29.17,29.17,0,0,1,6.76-11.94c3.4-3.47,7.76-5.79,12.17-7.74s9.1-3.45,12.95-6.48c3.38-2.67,6.08-6.82,5.84-11.27-.15-2.62-1.25-5-2-7.47a47.437,47.437,0,0,1-1.69-7.35,90.314,90.314,0,0,1-.69-15.68c.21-8.29-.34-19.38,6.83-25.16,7.72-6.22,18.43-3,25.8,2a22.689,22.689,0,0,1,5.24,4.63,13.74,13.74,0,0,1,2.6,6.75,56.56,56.56,0,0,1-.35,15.21,70.16,70.16,0,0,1-3.86,15c-1.56,4.12-4.82,9.13-2.09,13.47a5.54,5.54,0,0,0,4.82,2.79c1.92-.05,1.93-3.05,0-3Z" fill="#fff"/>
      <path id="Path_50" data-name="Path 50" d="M277,863.69c4,7.84,2.54,16.93,1.26,25.24-.47,3-1.9,7.84,1.22,10,1.57,1.08,3.59.8,5.38.64a65.1,65.1,0,0,0,6.66-.95c1.89-.37,1.09-3.26-.8-2.89a59.87,59.87,0,0,1-6.09.86c-1.34.11-3.58.67-4-1.07s.16-3.5.4-5.08c.3-1.95.61-3.9.87-5.85,1-7.56,1.22-15.43-2.32-22.4-.88-1.72-3.47-.21-2.59,1.51Z" fill="#fff"/>
      <path id="Path_51" data-name="Path 51" d="M277.57,863.74a139.258,139.258,0,0,1,12.14,33.39c.42,1.88,3.31,1.09,2.89-.8a142,142,0,0,0-12.44-34.11c-.89-1.71-3.48-.2-2.59,1.52Z" fill="#fff"/>
      <path id="Path_52" data-name="Path 52" d="M289.68,896.74a203.909,203.909,0,0,1-4.74,45.68c-2.76,12.52-7.58,27.45,1.17,38.79,4.12,5.35,10.64,7.52,17,9a113,113,0,0,0,21.68,2.63c7.38.29,14.76.18,22.14.36s14.76,1.13,22.17,1.51,15.26-.3,21.49-4.74c5.12-3.65,9-9.42,8.38-15.93-.19-1.91-3.19-1.93-3,0,.55,5.43-2.58,10.26-6.89,13.34-5.3,3.77-11.74,4.58-18.09,4.41-7.1-.19-14.14-1.25-21.23-1.5-6.91-.25-13.83-.17-20.74-.32a134.16,134.16,0,0,1-21-1.79c-6.15-1.13-13.41-2.59-18-7.13-4.07-4-5.75-9.91-5.89-15.5-.17-7,1.79-13.74,3.34-20.46a207.717,207.717,0,0,0,5.27-48.37,1.5,1.5,0,0,0-3,0Z" fill="#fff"/>
      <path id="Path_53" data-name="Path 53" d="M385.15,959a338.184,338.184,0,0,0,50,10.48c4.79.64,9.59,1.16,14.4,1.59,1.93.17,1.91-2.83,0-3a333.381,333.381,0,0,1-49.83-8.27q-6.91-1.71-13.76-3.69a1.5,1.5,0,0,0-.8,2.89Z" fill="#fff"/>
      <path id="Path_54" data-name="Path 54" d="M281.17,966.23c-8.62.85-16.81,3.62-24.87,6.68a219.469,219.469,0,0,0-21.88,9.2,66.58,66.58,0,0,0-19,14.19c-5.86,6.38-11,13.44-16.41,20.21l-19.16,24.13c-1.19,1.5.92,3.63,2.12,2.12l16.53-20.82c5.38-6.76,10.62-13.65,16.19-20.26a65.1,65.1,0,0,1,18.08-15.25c6.72-3.79,13.92-6.6,21.1-9.37,8.84-3.4,17.84-6.9,27.35-7.83,1.9-.19,1.92-3.19,0-3Z" fill="#fff"/>
      <path id="Path_55" data-name="Path 55" d="M400.13,975c6.27-.72,13.37-1.58,19.15,1.56,5.59,3,8.67,9.24,12,14.4q11.86,18.58,25,36.29,7.34,9.85,15,19.42c1.21,1.5,3.32-.63,2.12-2.12q-14.16-17.58-27-36.15-6.48-9.36-12.6-19c-3.39-5.31-6.54-11.35-12-14.85-6.43-4.14-14.5-3.43-21.72-2.6-1.89.22-1.92,3.22,0,3Z" fill="#fff"/>
      <path id="Path_56" data-name="Path 56" d="M305.77,816.33c1.53-.59,2.54,1.3,2.74,2.57.31,1.94,0,3.92.46,5.85.84,3.32,3.77,5.41,6.67,6.87,1.66.83,3.47,1.76,5.38,1.72a7.15,7.15,0,0,0,4.43-1.81c2.71-2.26,3.56-5.73,5.7-8.41,2.38-3,6.81-2.4,9.19-5.36,1.2-1.49-.91-3.63-2.12-2.12a7.15,7.15,0,0,1-3.7,2,12.511,12.511,0,0,0-4.31,2.13c-2.6,2.17-3.45,5.54-5.47,8.14a5.31,5.31,0,0,1-3.72,2.39c-1.74.07-3.71-1.17-5.17-2a9.121,9.121,0,0,1-3.43-3c-1-1.61-.74-3.5-.81-5.29a7.73,7.73,0,0,0-1.94-5.29,4.37,4.37,0,0,0-4.7-1.28c-1.78.69-1,3.59.8,2.89Z" fill="#fff"/>
      <path id="Path_57" data-name="Path 57" d="M287.73,880.64a150.491,150.491,0,0,0,60.18-2.32,147,147,0,0,0,16.42-5.08c1.79-.67,1-3.57-.8-2.89a147.48,147.48,0,0,1-58.32,9.15,143.926,143.926,0,0,1-16.69-1.75C286.63,877.44,285.82,880.33,287.73,880.64Z" fill="#fff"/>
      <path id="Path_58" data-name="Path 58" d="M215.38,807.09c7.18,9.58,20.37,10.34,28.76,18.39a30.54,30.54,0,0,1,8.58,16.4c1.25,6.24,1.21,12.65,1.54,19,.38,7.14,1.23,14.31,4.44,20.79.86,1.73,3.45.21,2.59-1.51-5.77-11.62-3.29-25.26-5.42-37.67a34.75,34.75,0,0,0-7.52-16.9c-3.94-4.63-9.08-7.5-14.54-10-5.65-2.53-12-4.91-15.84-10-1.15-1.53-3.75,0-2.59,1.51Z" fill="#fff"/>
      <path id="Path_59" data-name="Path 59" d="M173.11,797.23c6.88,4.32,14.48,6,22.53,6.26,7.39.23,15.92-.08,21.82,5.19,1.44,1.28,3.57-.83,2.12-2.12-5.92-5.29-14-5.82-21.53-6a57.318,57.318,0,0,1-12.6-1.26,37.22,37.22,0,0,1-10.82-4.65c-1.64-1-3.15,1.57-1.52,2.59Z" fill="#fff"/>
      <path id="Path_60" data-name="Path 60" d="M219.59,804.31c-1.53-2.88,1.39-5.41,4-6,2.4-.59,5-.2,7.39-.74a5.93,5.93,0,0,0,4.88-5c.48-3.47-.36-7,.15-10.49.46-3.22,2-6.17,1.79-9.49a41.8,41.8,0,0,0-.76-4.87,39.935,39.935,0,0,1-.48-5.68c-.18-5.65-.46-12.28-5.28-16.14-1.18-1-2.62-1.39-3.85-2.25s-2-2.34-2.92-3.49a15.08,15.08,0,0,0-7.14-4.36c-5.86-1.93-12.28-3.24-18.43-2.15a28.85,28.85,0,0,0-22.32,20.08c-2,7.18-.75,14.69.31,21.91a77.268,77.268,0,0,1,1.07,11.5c0,2.8-.12,6.67-2.82,8.32-1.64,1-.14,3.6,1.52,2.59,5.06-3.1,4.53-10.56,4.09-15.65-.57-6.53-2.12-13-2.22-19.55a26,26,0,0,1,4.61-15.93,26.32,26.32,0,0,1,12.15-9.25c5.57-2,11.13-1.65,16.82-.26,2.82.69,5.84,1.36,8.29,3s3.35,4.51,5.85,6a19.346,19.346,0,0,1,3.43,2A9.781,9.781,0,0,1,232,751.8c1.21,2.75,1.37,5.8,1.47,8.76a71.733,71.733,0,0,0,1.05,10.13,12.451,12.451,0,0,1,0,4.94c-.36,1.56-.92,3.08-1.25,4.65-.78,3.75-.13,7.43-.33,11.2-.17,3.33-3.36,3.36-6,3.47-3,.12-5.91.46-8.24,2.5a6.92,6.92,0,0,0-1.68,8.38c.91,1.7,3.5.19,2.59-1.52Z" fill="#fff"/>
      <path id="Path_61" data-name="Path 61" d="M214.87,788.25a28.29,28.29,0,0,0,10.52,8.12,1.5,1.5,0,1,0,1.51-2.59,26.09,26.09,0,0,1-9.91-7.65,1.51,1.51,0,0,0-2.12,0,1.54,1.54,0,0,0,0,2.12Z" fill="#fff"/>
      <path id="Path_62" data-name="Path 62" d="M175.31,795.57a9.1,9.1,0,0,0-9.59.63,18.16,18.16,0,0,0-3.45,4.06,6.17,6.17,0,0,1-4.68,2.5c-1.84.18-3.68.1-5.51.37a16.361,16.361,0,0,0-5.25,1.76,28,28,0,0,0-8.76,7.82c-2.64,3.37-5.07,6.9-7.72,10.27a54.718,54.718,0,0,0-6.86,10.68,124.106,124.106,0,0,0-4.64,12.07c-1.46,4.25-2.82,8.54-4,12.87a118.8,118.8,0,0,0-4.57,29.66,1.5,1.5,0,0,0,3,0c.23-16.76,5.06-33.34,11-48.88a49.823,49.823,0,0,1,5.61-10.88c2.37-3.38,5.06-6.52,7.47-9.87,4.35-6,9.19-12.38,17.24-12.72a21.614,21.614,0,0,0,5.78-.67,8.93,8.93,0,0,0,4.45-3.47c1.11-1.51,2-3.11,3.86-3.85a6.11,6.11,0,0,1,5.07.24c1.71.89,3.23-1.7,1.52-2.59Z" fill="#fff"/>
      <path id="Path_63" data-name="Path 63" d="M110.14,888.57c1,9.92-.62,19.82-.7,29.75a57.58,57.58,0,0,0,1.47,14.33,70,70,0,0,0,5.36,13.59c1.86,3.8,4,7.75,7.89,9.73s8.71,2,13.12,2.3l31.61,1.85c10.48.61,21,1.2,31.47,1,5.27-.12,10.53-.41,15.79-.72,5-.3,10-.46,14.89-1,3.92-.42,8-1.57,10.14-5.18,2-3.33,1.79-7.66.35-11.16-1.68-4.09-4.72-7.31-7.45-10.71a87.741,87.741,0,0,1-7.44-11c-8.82-15.32-13.2-32.87-15.21-50.33q-.37-3.32-.65-6.64c-.16-1.91-3.16-1.93-3,0,1.41,16.94,4.7,33.89,11.68,49.48a95,95,0,0,0,13.29,21.55c2.6,3.16,5.59,6.41,6.57,10.49.86,3.57,0,7.52-3.5,9.27a16,16,0,0,1-5.75,1.29c-2.38.2-4.76.32-7.15.48-5,.32-9.92.63-14.88.86-10.17.48-20.32.33-30.48-.19s-20.22-1.16-30.33-1.76c-4.89-.28-9.8-.47-14.68-.88-4.22-.35-8.21-1.4-10.78-5a38.652,38.652,0,0,1-3.11-5.64c-1-2.16-2.07-4.33-2.94-6.57a46.209,46.209,0,0,1-3.12-13.67c-.68-9.53.89-19,.88-28.55,0-2.33-.11-4.64-.34-6.95-.2-1.91-3.2-1.93-3,0Z" fill="#fff"/>
      <path id="Path_64" data-name="Path 64" d="M237.81,939.23c5.54-.48,10.5-3,15-6.11A65.2,65.2,0,0,0,265.46,922c1.24-1.47-.87-3.6-2.12-2.13a61.391,61.391,0,0,1-11.68,10.38c-4.13,2.92-8.72,5.5-13.85,6-1.91.17-1.92,3.17,0,3Z" fill="#fff"/>
      <path id="Path_65" data-name="Path 65" d="M239.52,940.76a78.281,78.281,0,0,1,8.47,15c2.51,5.6,4.83,11.29,7.23,17a1.51,1.51,0,0,0,2,.54,1.54,1.54,0,0,0,.54-2c-2.4-5.66-4.72-11.35-7.23-17a78.051,78.051,0,0,0-8.47-15c-1.14-1.52-3.75,0-2.59,1.52Z" fill="#fff"/>
      <path id="Path_66" data-name="Path 66" d="M263.85,923.54q2.17,23.25,2.65,46.6a1.5,1.5,0,0,0,3,0q-.48-23.34-2.65-46.6C266.68,921.63,263.67,921.61,263.85,923.54Z" fill="#fff"/>
      <path id="Path_67" data-name="Path 67" d="M127.28,959.17c-.43,3.38-.8,6.83-.07,10.2s2.79,5.86,5.12,8.26a32.941,32.941,0,0,1,5.6,7.61c1.47,2.78,2.64,5.7,3.91,8.57a47.893,47.893,0,0,0,4.4,8.24,29.9,29.9,0,0,0,6.91,6.93,84,84,0,0,0,18.6,10.06c7.41,3,15.42,4.64,23.41,3.76,1.9-.2,1.92-3.21,0-3-13.63,1.49-27-4.57-38.22-11.84a30.531,30.531,0,0,1-7.18-6.18,36.191,36.191,0,0,1-4.52-7.69c-2.49-5.38-4.46-11-8.2-15.73-2.15-2.7-5.24-4.84-6.48-8.18s-.74-7.41-.28-11c.24-1.91-2.76-1.89-3,0Z" fill="#fff"/>
      <path id="Path_68" data-name="Path 68" d="M127.59,956.88v2.46a1.56,1.56,0,0,0,.44,1.06,1.52,1.52,0,0,0,1.06.44,1.5,1.5,0,0,0,1.06-.44,1.54,1.54,0,0,0,.44-1.06v-2.46a1.52,1.52,0,0,0-.44-1.06,1.5,1.5,0,0,0-1.06-.44,1.559,1.559,0,0,0-1.06.44,1.54,1.54,0,0,0-.44,1.06Z" fill="#fff"/>
      <path id="Path_69" data-name="Path 69" d="M113.56,941.08c-5.91,1.79-12.1.82-18.16,1-5.44.12-10.67,1.36-15.11,4.62-8.14,6-12.56,15.87-16.21,25a28.3,28.3,0,0,0-2.27,8.94,18,18,0,0,0,1.63,8.23c2.18,5,6.08,9.15,10.31,12.45,8.47,6.61,19,10,29.65,10.94,14.71,1.36,29.39-1.81,43.68-4.88,1.89-.4,1.09-3.3-.8-2.89-21.84,4.68-46.64,9.66-66.9-2.89a37.42,37.42,0,0,1-10.92-10,20.251,20.251,0,0,1-3.36-7.19,16.5,16.5,0,0,1,.63-8.5,80.758,80.758,0,0,1,6.08-14A40.9,40.9,0,0,1,80,950.78a22.47,22.47,0,0,1,15-5.73c6.49-.2,13.07.84,19.4-1.08,1.85-.56,1.06-3.45-.79-2.89Z" fill="#fff"/>
      <path id="Path_70" data-name="Path 70" d="M110.33,874q-18.56-1.34-37-3.87c-1.39-.2-2.79-.35-4.17-.61-.9-.17-2.79-.56-2.8-1.81,0-1,1.67-1.41,2.39-1.68l4.69-1.73,8.92-3.28c2.41-.89,5.16-1.62,6.87-3.68a11.41,11.41,0,0,0,2.16-6.48c.27-2.8.42-5.61.82-8.41q.63-4.49,1.68-8.9c.33-1.39.69-2.77,1.09-4.15a10,10,0,0,1,1.68-4c1.4-1.58,3.75-1.82,5.73-1.72a8.943,8.943,0,0,1,3.05.48c1,.47.68,2,.63,2.95l-.84,18.47c-.16,3.44-.31,6.89-.47,10.34-.13,2.8-.5,5.25-3.44,6.26a16,16,0,0,1-7.63.34A6.64,6.64,0,0,1,90,860.93a3.14,3.14,0,0,1-.93-3.18,1.55,1.55,0,0,0-.54-2,1.51,1.51,0,0,0-2,.54,6.17,6.17,0,0,0,1.65,7c2.19,2,5.34,2.4,8.18,2.51a14.68,14.68,0,0,0,7.4-1.34c2.61-1.36,3.72-3.85,4-6.67.32-3.54.34-7.14.5-10.69l.5-10.83c.16-3.5.51-7,.46-10.54a4.79,4.79,0,0,0-1-3.29,6.191,6.191,0,0,0-3.9-1.53,13,13,0,0,0-7.52.85c-2.77,1.37-3.78,4.07-4.58,6.88A99.3,99.3,0,0,0,88.53,849c-.19,2.61-.21,5.9-2.72,7.44a23.724,23.724,0,0,1-4.26,1.76l-5.16,1.9c-3.3,1.21-6.72,2.27-9.94,3.69-2.6,1.15-4.1,3.83-2.25,6.39a6.37,6.37,0,0,0,4.15,2.3c1.94.36,3.92.58,5.87.85q5.81.78,11.63,1.46,12.21,1.41,24.48,2.28c1.93.14,1.92-2.87,0-3Z" fill="#fff"/>
      <path id="Path_71" data-name="Path 71" d="M106.83,850.48a63.7,63.7,0,0,0,13.86-3.35,1.55,1.55,0,0,0,1-1.84,1.52,1.52,0,0,0-1.85-1,60.154,60.154,0,0,1-13.06,3.24,1.55,1.55,0,0,0-1.5,1.5c0,.73.69,1.61,1.5,1.5Z" fill="#fff"/>
      <path id="Path_72" data-name="Path 72" d="M67.37,862.68c.23-17.35.88-34.85,4.69-51.83a113.452,113.452,0,0,1,8.26-24.41c1.43-3,3.17-6.82,6.43-8.21,1.87-.79,3.94-.27,5.9-.57a9.59,9.59,0,0,0,4.76-2.34c3-2.61,4.26-6.53,4.87-10.34a117.153,117.153,0,0,1,2.25-12.63c2.16-7.89,6.15-15.32,12.53-20.58,5.65-4.67,13.12-7.27,20.44-5.94a20.74,20.74,0,0,1,9.83,4.46,23.23,23.23,0,0,1,6.45,9.84c3.21,8.61,4.07,17.59,4.3,26.69.11,4.37.78,8.48,3.08,12.26,2.16,3.56,5.25,6.64,6.7,10.61a9.49,9.49,0,0,1,.41,5.95,1.5,1.5,0,1,0,2.9.79c1.19-4.23-.41-8.53-2.71-12.09s-5.49-6.85-6.64-11.11c-1.22-4.54-.65-9.45-1-14.11A79.7,79.7,0,0,0,158.43,745c-2.11-8-5.66-15.88-13.43-19.79a26.34,26.34,0,0,0-22.26-.39c-7.39,3.19-13.27,9.27-17,16.32a51.749,51.749,0,0,0-4.57,12.32c-1.06,4.43-1.2,9-2.31,13.43-.89,3.54-3.17,7.62-7.26,7.9-2.15.15-4.14-.12-6.18.79a11.291,11.291,0,0,0-4.08,3.3c-2.57,3.19-4.19,7.14-5.76,10.88a112.532,112.532,0,0,0-4.44,12.63c-5,17.39-6.24,35.63-6.64,53.63,0,2.23-.09,4.45-.12,6.68a1.5,1.5,0,1,0,3,0Z" fill="#fff"/>
      <path id="Path_73" data-name="Path 73" d="M126.49,753.87a60,60,0,0,1,16.25-11.55c1.34-.64,3.46-2,4.95-1.25s1.75,2.77,1.82,4.26c.17,3.64.11,7.33,0,11a86.8,86.8,0,0,1-.9,11.5,20.66,20.66,0,0,1-2.62,7.91,8.21,8.21,0,0,1-7.57,3.91c-3-.22-5.35-2.25-7-4.65-4.28-6.35-6-14.66-6.1-22.21a1.5,1.5,0,1,0-3,0c.06,7.87,1.9,16.33,6.09,23.08,1.86,3,4.52,5.66,8,6.5a11.12,11.12,0,0,0,9.93-2.51c2.5-2.23,3.84-5.51,4.6-8.7A65.621,65.621,0,0,0,152.45,759c.19-4.39.2-8.81.08-13.2-.11-3.49-1.53-7.93-5.77-7.92-2.19,0-4.38,1.3-6.29,2.26a59.957,59.957,0,0,0-5.73,3.26,63.829,63.829,0,0,0-10.37,8.38,1.5,1.5,0,0,0,2.12,2.12Z" fill="#fff"/>
      <path id="Path_74" data-name="Path 74" d="M96.46,777.35a84.47,84.47,0,0,1,4.85,16.72c.49,2.7.65,5.58,2,8a10.361,10.361,0,0,0,4.15,4,13.42,13.42,0,0,0,12,.24c4.15-1.95,7.18-5.82,9-9.95,2.54-5.83,2.84-12.26,3.45-18.51.19-1.92-2.81-1.91-3,0-.84,8.56-1.16,19.59-9.19,24.88a10.6,10.6,0,0,1-10.12,1,7.73,7.73,0,0,1-3.72-3.33c-1.14-2.14-1.22-4.8-1.65-7.16a84.838,84.838,0,0,0-4.84-16.72c-.72-1.77-3.62-1-2.9.8Z" fill="#fff"/>
      <path id="Path_75" data-name="Path 75" d="M144.83,782.82c-.45,5,1.63,10.54,6.47,12.69a15.37,15.37,0,0,0,7.9.83,2.91,2.91,0,0,0,2.7-2.48c.33-1.46.6-2.93.87-4.4.6-3.28,1.11-6.57,1.55-9.88a1.5,1.5,0,0,0-3,0q-.62,4.56-1.45,9.08-.23,1.26-.48,2.52c-.06.31-.12.63-.19.94a5.46,5.46,0,0,0-.24,1.19c-.15.33-.08.33.18,0a.49.49,0,0,1-.29,0,3.72,3.72,0,0,0-.88,0c-.74,0-1.47.06-2.21,0a7.68,7.68,0,0,1-6.11-3,10.87,10.87,0,0,1-1.82-7.61,1.5,1.5,0,0,0-3,0Z" fill="#fff"/>
      <path id="Path_76" data-name="Path 76" d="M143.9,781.35a5.72,5.72,0,0,0,.25,1.83,5.53,5.53,0,0,0,1.1,1.87,1.54,1.54,0,0,0,1.06.44,1.58,1.58,0,0,0,1.06-.44,1.56,1.56,0,0,0,.44-1.06,1.68,1.68,0,0,0-.44-1.06l-.17-.2.24.3a3.643,3.643,0,0,1-.47-.81l.15.36a4.087,4.087,0,0,1-.25-.91v.4a3.469,3.469,0,0,1,0-.72,1.54,1.54,0,0,0-.44-1.06,1.52,1.52,0,0,0-1.06-.44,1.46,1.46,0,0,0-1.06.44,1.59,1.59,0,0,0-.44,1.06Z" fill="#fff"/>
      <path id="Path_77" data-name="Path 77" d="M238.84,773.39c5.69-1.11,11.64,1,16,4.72,4.61,3.89,7.58,9.37,9.48,15s2.21,11.85,6.17,16.4c.85,1,2,1.93,1.49,3.34s-1.47,2.33-1.91,3.67c-1,2.94.34,5.89,0,8.86-.38,3.13-3.41,5-6.16,5.8-3.6,1.12-7.43,1-11.16.94a1.5,1.5,0,0,0,0,3c6.35.14,14.66.19,18.81-5.58,2-2.79,1.45-5.87,1.19-9.06a7,7,0,0,1,.92-4.51c.84-1.41,1.67-2.82,1.43-4.53a6.91,6.91,0,0,0-2-3.49,13.87,13.87,0,0,1-2.72-4.35c-1.18-3.06-1.68-6.36-2.62-9.5-1.91-6.4-5-12.74-9.93-17.35-5.29-4.92-12.59-7.67-19.8-6.27-1.89.37-1.09,3.26.8,2.89Z" fill="#fff"/>
      <path id="Path_78" data-name="Path 78" d="M273.78,809.7a62.44,62.44,0,0,0,25.17-7c1.71-.89.19-3.48-1.52-2.59a58.731,58.731,0,0,1-23.65,6.57c-1.92.11-1.93,3.11,0,3Z" fill="#fff"/>
      <path id="Path_79" data-name="Path 79" d="M240.83,744.45a21.43,21.43,0,0,1,15.86-23c10.31-2.65,19.68,3.22,26.57,10.4,1.95,2,3.61,4.38,5.64,6.33s4.51,3.37,7.31,2.51c1.83-.57,1.05-3.47-.8-2.9-2.52.79-4.68-1.9-6.11-3.61a75.848,75.848,0,0,0-5.33-5.87,39.391,39.391,0,0,0-13.06-8.81,24.21,24.21,0,0,0-33.08,25c.2,1.9,3.2,1.92,3,0Z" fill="#fff"/>
      <path id="Path_80" data-name="Path 80" d="M238.16,745.47a20.76,20.76,0,0,0,7.26,18.2A21,21,0,0,0,254,768c3.41.79,7,.33,10.39,1.41,3,1,4.73,3.74,7.31,5.35a8.9,8.9,0,0,0,4.69,1.28c1.68,0,3.53-.42,5.15.16s2.71,1.81,4.32,2.25a6.08,6.08,0,0,0,4.29-.48c2.89-1.4,4.61-4.47,5.6-7.38a24.27,24.27,0,0,0-3.13-21.45c-1.11-1.57-3.71-.07-2.59,1.51a21.44,21.44,0,0,1,3.46,16.86c-.59,2.72-1.69,5.8-4.1,7.44-2.73,1.86-4.7-.95-7.25-1.71-2.95-.88-6.19.63-8.93-1.07-2.23-1.39-3.78-3.66-6.15-4.88-2.87-1.48-6.11-1.49-9.25-1.75a18.809,18.809,0,0,1-8.22-2.53,17.94,17.94,0,0,1-8.46-17.52c.22-1.91-2.78-1.9-3,0Z" fill="#fff"/>
      <path id="Path_81" data-name="Path 81" d="M294.75,740.12c5.13-1.06,10.47-2.17,15.71-1.18a1.5,1.5,0,1,0,.79-2.9c-5.8-1.1-11.6,0-17.3,1.19C292.06,737.62,292.86,740.51,294.75,740.12Z" fill="#fff"/>
      <path id="Path_82" data-name="Path 82" d="M295.52,760l3,1.37a1,1,0,0,0,.56.17,1.11,1.11,0,0,0,.6,0,1.57,1.57,0,0,0,.89-.69,1.47,1.47,0,0,0,.15-1.16,1.41,1.41,0,0,0-.69-.89l-3-1.37a1.09,1.09,0,0,0-.55-.18,1.12,1.12,0,0,0-.6,0,1.49,1.49,0,0,0-.9.69,1.54,1.54,0,0,0-.15,1.15,1.46,1.46,0,0,0,.69.9Z" fill="#fff"/>
      <path id="Path_83" data-name="Path 83" d="M310.6,739.66a108.563,108.563,0,0,1,15.3-.36,64,64,0,0,1,14.15,2.85,119.483,119.483,0,0,1,12.33,4.23c3.35,1.42,6.56,3.39,8.15,6.8.82,1.75,3.41.23,2.59-1.51-2.71-5.82-9.26-8.08-14.9-10-7.58-2.59-15.25-5-23.31-5.43a117.893,117.893,0,0,0-14.31.42c-1.92.14-1.93,3.14,0,3Z" fill="#fff"/>
      <path id="Path_84" data-name="Path 84" d="M344.48,784.32c10.07.35,19.43-4,28.19-8.45,4.39-2.25,8.77-4.6,13.36-6.46,4.34-1.75,9.38-3.54,14.14-3.42.66,0,2.34.23,2.25,1.26-.06.66-1.19.9-1.69,1a52.215,52.215,0,0,0-6.24,1.67,22.528,22.528,0,0,0-6,3.34c-1.52,1.24-2.73,3.5-1.24,5.24,1,1.19,3,1,3,2.89s-1.91,3-3.61,3.54a53.876,53.876,0,0,1-6.68,1.27c-2.58.41-5.17.78-7.75,1.14-11.2,1.58-22.51,3.09-33.08,7.31-1.77.71-1,3.61.79,2.89,10.07-4,20.82-5.58,31.48-7.08,5.14-.72,10.46-1.19,15.49-2.49a8.88,8.88,0,0,0,5.36-3.29,5.87,5.87,0,0,0,.64-5.27,4.35,4.35,0,0,0-1.61-2,9.438,9.438,0,0,0-1.2-.57c-.58-.26-.55-.26-.12-.79a9.449,9.449,0,0,1,2.84-2,21.3,21.3,0,0,1,3.47-1.59c2.93-1,10.47-1.22,9-6.27s-9.32-3-12.88-2.05a72.808,72.808,0,0,0-14.44,5.67c-10.55,5.21-21.25,11.93-33.46,11.5-1.93-.07-1.93,2.93,0,3Z" fill="#fff"/>
      <path id="Path_85" data-name="Path 85" d="M360.13,753.58a72,72,0,0,1,7.72,21.86c.34,1.9,3.23,1.1,2.89-.79a74.521,74.521,0,0,0-8-22.59c-.93-1.69-3.53-.18-2.59,1.52Z" fill="#fff"/>
      <path id="Path_86" data-name="Path 86" d="M279.06,778.14a65.48,65.48,0,0,1,9.7,25.94c.28,1.9,3.17,1.09,2.89-.8a67.67,67.67,0,0,0-10-26.66c-1-1.62-3.64-.11-2.6,1.52Z" fill="#fff"/>
      <path id="Path_87" data-name="Path 87" d="M221.58,742.34c-7.63,2.31-11,9.82-14.71,16.14a35.688,35.688,0,0,1-3.46,5,34.614,34.614,0,0,0-3.57,4.63c-1.05,1.77-1.58,3.8-2.69,5.55a11,11,0,0,1-3.83,3.56c-4.11,2.41-9,2.39-13.65,1.89-1.91-.21-1.9,2.79,0,3,7.62.83,16.87-.41,20.69-8.05a42.637,42.637,0,0,1,2.75-5.49c1.13-1.61,2.52-3,3.72-4.58,2.52-3.29,4.24-7.07,6.41-10.58s5-6.92,9.13-8.16c1.85-.55,1.06-3.45-.79-2.89Z" fill="#fff"/>
      <path id="Path_88" data-name="Path 88" d="M255.64,765.29a10.28,10.28,0,0,0,6.1-7.33,38.729,38.729,0,0,0,.88-6.16,12.32,12.32,0,0,1,1.16-4.9c1.67-3,5.51-1.5,8.22-1.49,3.44,0,5.6-2,6.61-5.15.52-1.64.78-3.5,2.16-4.68a4.86,4.86,0,0,1,4.73-.87c1.83.62,2.62-2.28.79-2.89a7.8,7.8,0,0,0-8.68,2.81,15,15,0,0,0-1.79,4.5c-.41,1.37-.95,2.73-2.46,3.14s-3.13,0-4.62-.13a9.21,9.21,0,0,0-4.71.56c-3.31,1.54-4,5.37-4.36,8.63-.4,3.76-.55,9.48-4.83,11.07-1.79.67-1,3.57.8,2.89Z" fill="#fff"/>
      <path id="Path_89" data-name="Path 89" d="M406.56,770.14c10.27-.09,20.1,3.21,29.54,7,8.22,3.26,16.72,6.48,24,11.51a34.349,34.349,0,0,1,9.88,10c1,1.63,3.62.13,2.59-1.51-4.78-7.59-12.4-12.55-20.35-16.34-4.19-2-8.49-3.73-12.78-5.47a150.776,150.776,0,0,0-15.31-5.49,62.293,62.293,0,0,0-17.62-2.62,1.5,1.5,0,0,0,0,3Z" fill="#fff"/>
      <path id="Path_90" data-name="Path 90" d="M512.73,792.65a6,6,0,0,0-4.44-4.62c-2.68-.74-5.42.22-7.84,1.34-1.23.56-2.42,1.2-3.69,1.64a35.127,35.127,0,0,0-3.62,1.25c-2.12,1-3.89,3.28-3.21,5.72.55,2,2.5,2.76,4.26,3.37a3.91,3.91,0,0,1,1.92,1c.56.77.33,2,.64,2.92,1.57,4.52,7.36,5.19,10.95,2.79,4.72-3.17,6.78-9.55,6.06-15a1.54,1.54,0,0,0-1.5-1.5,1.51,1.51,0,0,0-1.5,1.5,13.89,13.89,0,0,1-3,11,6.55,6.55,0,0,1-4.44,2.46,4,4,0,0,1-3.48-1.69,6.059,6.059,0,0,1-.54-2.31,4.3,4.3,0,0,0-1.21-2.44,10.219,10.219,0,0,0-3.77-1.85c-1.26-.47-2.09-1.29-.95-2.53s3.61-1.52,5.23-2.18c2.25-.92,4.41-2.37,6.87-2.69,1.92-.26,4.07.51,4.38,2.63a1.51,1.51,0,0,0,1.84,1,1.53,1.53,0,0,0,1.05-1.85Z" fill="#fff"/>
      <path id="Path_91" data-name="Path 91" d="M90.79,775.82a315,315,0,0,0,.36-85.49q-1.4-10.47-3.48-20.84c-1.44-7.1-3.24-14.17-3.88-21.4-1-11.31,1.31-24.53,11.55-31.18,2.62-1.7,5.48-3,8-4.88a18.7,18.7,0,0,0,5.09-5.68c2.42-4.24,3.09-9.19,3.4-14,.61-9.62-.68-21.49,7.48-28.44a19.09,19.09,0,0,1,13.9-4.33,16.77,16.77,0,0,1,12.27,7.5,18.46,18.46,0,0,1,2.93,14c-1.27,5.7-5.16,10.39-6.77,16a13.83,13.83,0,0,0-.12,8,14.8,14.8,0,0,0,4.65,6.65,56.074,56.074,0,0,0,7.28,5l9.12,5.72c3,1.88,6.06,3.71,9,5.68a21.4,21.4,0,0,1,6.48,6.12c3.08,4.89,3,11,2,16.49a87.317,87.317,0,0,1-2,8.61,1.51,1.51,0,0,0,2.9.8c1.58-5.83,3.08-12,2.56-18.07a19.37,19.37,0,0,0-8.3-15c-2.62-2-5.48-3.66-8.27-5.41l-9.54-6a96.245,96.245,0,0,1-8.28-5.39,12.908,12.908,0,0,1-5-6.78c-1.32-5.59,2.77-11.12,5-15.92,2.38-5.09,3.31-10.37,1.73-15.86A21.91,21.91,0,0,0,142,559.57,20.12,20.12,0,0,0,126.9,557a21.5,21.5,0,0,0-12.84,8.17c-3.1,4.2-4.17,9.52-4.64,14.61-.49,5.31-.28,10.66-.91,16-.57,4.79-2.07,9.55-5.74,12.88-2.37,2.15-5.35,3.48-8.06,5.14a26,26,0,0,0-6.7,5.71,33.41,33.41,0,0,0-6.77,15.37c-2.47,13.93,2.25,28,4.72,41.59a311.509,311.509,0,0,1,3.24,88c-.37,3.54-.81,7.08-1.3,10.61a1.54,1.54,0,0,0,1,1.84,1.51,1.51,0,0,0,1.85-1Z" fill="#fff"/>
      <path id="Path_92" data-name="Path 92" d="M110.31,593.84a34.721,34.721,0,0,1,5.15,13.2c1,5,1.66,10.15,2.42,15.23q2.48,16.62,5,33.23l.59,3.94a8.42,8.42,0,0,0,.88,3.43c1.15,1.8,3.66,1.68,5.12.34,1.69-1.55,1.48-4.08,1.45-6.16q0-4.21-.07-8.45V631.95c0-5.45-.09-11,.37-16.39a28.79,28.79,0,0,1,5.55-15.08c3.05-4.16,7-7.63,10.8-11.05,1.44-1.29-.69-3.41-2.12-2.12-6.49,5.79-13.25,12.05-15.88,20.62-1.44,4.7-1.55,9.7-1.62,14.58q-.12,8.07-.14,16.15t.07,16.15v3.87c0,.64.09,2.29-.76,2.5s-.67-1.53-.74-2l-.59-3.94q-2.4-16-4.79-32c-.83-5.51-1.51-11.06-2.59-16.53-1-5-2.56-10.07-5.54-14.33-1.1-1.57-3.7-.07-2.59,1.51Z" fill="#fff"/>
      <path id="Path_93" data-name="Path 93" d="M178.84,661.11c-3.87,5.33-7.68,10.71-11.62,16-2.82,3.78-6.65,8.45-11.71,8.91-3,.27-5.72-1.23-8.6-1.66a8.42,8.42,0,0,0-6.6,1.53,5.2,5.2,0,0,0-1.77,2.6c-.42,1.46,0,3-.14,4.43-.28,2.84-1.45,5.44-.41,8.28,1.59,4.37,6.33,6.53,10.44,7.87,6,2,12.26,3.59,18.44,5,5.52,1.27,12.35,3.28,17.58.09a17.679,17.679,0,0,0,5.44-5.84c1.57-2.45,3-5,4.35-7.57A167.63,167.63,0,0,0,209.15,662c.46-1.87-2.43-2.67-2.89-.79A164,164,0,0,1,194.33,694q-1.89,3.87-4,7.63a59.359,59.359,0,0,1-4.13,6.79,10.24,10.24,0,0,1-5.94,4.21c-2.8.6-5.78,0-8.54-.57-6.15-1.23-12.21-2.9-18.24-4.63-4-1.15-9.26-2.2-11.9-5.78-1.52-2.06-1-4.27-.52-6.61a15.89,15.89,0,0,0,.3-4.19,2.72,2.72,0,0,1,1.14-2.87c2-1.32,4.5-.63,6.62,0a16.33,16.33,0,0,0,7.83.86c5.27-1,9.18-5.4,12.28-9.44,4.19-5.48,8.13-11.17,12.19-16.76,1.13-1.56-1.47-3.06-2.59-1.51Z" fill="#fff"/>
      <path id="Path_94" data-name="Path 94" d="M175.1,715.54,176.56,751c.08,1.93,3.08,1.94,3,0l-1.46-35.43c-.08-1.93-3.08-1.94-3,0Z" fill="#fff"/>
      <path id="Path_95" data-name="Path 95" d="M180.24,633.4c3.61.66,6.86-1.22,9.21-3.86s3.85-5.73,6.84-7.46c5.57-3.23,12.66-1.33,18.6-3.41,3.27-1.14,5.57-3.35,7.76-5.94s4.53-4.94,7.82-6.17a23.732,23.732,0,0,1,9.64-1.3c3.33.18,7.29.71,10.24,2.38a13.74,13.74,0,0,1,3.88,4,31.249,31.249,0,0,0,3.11,3.5,53.378,53.378,0,0,0,7.42,5.79c5.12,3.44,10.67,6.44,14.94,11,5.05,5.37,6.59,12.5,7.34,19.62.83,7.85,1.4,15.75,1.67,23.64.54,15.76-.42,31.78-5.38,46.86q-.91,2.78-2,5.5c-.72,1.79,2.18,2.57,2.89.8,6-15.05,7.76-31.38,7.62-47.47-.08-8.12-.62-16.23-1.33-24.31-.66-7.49-1.2-15.44-5.12-22.07-6.72-11.34-21-14.45-28.83-24.69a19.129,19.129,0,0,0-3.81-4.17,15.389,15.389,0,0,0-5.25-2.2,35.36,35.36,0,0,0-10.08-1.19,23.85,23.85,0,0,0-9.79,2.32c-3.23,1.59-5.44,4.14-7.75,6.82a13.86,13.86,0,0,1-8.2,5c-3.26.65-6.61.55-9.89,1a16.64,16.64,0,0,0-9,3.52c-2.7,2.3-4.2,5.67-6.93,7.93a6.14,6.14,0,0,1-4.85,1.68c-1.88-.35-2.69,2.54-.79,2.89Z" fill="#fff"/>
      <path id="Path_96" data-name="Path 96" d="M219.9,606.54c-3.5-.26-5.85-3.67-6.47-6.85-.86-4.38.59-9,1.72-13.19,1.85-6.82,4.32-14,9.6-19a24.2,24.2,0,0,1,10.84-5.46c3.79-1,8-1.75,11.78-.52,7.37,2.37,8,11.77,7.85,18.23-.24,9-2.6,18.26-8.26,25.43-1.18,1.5.93,3.64,2.12,2.12,5.75-7.28,8.48-16.3,9-25.48.47-7.59,0-17.76-7.42-22.08-3.93-2.29-8.7-2.08-13-1.25-4.7.91-9.44,2.42-13.27,5.37-6.58,5.06-9.76,13.17-11.92,20.93-1.44,5.15-3.21,10.9-1.85,16.26,1.1,4.36,4.6,8.14,9.24,8.48,1.92.14,1.91-2.86,0-3Z" fill="#fff"/>
      <path id="Path_97" data-name="Path 97" d="M150.66,609.56a30.75,30.75,0,0,1,4.8-15.62,20.439,20.439,0,0,1,5.64-5.71c2.05-1.37,4.28-2.44,6.41-3.66a20.38,20.38,0,0,0,5.64-4.28c1.49-1.76,3.13-4.61,2.2-7a5.8,5.8,0,0,0-2.37-2.44,8.56,8.56,0,0,1-2.6-2.82,11.05,11.05,0,0,1-1.27-6.86c.79-6.26,6.52-10.44,12.14-12.24,1.83-.58,1-3.48-.8-2.89-5.45,1.74-10.7,5.23-13.12,10.59a14.11,14.11,0,0,0,1.83,14.83,19.488,19.488,0,0,0,2.86,2.36c1.12.89.28,2.37-.33,3.39a14.976,14.976,0,0,1-5.4,4.57c-2.03,1.18-4.36,2.29-6.43,3.64a24,24,0,0,0-6.13,5.76c-3.95,5.24-5.77,11.86-6.07,18.34-.08,1.93,2.92,1.92,3,0Z" fill="#fff"/>
      <path id="Path_98" data-name="Path 98" d="M182.72,546.3a16.41,16.41,0,0,1,13.82-18c4.15-.62,9.31.26,11.83,3.93,1.23,1.79,1.59,3.89,2.61,5.76,1.13,2.07,3.1,2.34,5.25,2.38,4.11.09,8.38.74,12,2.89a10.7,10.7,0,0,1,4.11,4.09c.83,1.6,1.12,3.73-.55,4.88-1.86,1.28-4.27,2-6.33,2.93q-3.37,1.5-6.77,3c-4.55,2-9.14,3.82-13.79,5.52-10.49,3.83-21.36,6.79-32.53,7.63-1.91.14-1.93,3.14,0,3a122.532,122.532,0,0,0,32-7.27c5.12-1.83,10.16-3.88,15.17-6,2.55-1.08,5.08-2.2,7.62-3.32,2.19-1,4.84-1.77,6.73-3.29,3.75-3,1.84-8.43-1.06-11.29-3.3-3.27-7.84-4.79-12.35-5.39-1.09-.14-2.18-.24-3.28-.29s-2.7.29-3.43-.61A10.35,10.35,0,0,1,212.6,534a16.919,16.919,0,0,0-1.75-3.38c-2.85-4.07-8-5.64-12.77-5.41a19.35,19.35,0,0,0-13.69,6.51,19.61,19.61,0,0,0-4.67,14.61c.19,1.9,3.19,1.92,3,0Z" fill="#fff"/>
      <path id="Path_99" data-name="Path 99" d="M163.34,588.29a129.063,129.063,0,0,1,1.79,17.64,51.358,51.358,0,0,1-.54,8.5,37.837,37.837,0,0,1-.94,4.35c-.17.64-.37,1.29-.58,1.92-.15.44-.35,1.46-.77,1.77-1.53,1.13,0,3.73,1.52,2.59a6.26,6.26,0,0,0,2.07-3.35,38.868,38.868,0,0,0,1.28-4.73,51.778,51.778,0,0,0,1-9.7,126.159,126.159,0,0,0-1.89-19.78c-.29-1.91-3.18-1.1-2.9.79Z" fill="#fff"/>
      <path id="Path_100" data-name="Path 100" d="M181,550.11c-.75,3.86-1.44,8.2,1,11.61a7.06,7.06,0,0,0,4.15,2.88c2.05.44,4.13-.18,6.09-.73a69.265,69.265,0,0,0,12.28-4.74c3.37-1.67,6.9-3.56,9.21-6.62,2.88-3.79,2.6-8.54,2.05-13-.23-1.9-3.23-1.92-3,0,.5,4.09,1,8.63-2,11.92C208,554.49,203.7,556.36,200,558a65.6,65.6,0,0,1-6.49,2.4c-2,.62-4.55,1.74-6.63,1.28a4.87,4.87,0,0,1-3.27-3.67c-.63-2.32-.11-4.8.35-7.1.36-1.88-2.53-2.69-2.9-.79Z" fill="#fff"/>
      <path id="Path_101" data-name="Path 101" d="M267.79,618.59c5.43-8.05,17.24-7,25.63-8.53,4.7-.83,9.59-2.47,12.92-6.06a5.25,5.25,0,0,0,1.57-3,18.22,18.22,0,0,0-.53-4.34,49,49,0,0,1-.44-9.14c.43-10.12,3.86-22.49,14.25-26.56,9.71-3.8,20.49.66,26.11,9.12a16.31,16.31,0,0,1,3.15,8.91c0,3.2-1.27,6.3-2.33,9.27a32.561,32.561,0,0,1-4.25,8.58c-1.7,2.28-3.58,4.58-3.42,7.6.1,1.92,3.1,1.93,3,0-.15-2.72,2.16-4.82,3.59-6.9a34.689,34.689,0,0,0,3.82-8.07,39.705,39.705,0,0,0,2.46-8.67,16.28,16.28,0,0,0-1.39-8.53c-4.23-9.71-14.74-16.63-25.42-15.6a22.1,22.1,0,0,0-14,6.66,31,31,0,0,0-7.12,14.1,52.17,52.17,0,0,0-1,18.92c.17,1.32.75,2.92.61,4.24s-1.7,2.34-2.65,3a19.909,19.909,0,0,1-6.69,3c-10.23,2.65-23.63.52-30.4,10.54-1.09,1.61,1.51,3.11,2.59,1.52Z" fill="#fff"/>
      <path id="Path_102" data-name="Path 102" d="M308.57,602.66c6-.93,12-2.16,18.06-2.46a17.94,17.94,0,0,1,8,1.2,31,31,0,0,1,6.22,3.86c1.94,1.45,3.82,3,5.85,4.3a36.4,36.4,0,0,0,6.33,3.18c4.29,1.75,9.09,3.16,12.2,6.81a24,24,0,0,1,3.62,6.81q1.63,4.14,3.23,8.29c2.09,5.43,4.08,10.9,5.78,16.46a123.541,123.541,0,0,1,4.05,17.1,53.59,53.59,0,0,1,.84,8.66c0,2.46-.64,5.29-2.83,6.75-2.62,1.75-6.47,0-9.19-.68-3-.8-6.14-1.92-9.28-2.08a7,7,0,0,0-6.51,2.92,5,5,0,0,0,.31,6.26c1.33,1.41,3.45-.72,2.12-2.12s.61-3.5,2-3.89c2.63-.73,5.68.52,8.2,1.18,5,1.31,11.62,4.21,15.63-.56,3.68-4.37,2.53-10.66,1.8-15.85a120.314,120.314,0,0,0-4-17.59c-1.72-5.72-3.75-11.34-5.89-16.91-1.06-2.79-2.15-5.57-3.25-8.35a33.439,33.439,0,0,0-3.42-7.07c-2.86-4.1-7.27-6.13-11.78-7.9a56.761,56.761,0,0,1-6.64-2.9,50.364,50.364,0,0,1-6.12-4.22,43.41,43.41,0,0,0-6.93-4.64,19.81,19.81,0,0,0-8.75-2.06,67.672,67.672,0,0,0-9.83,1c-3.56.5-7.11,1.05-10.65,1.6-1.91.3-1.1,3.19.79,2.9Z" fill="#fff"/>
      <path id="Path_103" data-name="Path 103" d="M280,607.87c-.72-4.78-1.48-9.58-1.87-14.4a12.63,12.63,0,0,1,.72-6.62,14.141,14.141,0,0,1,4.06-4.61c3.2-2.56,7.21-4.47,11.38-4.34a10.83,10.83,0,0,1,9,4.9,1.5,1.5,0,1,0,2.59-1.52c-3.82-6.3-12-7.68-18.52-5.08a24.331,24.331,0,0,0-9.26,6.47c-2.76,3.21-3.31,6.92-3,11,.44,5,1.22,10,2,15,.29,1.9,3.18,1.09,2.9-.8Z" fill="#fff"/>
      <path id="Path_104" data-name="Path 104" d="M353.9,689.9a255.259,255.259,0,0,1,4.18,58.4c-.09,1.93,2.91,1.93,3,0a258.842,258.842,0,0,0-4.29-59.2c-.35-1.9-3.25-1.09-2.89.8Z" fill="#fff"/>
      <path id="Path_105" data-name="Path 105" d="M353.74,568.35a6,6,0,0,1,1.75-6.45c2-2,5-2.7,7.66-3,5.35-.7,11.4-.66,16.24,2a15.34,15.34,0,0,1,7.7,11.92c.47,5.28-2.29,9.86-4.32,14.52s-3.14,9.66-1,14.58c2,4.47,5.88,7.73,9.22,11.15a35.9,35.9,0,0,1,8.3,13.35,67.4,67.4,0,0,1,3.25,16.09c.59,6.38,1.11,13.43-2.15,19.23s-9.68,7.24-15.91,7.93c-1.9.21-1.92,3.22,0,3,5.9-.66,12.23-1.71,16.35-6.41s5.27-11.34,5.11-17.53c-.3-11.7-2.26-24.64-9.61-34.13-3.28-4.23-7.82-7.41-10.73-11.92a12.07,12.07,0,0,1-2.1-7.29,22.55,22.55,0,0,1,2.47-8c2.41-5.24,4.84-10.32,3.87-16.25a18.24,18.24,0,0,0-9-12.86c-5.87-3.23-13.36-3.3-19.81-2.11-3.22.6-6.48,1.94-8.57,4.57a8.78,8.78,0,0,0-1.68,8.43c.68,1.79,3.58,1,2.9-.8Z" fill="#fff"/>
      <path id="Path_106" data-name="Path 106" d="M349.07,594c3.7,2.88,4.18,8,6.31,11.95a13.27,13.27,0,0,0,1.94,2.71,21.6,21.6,0,0,0,3.06,2.32c2.28,1.68,2.62,4.72,2.89,7.34.19,1.9,3.2,1.92,3,0-.29-2.81-.65-5.8-2.43-8.11a16,16,0,0,0-3.46-2.83,8.669,8.669,0,0,1-2.26-2.67c-2.42-4.23-2.85-9.66-6.92-12.83-1.51-1.17-3.65.94-2.13,2.12Z" fill="#fff"/>
      <path id="Path_107" data-name="Path 107" d="M353.26,570.35a10.6,10.6,0,0,1,5.91-1.31c1.37.1,4,.53,4.56,2.09.3.88-.41,2-.56,2.9a6.33,6.33,0,0,0,.07,2.49,6.53,6.53,0,0,0,3.13,4.25c1.46.81,3.59.91,4.38,2.56s.59,3.49,1.13,5.14a7.45,7.45,0,0,0,8.49,4.94c1.9-.34,1.09-3.23-.8-2.89a4.44,4.44,0,0,1-4.47-2.1c-.87-1.52-.74-3.45-1.19-5.11a5.92,5.92,0,0,0-3.18-4c-1.62-.77-3.55-1-4.35-2.81s.59-3.56.37-5.47a5.19,5.19,0,0,0-3.08-3.89,13.14,13.14,0,0,0-11.92.6c-1.69.93-.18,3.52,1.51,2.59Z" fill="#fff"/>
      <path id="Path_108" data-name="Path 108" d="M350.41,570v.3a1.15,1.15,0,0,0,.13.58,1.11,1.11,0,0,0,.31.48,1.14,1.14,0,0,0,.48.31,1.08,1.08,0,0,0,.58.13h.4a1.39,1.39,0,0,0,.66-.39l.24-.3a1.541,1.541,0,0,0,.2-.76V570a1.06,1.06,0,0,0-.13-.58,1.141,1.141,0,0,0-.31-.48,1,1,0,0,0-.48-.31,1.15,1.15,0,0,0-.58-.13h-.4a1.589,1.589,0,0,0-.66.39l-.23.3a1.48,1.48,0,0,0-.21.76Z" fill="#fff"/>
      <path id="Path_109" data-name="Path 109" d="M360.94,607.89c7.57-.26,14-4.53,20-8.73,1.57-1.1.07-3.7-1.52-2.59-5.51,3.86-11.52,8.08-18.5,8.32-1.93.07-1.94,3.07,0,3Z" fill="#fff"/>
      <path id="Path_110" data-name="Path 110" d="M382.27,682.16a62.534,62.534,0,0,1,4.19,8.24c1.17,2.83,2.49,6,2.76,9.05.19,2.23-.65,5.53-3.39,5.75-2.2.18-4.65-1.56-6.41.65a1.56,1.56,0,0,0,0,2.12,40.51,40.51,0,0,1,9.84,26.11,38,38,0,0,1-.57,7.07c-.36,1.94-.88,4.63-3.2,5s-5-.63-7-1.69a24.9,24.9,0,0,1-5.73-4.38c-4.24-4.22-7.4-9.39-11.77-13.5-1.41-1.32-3.54.8-2.13,2.12,4.38,4.11,7.53,9.29,11.78,13.51,3.71,3.68,8.88,7.23,14.35,7,5.94-.28,6.74-6.9,7.11-11.57a43.36,43.36,0,0,0-10.6-31.78V708c.61-.76,2.42,0,3.25.16a5.81,5.81,0,0,0,3.88-.8,8.17,8.17,0,0,0,3.57-7.43c-.13-3.39-1.46-6.76-2.72-9.88a67,67,0,0,0-4.66-9.37,1.5,1.5,0,0,0-2.59,1.51Z" fill="#fff"/>
      <path id="Path_111" data-name="Path 111" d="M475.9,789.79l3.84-46.89c.41-5,.76-11.55-3.34-15.28-2.42-2.2-5.52-2.06-8.35-3.32a11.33,11.33,0,0,1-5.1-4.87c-2.81-4.91-3.05-10.83-2.66-16.33.54-7.69,2.39-15.21,4.18-22.69,3.23-13.54,6.57-27.35,13.51-39.55a40.445,40.445,0,0,1,5.36-7.78,14.57,14.57,0,0,1,8.17-4.42c3.12-.63,6.41-.91,9.2-2.59s4.6-4.64,7.33-6.49a17.35,17.35,0,0,1,17-1.35c5.25,2.41,9.4,6.6,13.77,10.27a52.583,52.583,0,0,0,6.74,5,67.284,67.284,0,0,0,8.29,3.77c2.75,1.17,5.58,2.57,7.44,5s2.69,5.8,3.27,8.89a297.451,297.451,0,0,1,5.53,45.78c.18,5.69.24,14.28-6.54,16.34a7.3,7.3,0,0,1-4.26-.28,4,4,0,0,0-4,.91c-2.1,2.22-1.12,6.24-.91,8.9l3.63,47,.89,11.39c.15,1.91,3.15,1.93,3,0l-3.8-48.54-.93-11.89c-.1-1.34-.51-3.13,0-4.44.27-.67.6-.63,1.29-.49a26.749,26.749,0,0,0,2.68.62,10.15,10.15,0,0,0,7.81-3.19,15,15,0,0,0,3.87-8.59,59.232,59.232,0,0,0,.1-11.22q-.29-5.85-.88-11.69c-.8-7.91-2-15.79-3.26-23.63-1.05-6.33-1.47-14-6.16-18.92-4.35-4.53-11-5.5-16.19-8.74-9.68-6.05-17.26-17.76-30-16.86a20.47,20.47,0,0,0-9.28,2.94,20.839,20.839,0,0,0-3.41,2.66,38.841,38.841,0,0,1-3.89,3.81c-2.63,1.93-6.08,2.11-9.17,2.74a17.07,17.07,0,0,0-8.66,4.36,35.679,35.679,0,0,0-5.78,7.7,81.868,81.868,0,0,0-4.78,9.32,140.446,140.446,0,0,0-6.88,20.29c-1.94,7.22-3.72,14.51-5.25,21.83-1.45,6.88-2.77,14.18-2.06,21.23.53,5.22,2.18,11,6.32,14.48,2.33,2,4.9,2.59,7.78,3.36s4.43,2.75,5.11,5.58a25.5,25.5,0,0,1,.31,8c-.31,4-.65,7.9-1,11.85l-2,24.19-1,11.84c-.16,1.93,2.84,1.92,3,0Z" fill="#fff"/>
      <path id="Path_112" data-name="Path 112" d="M536.13,797c.46-6.69,7.09-10.56,13-11.82a62.331,62.331,0,0,1,11.33-1,19.069,19.069,0,0,1,5.33.37,11.15,11.15,0,0,1,4.69,2.69c8.86,8.06,13.06,20.68,12.56,32.44a41,41,0,0,1-5.56,19.1A1.5,1.5,0,0,0,580,840.3c6.79-11.53,7.77-26,3.23-38.57A41.25,41.25,0,0,0,572.42,785a15.08,15.08,0,0,0-10.65-3.83,71,71,0,0,0-12.36.93c-7.7,1.37-15.7,6.4-16.28,14.93-.13,1.93,2.87,1.92,3,0Z" fill="#fff"/>
      <path id="Path_113" data-name="Path 113" d="M497,624.87c-.87-4,1.33-8.13-.14-12.13-.7-1.89-2.07-3.32-3.21-4.94a18.919,18.919,0,0,1-2.6-5.32,19.14,19.14,0,0,1,.15-11.74c1.39-4.12,4.11-7.75,6.89-11a20.651,20.651,0,0,1,4.62-4.33,15.46,15.46,0,0,1,6-2.07,25.48,25.48,0,0,1,10.94.92,22.25,22.25,0,0,1,15.39,15.39c2.56,9.56-1,19.27-6.73,26.94-1.15,1.55,1.45,3.05,2.59,1.52,5.57-7.5,9-16.72,7.67-26.14A24.86,24.86,0,0,0,524,572.63c-7.49-3.33-17.69-4.06-24.42,1.36a31.519,31.519,0,0,0-4.78,5.08,50.078,50.078,0,0,0-4.11,5.82,23.32,23.32,0,0,0-3.42,12.93,23.62,23.62,0,0,0,5.28,13.39,8.9,8.9,0,0,1,1.71,3.1,10.359,10.359,0,0,1,.1,3.6c-.26,2.62-.77,5.13-.21,7.75.41,1.89,3.3,1.09,2.9-.79Z" fill="#fff"/>
      <path id="Path_114" data-name="Path 114" d="M499.06,576.65c0,2,1.72,2.46,2.68,3.88,1.09,1.6.68,3.78.35,5.54s-.8,3.83-.28,5.69a4.33,4.33,0,0,0,3.72,3.22c1.87.21,3.6-.69,5.45-.67a5.16,5.16,0,0,1,4.08,2.66,15.071,15.071,0,0,1,1.78,5.87c.26,1.71.29,3.73,1.34,5.19,1.35,1.88,4,1.75,6.09,1.83a47.784,47.784,0,0,0,7.75-.35c1.89-.24,1.91-3.24,0-3a47.8,47.8,0,0,1-6.1.38,29.015,29.015,0,0,1-3.06-.11c-.77,0-1.88.07-2.34-.66a6.548,6.548,0,0,1-.53-2.32c-.14-.95-.27-1.9-.44-2.85a15.348,15.348,0,0,0-1.8-5.34,8,8,0,0,0-8.12-4.17c-1.2.18-3.5,1.2-4.54.24-1.2-1.12-.26-3.94,0-5.26a12.279,12.279,0,0,0,0-5.75,6.61,6.61,0,0,0-1.29-2.39c-.31-.37-1.74-1.22-1.73-1.63a1.5,1.5,0,1,0-3,0Z" fill="#fff"/>
      <path id="Path_115" data-name="Path 115" d="M566.23,642.63a16.93,16.93,0,0,1,6.23-6.56c2.21-1.32,5.67-1.73,6.86-4.3,1.36-2.95-1.37-5.5-3.67-6.86-2.1-1.24-4.7-2-6.51-3.66-2.32-2.18-1.21-5.77-2.34-8.52-1-2.5-3.22-4.58-3.79-7.25a8.026,8.026,0,0,1,1-4.82c.67-1.51,1.41-3.3,2.19-4.9a27.47,27.47,0,0,1,5.74-8.27,23.06,23.06,0,0,1,16.46-6.14,22.38,22.38,0,0,1,15,6.92c4.59,4.74,6.4,10.91,6.49,17.4.1,7.27-1.43,14.47-1,21.75.11,2,.58,4,.51,6,0,1.32-.69,3.64-2.45,3.5-.94-.07-1.88-1.07-2.56-1.64s-1.58-1.38-2.33-2.11a48.114,48.114,0,0,1-3.78-4.29,12.57,12.57,0,0,0-3.55-3.42,9.72,9.72,0,0,0-5.53-.93,55.382,55.382,0,0,0-12.24,2.2c-1.85.55-1.06,3.45.8,2.9a51.287,51.287,0,0,1,11.65-2.11,6.175,6.175,0,0,1,4.72,1.18,33.292,33.292,0,0,1,3.22,3.78,40.246,40.246,0,0,0,4.07,4.19c1.28,1.13,2.71,2.55,4.38,3.06,3.37,1,6.1-2.12,6.51-5.19a26.5,26.5,0,0,0-.32-5.76,46.348,46.348,0,0,1-.13-5.65c.13-3.88.59-7.73.87-11.6.51-7.07.21-14.4-3.53-20.65a26.3,26.3,0,0,0-13.92-11.26,25.3,25.3,0,0,0-18.61,1.16c-6.4,2.91-10.64,8.22-13.54,14.48-1.44,3.11-3.59,6.8-3.09,10.34.44,3.06,2.7,5.24,3.92,8,.72,1.61.57,3.35.79,5.07a7.621,7.621,0,0,0,1.81,4.21c1.73,2,4.34,2.93,6.63,4.12,1.17.61,2.69,1.36,3.32,2.59.72,1.38-1.11,2-2.12,2.34a19.6,19.6,0,0,0-10.71,9.23c-.92,1.69,1.67,3.21,2.59,1.51Z" fill="#fff"/>
      <path id="Path_116" data-name="Path 116" d="M573.69,586.21A41.619,41.619,0,0,1,578.41,597c.85,3.12.8,7.22,4.09,8.9,2.55,1.31,6.1.79,7.37,3.87a16,16,0,0,1,.86,4.34,42.008,42.008,0,0,0,.88,5.46,35.351,35.351,0,0,0,5.21,11.59c1.09,1.58,3.69.08,2.59-1.51a33,33,0,0,1-4.74-10.26c-.87-3.26-.71-6.77-1.75-10a7.749,7.749,0,0,0-2.31-3.64,9.87,9.87,0,0,0-4.26-1.78c-1.32-.31-2.91-.55-3.59-1.88-.8-1.55-.86-3.6-1.29-5.27a44.121,44.121,0,0,0-5.19-12.15c-1-1.64-3.6-.14-2.59,1.52Z" fill="#fff"/>
      <path id="Path_117" data-name="Path 117" d="M603.15,639.59c4.94,14.73,7.5,31.89-1.07,45.85a26.622,26.622,0,0,0-2.54,4.7,15.049,15.049,0,0,0-.58,5.43c0,1.87,0,3.63-1.12,5.2s-2.44,2.66-3.22,4.32c-1.52,3.26-.91,6.92.13,10.22,1.16,3.68,2.62,7.22,3.55,11a65.42,65.42,0,0,1,.85,26.94c-.34,1.89,2.55,2.7,2.89.8a69.139,69.139,0,0,0,.09-24A67.267,67.267,0,0,0,599,718.29c-1.19-3.24-2.93-7-2.12-10.56.43-1.86,1.69-3.08,2.85-4.51a9.18,9.18,0,0,0,2.14-4.69c.25-1.92-.06-3.84.15-5.75a12,12,0,0,1,2.12-4.95,44.17,44.17,0,0,0,6.56-21.52c.45-9.38-1.67-18.68-4.64-27.52-.61-1.82-3.51-1-2.89.8Z" fill="#fff"/>
      <path id="Path_118" data-name="Path 118" d="M581.94,654.17a12.36,12.36,0,0,1,5.94-11A15.731,15.731,0,0,1,594.4,641c1.86-.21,4.9-.6,6,1.33s1.39,4.79,1.65,7a52.255,52.255,0,0,1,.29,7.61c-.14,5.1-.85,10.16-1.49,15.21a104.369,104.369,0,0,0-1.19,17.56c.08,1.93,3.08,1.94,3,0-.48-11.76,2.79-23.27,2.71-35a49.158,49.158,0,0,0-.81-8.64c-.44-2.37-.94-5.32-2.92-6.93s-4.91-1.39-7.19-1.16a19.33,19.33,0,0,0-7.34,2.23,15.47,15.47,0,0,0-8.12,14c.09,1.93,3.09,1.94,3,0Z" fill="#fff"/>
      <path id="Path_119" data-name="Path 119" d="M578.81,654.51c.17,12.37,1.37,24.7,1.51,37.07.14,11.89-.91,23.71-4.39,35.13a97.369,97.369,0,0,1-7.61,18c-.92,1.7,1.67,3.22,2.59,1.52a99.722,99.722,0,0,0,11.12-33c1.83-12.37,1.37-24.88.7-37.31-.39-7.16-.82-14.31-.92-21.47a1.5,1.5,0,0,0-3,0Z" fill="#fff"/>
      <path id="Path_120" data-name="Path 120" d="M568.28,745c-3.63,5.48-7.38,11.41-7.26,18.24.05,2.76.71,6.13,2.62,8.26,2.23,2.5,5.18,1,6.8-1.29a79.093,79.093,0,0,0,5.06-9.1q2.4-4.53,4.65-9.14,4.68-9.6,8.74-19.5,4.5-11,8.2-22.31c.6-1.84-2.3-2.63-2.9-.8a319.231,319.231,0,0,1-13.83,35.2Q576.44,753,572,761.27c-.74,1.37-1.48,2.73-2.24,4.09a21.117,21.117,0,0,1-2.17,3.63c-.89,1-1.54,1-2.21-.15a11.091,11.091,0,0,1-1.28-3.92c-1-6.83,3.15-13,6.73-18.38,1.07-1.62-1.53-3.12-2.59-1.52Z" fill="#fff"/>
      <path id="Path_121" data-name="Path 121" d="M599,753.18c-.52,4.31-2.38,8.32-3.82,12.37a45.5,45.5,0,0,0-2.51,12.76c-.52,8.9,1,18-.6,26.83-.34,1.88-.89,4.12-2.5,5.34-1.07.81-3.16,1.2-4.07-.07-1.11-1.56-3.72-.06-2.59,1.51,2.26,3.17,6.92,2.84,9.4.09,2.94-3.26,3.15-8.42,3.36-12.56.52-10.17-1.4-20.63,1.56-30.56,1.58-5.27,4.1-10.18,4.77-15.71.23-1.91-2.77-1.89-3,0Z" fill="#fff"/>
      <path id="Path_122" data-name="Path 122" d="M448.74,586.61c-9.75,4.07-20.57,8.8-26.23,18.27-3.29,5.52-3.85,11.91-4.34,18.17q-.87,10.91-1.72,21.8c-.58,7.36-1.33,14.73-1.68,22.11a54.18,54.18,0,0,0,2.67,20.47c2.16,6.33,4.75,12.46,6.43,19a109.06,109.06,0,0,1,3.22,19.49,111.361,111.361,0,0,1-5.69,44.22c-.63,1.83,2.26,2.62,2.89.8a114.09,114.09,0,0,0-1.07-76.46c-2.41-6.46-5-12.79-5.43-19.74s.41-14,.95-20.93L420.46,632c.28-3.44.54-6.87.82-10.31a50.47,50.47,0,0,1,1.48-9.78c3.45-12.21,16.05-17.9,26.78-22.38a1.54,1.54,0,0,0,1-1.84,1.5,1.5,0,0,0-1.84-1Z" fill="#fff"/>
      <path id="Path_123" data-name="Path 123" d="M448.39,590.07c4.77-.26,6-5,7.18-8.76a47.441,47.441,0,0,1,6-12.29,24.412,24.412,0,0,1,4-4.86,10.08,10.08,0,0,1,6.15-2.36c3.42-.22,9.9-.67,10.89,3.71.43,1.88,3.33,1.09,2.9-.8-.79-3.43-4.06-5.26-7.32-5.72-3.47-.5-7.68-.59-11,.71s-5.71,4.19-7.74,7.08A50.859,50.859,0,0,0,453.94,577c-.79,2-1.37,4-2,6-.53,1.68-1.48,4-3.54,4.07s-1.93,3.11,0,3Z" fill="#fff"/>
      <path id="Path_124" data-name="Path 124" d="M517.91,569.17c-7.11-8.73-20.3-11.53-30.23-6.1A25.1,25.1,0,0,0,477,574.74a24.18,24.18,0,0,0-2.06,8c-.28,3.48.47,7-.12,10.49-.94,5.55-5.56,9.17-10.28,11.62-5,2.61-10.57,4-15.61,6.61-5.39,2.77-9.51,6.86-11.38,12.71a60,60,0,0,0-1.94,9.74q-.78,5.37-1.28,10.77a195.675,195.675,0,0,0,1.94,49.77c.32,1.9,3.21,1.09,2.89-.8A192.329,192.329,0,0,1,436.82,651a181.011,181.011,0,0,1,2.32-20.64,26.91,26.91,0,0,1,2.76-8.86,17.17,17.17,0,0,1,5.61-5.76c8.81-5.79,20.82-6.47,27.46-15.49a15.5,15.5,0,0,0,2.88-7.51c.37-3.32-.23-6.65,0-10a21.72,21.72,0,0,1,6.73-13.7,20.59,20.59,0,0,1,16-5.68,22,22,0,0,1,15.2,8c1.22,1.5,3.33-.63,2.12-2.12Z" fill="#fff"/>
      <path id="Path_125" data-name="Path 125" d="M436.44,696.45a433.385,433.385,0,0,1-.69,61.89q-.74,8.74-1.81,17.43c-.23,1.92,2.77,1.9,3,0a434.243,434.243,0,0,0,3.2-61.81q-.17-8.76-.7-17.51C439.32,694.53,436.32,694.52,436.44,696.45Z" fill="#fff"/>
      <path id="Path_126" data-name="Path 126" d="M471.92,605.71a28.119,28.119,0,0,0,8.58,10.88,17.78,17.78,0,0,0,13.63,3.28c1.9-.35,1.09-3.24-.8-2.89-8.7,1.59-15.45-5.66-18.82-12.78C473.68,602.45,471.1,603.98,471.92,605.71Z" fill="#fff"/>
      <path id="Path_127" data-name="Path 127" d="M452.07,589.5c7.12.65,14.91-2.07,21.72.89,1.75.77,3.28-1.82,1.52-2.59-7.51-3.26-15.43-.59-23.24-1.3C450.15,586.32,450.16,589.32,452.07,589.5Z" fill="#fff"/>
      <path id="Path_128" data-name="Path 128" d="M941.76,614.92a68.811,68.811,0,0,1-22.91,7.62,1.52,1.52,0,0,0-1.05,1.85,1.55,1.55,0,0,0,1.85,1.05,71.417,71.417,0,0,0,23.63-7.93c1.69-.93.18-3.52-1.52-2.59Z" fill="#fff"/>
      <path id="Path_129" data-name="Path 129" d="M596.65,793.41c10.16,2.9,20.45,5.7,31,6.55a64.092,64.092,0,0,0,15.41-.52c4.66-.76,10-2,13.9-4.79a10.86,10.86,0,0,0,4.19-5.56,31.062,31.062,0,0,0,1-7.31l1.33-17.45,1.34-17.44c.43-5.6,1-11.26.31-16.87s-2.43-11.13-4-16.63-2.91-11.31-2.12-17.09a1.55,1.55,0,0,0-1.05-1.84,1.51,1.51,0,0,0-1.85,1c-1.36,10,2.68,19.34,4.94,28.9,2.5,10.57.81,21.52,0,32.21l-1.28,16.69-.65,8.48c-.19,2.42-.2,5.06-1.23,7.31-1.94,4.22-7.71,5.65-11.8,6.66a54.74,54.74,0,0,1-14.93,1.42c-11.53-.38-22.77-3.5-33.8-6.65a1.5,1.5,0,0,0-.79,2.89Z" fill="#fff"/>
      <path id="Path_130" data-name="Path 130" d="M600.74,794.42c-.63,3.73.61,7.1,1.74,10.59,1.22,3.73,1.3,7.38,1.29,11.27v24.64a1.5,1.5,0,1,0,3,0V816.78c0-3.73.09-7.46-.93-11.08-1-3.37-2.82-6.89-2.21-10.48.33-1.89-2.56-2.7-2.89-.8Z" fill="#fff"/>
      <path id="Path_131" data-name="Path 131" d="M623.42,800.15c-1.29,12.68.91,25.5,2.39,38.08.22,1.89,3.22,1.92,3,0-1.48-12.58-3.68-25.4-2.39-38.08C626.61,798.23,623.61,798.24,623.42,800.15Z" fill="#fff"/>
      <path id="Path_132" data-name="Path 132" d="M635.25,800.57c.11,3.12,1.34,5.9,2.64,8.68a68.125,68.125,0,0,1,3.53,9,64.5,64.5,0,0,1,2.83,19.12,1.5,1.5,0,1,0,3,0,66.6,66.6,0,0,0-5.92-27.81c-1.29-2.89-3-5.76-3.08-9-.07-1.93-3.07-1.94-3,0Z" fill="#fff"/>
      <path id="Path_133" data-name="Path 133" d="M651.28,796.53a31.191,31.191,0,0,0,3.86,8.93,50.119,50.119,0,0,1,4.15,8.95,43.919,43.919,0,0,1,1.9,19.87,1.57,1.57,0,0,0,1,1.85,1.51,1.51,0,0,0,1.84-1,47.541,47.541,0,0,0-1.62-20.63,49.171,49.171,0,0,0-4.09-9.38c-1.68-3-3.49-5.93-4.19-9.34-.39-1.88-3.29-1.09-2.9.8Z" fill="#fff"/>
      <path id="Path_134" data-name="Path 134" d="M658.52,698.24A13.25,13.25,0,0,0,656.87,688c-2-3.06-5.63-5.3-6.51-9-.83-3.49,2.63-5.24,5-7a16.8,16.8,0,0,0,5.9-8.14c1.55-4.44,1.45-9.26,1.33-13.9a1.5,1.5,0,0,0-3,0c.11,4.13.24,8.36-1,12.35a14.379,14.379,0,0,1-5.77,7.81c-2.52,1.78-5.2,3.73-5.54,7.06-.39,3.71,2.12,6.74,4.49,9.28a15.258,15.258,0,0,1,3.53,5,10.49,10.49,0,0,1,.34,6c-.45,1.87,2.45,2.68,2.89.79Z" fill="#fff"/>
      <path id="Path_135" data-name="Path 135" d="M661.87,651.58c1.1-8.32,2.08-17.72-3.09-25a21.258,21.258,0,0,0-3.76-3.94,16.93,16.93,0,0,1-3.53-3.49c-1-1.57-.64-3.07.18-4.64a18.052,18.052,0,0,0,2.19-5.41c.7-4.21-.55-8.38-2.2-12.22-.77-1.81-1.58-3.66-3.47-4.53a17.252,17.252,0,0,0-6-1.12c-7.93-.53-16.15,2.14-21.15,8.55a19.377,19.377,0,0,0-3,5.36,47.134,47.134,0,0,0-1.45,7.28c-.92,4.87-3.69,9-6.42,13.06-1.08,1.6,1.52,3.1,2.59,1.51a49.161,49.161,0,0,0,5.77-10.33c1.4-3.8,1.12-8,2.81-11.74,3.14-6.84,10.42-10.46,17.69-10.73a28.319,28.319,0,0,1,6,.39,4.51,4.51,0,0,1,2.42.88A7.78,7.78,0,0,1,648.9,598c1.51,3.46,2.84,7.55,1.85,11.33-.88,3.39-3.9,6.08-2.56,9.85,1.07,3,3.93,4.76,6.16,6.86,6.95,6.5,5.64,17.06,4.52,25.54-.11.81.76,1.49,1.5,1.5a1.54,1.54,0,0,0,1.5-1.5Z" fill="#fff"/>
      <path id="Path_136" data-name="Path 136" d="M608.2,638.72a12.3,12.3,0,0,0,5.43,8.77c3.37,2.37,7.57,3.14,11.58,3.64,8.42,1.06,17.51.87,25.73-1.43a20.091,20.091,0,0,0,10.3-6.16c1.2-1.49-.91-3.63-2.12-2.12-2.59,3.2-6.36,4.78-10.27,5.72a62.944,62.944,0,0,1-14.54,1.56,51,51,0,0,1-14.76-1.7c-3.83-1.18-7.9-3.93-8.35-8.27-.2-1.9-3.2-1.92-3,0Z" fill="#fff"/>
      <path id="Path_137" data-name="Path 137" d="M658.14,670.8a17.289,17.289,0,0,1,8.88,1.12,16.774,16.774,0,0,1,3.43,1.93c1.21.88,2.21,2.11,3.58,2.77,2.54,1.22,4.78-.44,5.52-2.91a22.5,22.5,0,0,0,.54-3.83,27.792,27.792,0,0,1,1.1-5c1.87-5.81,6.39-10.68,12.76-11,3.68-.18,7.34.31,11,.06,3.52-.24,7-.7,10.57-.71,6.68,0,13.83,1.12,19.86,4.13,5.13,2.56,9.69,7.2,9.63,13.29,0,3.13-1.7,5.53-3.49,8a20,20,0,0,0-4,8.46,58.855,58.855,0,0,0-.7,10c0,3.68,0,7.36.14,11,.58,16.42,2.48,32.82,1.49,49.26-.12,1.93,2.89,1.92,3,0,.91-15.05-.61-30.07-1.32-45.09-.35-7.35-.7-14.86,0-22.2a17.77,17.77,0,0,1,3.38-9.14c1.8-2.49,3.74-4.9,4.29-8,1.06-6-2-11.84-6.64-15.47-5.11-4-11.76-5.83-18.1-6.7a54.252,54.252,0,0,0-10.88-.41c-3.69.23-7.37.75-11.08.73s-7.25-.63-10.78.31a15.921,15.921,0,0,0-7.42,4.6,21.59,21.59,0,0,0-4.9,9.1,33.5,33.5,0,0,0-1,5.24c-.1.9,0,3-.9,3.62s-2.89-1.67-3.56-2.19a19.81,19.81,0,0,0-14.45-3.93c-1.88.24-1.91,3.25,0,3Z" fill="#fff"/>
      <path id="Path_138" data-name="Path 138" d="M656.24,689.55c8.91,2,16.65-6.9,19.25-14.46.62-1.83-2.27-2.62-2.9-.8a21.65,21.65,0,0,1-6.07,9.06c-2.52,2.26-6,4.09-9.48,3.3C655.16,686.23,654.36,689.12,656.24,689.55Z" fill="#fff"/>
      <path id="Path_139" data-name="Path 139" d="M697.62,650.47a3.14,3.14,0,0,0,1.51-3.71,4.61,4.61,0,0,0-3.38-3.19c-1.66-.54-3.21-.68-4.47-2a9.819,9.819,0,0,1-2.1-4.11,46.111,46.111,0,0,1-1.48-10.65c-.17-3.69.06-7.59,1.9-10.88,3.81-6.85,13.51-8.49,20.61-7.24a16.61,16.61,0,0,1,10,5.44c2.77,3.3,3,7.46,2.66,11.59-.21,2.45-.59,4.89-.66,7.36s.56,4.94,0,7.26c-.53,2.07-2.43,3.33-3.31,5.21a4.93,4.93,0,0,0,.52,5.53c1.27,1.46,3.39-.67,2.12-2.12s1-3.41,1.68-4.34A9.43,9.43,0,0,0,725.4,639c.12-2.22-.24-4.43-.13-6.66s.47-4.6.66-6.9c.35-4.24,0-8.56-2.52-12.14a18.24,18.24,0,0,0-9.19-6.73c-7.31-2.5-17.09-1.58-23.29,3.25-6.57,5.12-6.73,13.73-5.86,21.31.44,3.83.85,8.12,3.15,11.35a8.65,8.65,0,0,0,4.27,3.29c1,.34,2.29.37,3.17,1a1.13,1.13,0,0,1,.55.66,1,1,0,0,1,0,.39c0,.18.32-.16-.15.06-1.75.8-.23,3.39,1.52,2.59Z" fill="#fff"/>
      <path id="Path_140" data-name="Path 140" d="M714.62,650.36a17,17,0,0,1-.12-6.74c.52-2,1.49-3.69,1-5.83-1-4.16-5.27-5.52-8.26-7.93-3.41-2.76-2.9-7-3.35-10.92a6.52,6.52,0,0,0-2.59-4.83c-1.6-1.2-2.76-2.74-2.41-4.86.31-1.89-2.58-2.7-2.9-.8a7.88,7.88,0,0,0,1.17,5.81c1.07,1.55,3.16,2.24,3.62,4.15s.25,4.2.56,6.26a12.33,12.33,0,0,0,2.16,5.61,16.221,16.221,0,0,0,4.7,3.81c1.63,1,3.49,2.13,4.25,4s-.77,4.1-1,6a24.389,24.389,0,0,0,.36,7c.29,1.91,3.18,1.1,2.9-.79Z" fill="#fff"/>
      <path id="Path_141" data-name="Path 141" d="M695.23,648.35a9.16,9.16,0,0,0-3.5,3.18,1.54,1.54,0,0,0-.15,1.15,1.5,1.5,0,0,0,1.85,1.05,1.61,1.61,0,0,0,.89-.69l.36-.5-.23.3a7.838,7.838,0,0,1,1.35-1.35l-.31.24a7.742,7.742,0,0,1,1.25-.79,1.509,1.509,0,0,0-.31-2.74,1.64,1.64,0,0,0-1.15.15Z" fill="#fff"/>
      <path id="Path_142" data-name="Path 142" d="M660.35,776a9.19,9.19,0,0,0,2.86,8.45c2.84,2.5,6.81,2.45,10.37,2.74l25.75,2.1c1.93.16,1.91-2.84,0-3l-22.28-1.81L671.6,784a16.509,16.509,0,0,1-4.69-.78,6,6,0,0,1-3.66-6.46c.32-1.88-2.58-2.7-2.9-.79Z" fill="#fff"/>
      <path id="Path_143" data-name="Path 143" d="M703.88,603c-2-1.09-2.57-3.7-3.41-5.68a10.08,10.08,0,0,0-5-5.48,28.226,28.226,0,0,0-8.12-2,38.339,38.339,0,0,0-9-.51c-2.8.26-5.89,1-8.11,2.82-2.69,2.22-1.61,5.79-1.71,8.84a33.73,33.73,0,0,1-.55,5.21,38.983,38.983,0,0,0-1,4.85c-.16,2.89,2.41,4.81,2.35,7.62,0,1.43-.26,2.92.38,4.27a5.18,5.18,0,0,0,3.64,2.53,21.71,21.71,0,0,0,11.23,0,1.51,1.51,0,0,0-.8-2.9,18.591,18.591,0,0,1-8.74.27c-1-.23-2.55-.38-2.76-1.65s.14-2.4,0-3.58a8.158,8.158,0,0,0-1.07-3.12c-.59-1.08-1.36-2.1-1.25-3.4a40.335,40.335,0,0,1,.89-4,41.927,41.927,0,0,0,.59-4.6,35.288,35.288,0,0,0,.05-4.24c-.06-1.34-.48-2.82.71-3.77,2-1.57,4.91-2,7.37-2.14a42.52,42.52,0,0,1,7.8.61,22.531,22.531,0,0,1,6.91,1.71c2.3,1.16,3.18,3.14,4.07,5.42s1.84,4.41,4,5.58c1.7.91,3.22-1.68,1.51-2.59Z" fill="#fff"/>
      <path id="Path_144" data-name="Path 144" d="M674,626.75c-5,15.77.48,32.18-.26,48.24-.09,1.93,2.91,1.92,3,0,.73-15.76-4.72-32,.16-47.44.58-1.85-2.32-2.64-2.9-.8Z" fill="#fff"/>
      <path id="Path_145" data-name="Path 145" d="M670.77,596.32a3.2,3.2,0,0,0,1.89,2.84c1,.5,2.21.39,3.27.78,2.14.78,2.7,2.81,3.9,4.51a5.67,5.67,0,0,0,2.42,2,27.818,27.818,0,0,0,3.39.79,14.621,14.621,0,0,1,6.07,3.34c1.43,1.3,3.56-.82,2.13-2.12a18.591,18.591,0,0,0-5.67-3.54,15.28,15.28,0,0,0-3-.86,3.94,3.94,0,0,1-2.62-1.05c-1.24-1.47-1.73-3.33-3.27-4.6a8,8,0,0,0-2.82-1.51c-.39-.11-2.66-.28-2.67-.63-.07-1.93-3.07-1.94-3,0Z" fill="#fff"/>
      <path id="Path_146" data-name="Path 146" d="M696.25,590.64c2.34-7.49,12.64-9.89,19.44-8.43a14.89,14.89,0,0,1,9.17,5.8c2.4,3.48,2.65,7.8,1.63,11.81-1.24,4.86-4.14,9.07-6.92,13.16-1.09,1.61,1.51,3.11,2.59,1.52,5.26-7.75,11.37-18.16,5.69-27.39-5.06-8.22-16.19-10-24.72-6.72-4.41,1.71-8.32,4.8-9.78,9.45-.57,1.85,2.32,2.64,2.9.8Z" fill="#fff"/>
      <path id="Path_147" data-name="Path 147" d="M700.85,595.45c3.07.18,5.77-1.21,8.67-2,1.85-.48,4.69-.65,5.87,1.21s.64,4.36,2.44,6a6.53,6.53,0,0,0,3.75,1.32,42.819,42.819,0,0,0,5.19.36,1.5,1.5,0,0,0,0-3,37.793,37.793,0,0,1-5-.34c-1.43-.2-2.2-.48-2.58-1.93-.61-2.28-.9-4.43-3.06-5.82a9.36,9.36,0,0,0-6.77-.87c-2.89.57-5.5,2.17-8.52,2-1.93-.11-1.92,2.89,0,3Z" fill="#fff"/>
      <path id="Path_148" data-name="Path 148" d="M747.77,636.43c-.18.14-.87-.52-1-.69a7.669,7.669,0,0,1-.77-1.87,8.36,8.36,0,0,0-2.74-3.83,13.15,13.15,0,0,1-4.77-6.8c-1.55-5.43-.68-11.72,1.41-16.9,2.16-5.33,6.23-9.9,11.83-11.62s11.55-.3,15.21,4.43c4.66,6,4.51,14,3.91,21.23-.16,1.93,2.85,1.91,3,0,.63-7.57.6-15.83-4-22.29a16.59,16.59,0,0,0-17.5-6.64c-6.87,1.52-12.15,6.68-14.91,13-2.64,6.09-3.76,13.68-1.7,20.11a15.587,15.587,0,0,0,2.5,4.84c1.2,1.54,3,2.46,4.2,4s1.12,3.66,2.72,5a3.59,3.59,0,0,0,4.71.16c1.52-1.19-.62-3.29-2.13-2.12Z" fill="#fff"/>
      <path id="Path_149" data-name="Path 149" d="M752.09,639a94,94,0,0,1,20.53-14.95c1.7-.92.18-3.51-1.52-2.59A96.663,96.663,0,0,0,750,636.9c-1.39,1.34.73,3.46,2.12,2.12Z" fill="#fff"/>
      <path id="Path_150" data-name="Path 150" d="M748.52,639.12a40.192,40.192,0,0,0-1.6,13c.12,4.2.43,8.66-2.08,12.29-1.1,1.59,1.5,3.09,2.59,1.51,2.52-3.63,2.66-8.12,2.53-12.38a41.768,41.768,0,0,1,1.45-13.58c.56-1.85-2.33-2.64-2.89-.79Z" fill="#fff"/>
      <path id="Path_151" data-name="Path 151" d="M751.85,668.56c-.2,4-.12,8.65,3,11.57a1.56,1.56,0,0,0,2.13,0,1.54,1.54,0,0,0,0-2.13c-.17-.15-.33-.31-.49-.48l-.19-.22c-.16-.19.1.15,0,0a7.348,7.348,0,0,1-.67-1.15s-.13-.27-.08-.16a1.788,1.788,0,0,0-.09-.23,5.094,5.094,0,0,1-.18-.57,10.4,10.4,0,0,1-.31-1.34.634.634,0,0,0-.05-.3c-.05-.1,0-.23,0-.07a2.381,2.381,0,0,0-.07-.7c0-.45-.06-.9-.06-1.34,0-.95,0-1.89.06-2.83a1.5,1.5,0,0,0-3,0Z" fill="#fff"/>
      <path id="Path_152" data-name="Path 152" d="M774.64,679.94a28,28,0,0,1-7.34-1.42,60.06,60.06,0,0,0-7.52-1.55,59.369,59.369,0,0,0-15.3-.17c-1.9.22-1.92,3.23,0,3a57,57,0,0,1,15.43.2,64.21,64.21,0,0,1,7.25,1.6,28.551,28.551,0,0,0,7.48,1.34,1.5,1.5,0,0,0,0-3Z" fill="#fff"/>
      <path id="Path_153" data-name="Path 153" d="M740.73,693.75c11.26,4.52,23.38,9.27,35.76,7.78a20.4,20.4,0,0,0,7.74-2.09c2.45-1.4,3.67-3.7,4.52-6.29a50,50,0,0,0,2.44-17,51.632,51.632,0,0,0-4.19-18.8,1.5,1.5,0,0,0-2-.54,1.54,1.54,0,0,0-.54,2.05,48.21,48.21,0,0,1,2.16,31c-.64,2.37-1.26,5.24-3.41,6.72-2,1.35-4.63,1.74-7,2a46.57,46.57,0,0,1-16.61-1.42,140.656,140.656,0,0,1-18.12-6.28c-1.79-.72-2.56,2.18-.79,2.89Z" fill="#fff"/>
      <path id="Path_154" data-name="Path 154" d="M774.31,624.92c3.05-.26,5.75,1.41,8,3.3a31.1,31.1,0,0,1,5.72,6.45c3.41,5.09,5.54,10.85,7.42,16.64,1,3.13,2,6.27,3,9.37s2.36,6.28,3.34,9.5a35.1,35.1,0,0,1,.47,18.72c-1.72,7.18-5,13.84-8.56,20.26-.93,1.69,1.66,3.21,2.59,1.52,6.58-11.94,12.52-25.49,8.95-39.33-.86-3.32-2.12-6.51-3.28-9.72-1.22-3.38-2.27-6.81-3.37-10.22-2-6.26-4.24-12.57-7.9-18.08a33.388,33.388,0,0,0-6.76-7.61c-2.75-2.21-6-4.11-9.66-3.8-1.91.15-1.92,3.15,0,3Z" fill="#fff"/>
      <path id="Path_155" data-name="Path 155" d="M792.8,709.4a11.431,11.431,0,0,0-4.52,3.33c-1.36,1.88-1.13,4-.67,6.19a60,60,0,0,1,1.27,14.89c-.37,10-2.93,19.8-6.22,29.23-1.88,5.38-4,10.68-6.12,16-.72,1.79,2.18,2.57,2.89.8,7.09-17.61,14.37-36.32,12.08-55.68-.15-1.31-.34-2.61-.58-3.91a22.641,22.641,0,0,1-.72-4.05c0-2.26,2.34-3.31,4.11-4.17s.21-3.43-1.52-2.59Z" fill="#fff"/>
      <path id="Path_156" data-name="Path 156" d="M777,779.85a413.117,413.117,0,0,1-1.16,45.74c-.16,1.93,2.84,1.92,3,0A413.13,413.13,0,0,0,780,779.85C779.94,777.92,776.94,777.91,777,779.85Z" fill="#fff"/>
      <path id="Path_157" data-name="Path 157" d="M741.4,714.45c15.37-1.39,30.41,3.57,45.77,3.07,1.92-.06,1.93-3.06,0-3-15.36.5-30.4-4.46-45.77-3.07C739.49,711.62,739.47,714.63,741.4,714.45Z" fill="#fff"/>
      <path id="Path_158" data-name="Path 158" d="M2.72,223.64c54.52,42.42,121.4,62.89,186.92,81.48,75.74,21.48,151.6,43,228.79,58.77,72.06,14.7,145.24,23.53,218.78,25.27a1114.2,1114.2,0,0,0,215.87-15.58c71.49-12.35,141.74-32.14,208.79-59.9q11.78-4.87,23.4-10.06c1.76-.78.24-3.37-1.51-2.59a972,972,0,0,1-205,64.72A1094.725,1094.725,0,0,1,664.3,386.48a1206,1206,0,0,1-216.19-19.89c-76.55-14-151.69-34.51-226.54-55.58C155,292.27,85.84,275,27,237.19q-11.41-7.32-22.14-15.67c-1.5-1.17-3.64.94-2.12,2.12Z" fill="#fff"/>
      <path id="Path_159" data-name="Path 159" d="M.68,246.77c59.49,40.13,132,51.9,202.37,55.48,39,2,78.19,2.06,117.23,1.3,42.05-.82,84.1-3.2,125.87-8.29,76.17-9.29,150.43-28.89,221.94-56.58,70-27.08,137-61.19,201.94-98.62,65.91-38,129.73-79.45,193.19-121.36l24-15.86c1.61-1.06.11-3.66-1.51-2.59C1023.11,41.69,960.42,83,895.92,121.41s-131,74-200.41,103S553.72,275.72,479.32,287.6c-81.19,13-164,14.73-246.07,12.76C162.3,298.65,88.09,292,24.52,257.71c-7.67-4.13-15.11-8.66-22.33-13.53-1.6-1.09-3.1,1.51-1.51,2.59Z" fill="#fff"/>
      <path id="Path_160" data-name="Path 160" d="M131.26,16.89c53,37.35,106.81,73.85,163.66,105.17,57.67,31.76,118.11,56.72,181.7,73.86,67.25,18.14,136.06,31.12,204.48,44q103.83,19.51,208.52,34.15,51.33,7.08,102.83,12.76c34.64,3.81,69.56,7.3,104.44,5.09,8.1-.51,16.17-1.37,24.2-2.52,1.91-.28,1.1-3.17-.8-2.9-34.46,5-69.37,3.18-103.9-.16-34.79-3.38-69.52-7.65-104.18-12.22q-104.06-13.75-207.33-32.83c-68.06-12.45-136.28-25.46-203.47-42.05-32.77-8.1-65.26-17.48-96.88-29.35a797.394,797.394,0,0,1-89.18-40.25C258.64,100,205.07,64.73,152.6,28.19q-9.93-6.92-19.82-13.89C131.2,13.19,129.7,15.79,131.26,16.89Z" fill="#fff"/>
      <path id="Path_161" data-name="Path 161" d="M178.37,49.31A7.52,7.52,0,0,0,167,50.61a10.15,10.15,0,0,0-.12,11c2.48,3.87,7,6,11.36,6.82,2.38.45,4.75.3,6.38-1.7a9.05,9.05,0,0,0,1.79-6.27,13.58,13.58,0,0,0-8.63-11.71,1.5,1.5,0,0,0-1.84,1,1.52,1.52,0,0,0,1,1.84,10.51,10.51,0,0,1,6.19,7.28,8.06,8.06,0,0,1-.14,4.64,2.9,2.9,0,0,1-3.41,2.08c-5.74-.78-13.39-5.2-10.81-12a5.28,5.28,0,0,1,2.64-3,4.57,4.57,0,0,1,4.81.88c1.43,1.29,3.56-.83,2.13-2.13Z" fill="#fff"/>
      <path id="Path_162" data-name="Path 162" d="M225.38,81.09a7.53,7.53,0,0,0-11.4,1.3,10.17,10.17,0,0,0-.11,11c2.48,3.87,7,6,11.36,6.82,2.38.44,4.75.3,6.38-1.7a9.05,9.05,0,0,0,1.79-6.27,13.58,13.58,0,0,0-8.63-11.71,1.51,1.51,0,0,0-1.85,1A1.54,1.54,0,0,0,224,83.41a10.52,10.52,0,0,1,6.19,7.27,8.09,8.09,0,0,1-.14,4.65,2.9,2.9,0,0,1-3.42,2.08c-5.73-.78-13.38-5.2-10.8-12a5.28,5.28,0,0,1,2.64-3,4.55,4.55,0,0,1,4.81.87c1.43,1.3,3.56-.82,2.13-2.12Z" fill="#fff"/>
      <path id="Path_163" data-name="Path 163" d="M285.38,114.09a7.53,7.53,0,0,0-11.4,1.3,10.17,10.17,0,0,0-.11,11c2.48,3.87,7,6,11.36,6.82,2.38.44,4.75.3,6.38-1.7a9.05,9.05,0,0,0,1.79-6.27,13.58,13.58,0,0,0-8.63-11.71,1.51,1.51,0,0,0-1.85,1,1.54,1.54,0,0,0,1.05,1.85,10.52,10.52,0,0,1,6.19,7.27,8.09,8.09,0,0,1-.14,4.65,2.9,2.9,0,0,1-3.42,2.08c-5.73-.78-13.38-5.2-10.8-12a5.28,5.28,0,0,1,2.64-3,4.55,4.55,0,0,1,4.81.87c1.43,1.3,3.56-.82,2.13-2.12Z" fill="#fff"/>
      <path id="Path_164" data-name="Path 164" d="M353.52,149.43a7.52,7.52,0,0,0-11.39,1.3,10.17,10.17,0,0,0-.12,11c2.48,3.87,7,6,11.36,6.82,2.38.44,4.75.3,6.38-1.7a9.05,9.05,0,0,0,1.79-6.27,13.58,13.58,0,0,0-8.63-11.71,1.5,1.5,0,0,0-1.84,1,1.53,1.53,0,0,0,1,1.85A10.49,10.49,0,0,1,358.3,159a8.09,8.09,0,0,1-.14,4.65,2.89,2.89,0,0,1-3.41,2.08c-5.74-.78-13.39-5.2-10.81-12.05a5.28,5.28,0,0,1,2.64-3,4.57,4.57,0,0,1,4.82.87C352.82,152.85,354.95,150.73,353.52,149.43Z" fill="#fff"/>
      <path id="Path_165" data-name="Path 165" d="M429.52,179.43a7.52,7.52,0,0,0-11.39,1.3,10.17,10.17,0,0,0-.12,11c2.48,3.87,7,6,11.36,6.82,2.38.44,4.75.3,6.38-1.7a9.05,9.05,0,0,0,1.79-6.27,13.58,13.58,0,0,0-8.63-11.71,1.5,1.5,0,0,0-1.84,1,1.53,1.53,0,0,0,1,1.85A10.49,10.49,0,0,1,434.3,189a8.09,8.09,0,0,1-.14,4.65,2.89,2.89,0,0,1-3.41,2.08c-5.74-.78-13.39-5.2-10.81-12.05a5.28,5.28,0,0,1,2.64-3,4.57,4.57,0,0,1,4.82.87C428.82,182.85,430.95,180.73,429.52,179.43Z" fill="#fff"/>
      <path id="Path_166" data-name="Path 166" d="M508.18,200.59a8.66,8.66,0,0,0-11.74,4.75,9.52,9.52,0,0,0,3.39,10.83c3.9,2.93,9.35,3.34,14.05,2.75,2.63-.34,4.85-1.41,5.88-4a8.82,8.82,0,0,0-.2-6.43,13.91,13.91,0,0,0-12.13-8.32c-1.93-.12-1.92,2.88,0,3a11,11,0,0,1,8.57,4.9c1.59,2.54,2.2,6.92-1.57,7.74-5.55,1.2-16.17-.21-15.51-7.93a5.6,5.6,0,0,1,7.74-4.71,1.56,1.56,0,0,0,2.06-.54,1.51,1.51,0,0,0-.54-2Z" fill="#fff"/>
      <path id="Path_167" data-name="Path 167" d="M567.24,217.2A8.67,8.67,0,0,0,555.5,222a9.51,9.51,0,0,0,3.39,10.83c3.9,2.94,9.36,3.35,14.05,2.75,2.64-.34,4.85-1.41,5.88-4a8.77,8.77,0,0,0-.2-6.43,13.9,13.9,0,0,0-12.12-8.32c-1.93-.12-1.93,2.88,0,3a11,11,0,0,1,8.56,4.9c1.6,2.54,2.2,6.92-1.57,7.74-5.55,1.2-16.17-.21-15.51-7.93a5.61,5.61,0,0,1,7.75-4.71,1.55,1.55,0,0,0,2-.54,1.51,1.51,0,0,0-.54-2.05Z" fill="#fff"/>
      <path id="Path_168" data-name="Path 168" d="M640.61,231.12a8.66,8.66,0,0,0-11.74,4.75,9.5,9.5,0,0,0,3.39,10.82c3.9,2.94,9.35,3.35,14,2.76,2.63-.34,4.85-1.42,5.88-4A8.79,8.79,0,0,0,652,239a13.88,13.88,0,0,0-12.13-8.32c-1.93-.12-1.92,2.88,0,3a11,11,0,0,1,8.57,4.89c1.59,2.55,2.2,6.93-1.57,7.74-5.55,1.21-16.17-.2-15.51-7.93a5.6,5.6,0,0,1,7.75-4.7,1.56,1.56,0,0,0,2-.54,1.5,1.5,0,0,0-.54-2Z" fill="#fff"/>
      <path id="Path_169" data-name="Path 169" d="M723.36,244.86a8.67,8.67,0,0,0-11.74,4.75A9.51,9.51,0,0,0,715,260.44c3.9,2.94,9.36,3.35,14,2.75,2.63-.33,4.85-1.41,5.88-4a8.74,8.74,0,0,0-.2-6.42,13.87,13.87,0,0,0-12.13-8.32c-1.92-.13-1.92,2.87,0,3a11,11,0,0,1,8.57,4.89c1.6,2.54,2.2,6.92-1.57,7.74-5.55,1.2-16.17-.21-15.51-7.93a5.61,5.61,0,0,1,7.75-4.71,1.55,1.55,0,0,0,2-.54,1.51,1.51,0,0,0-.54-2Z" fill="#fff"/>
      <path id="Path_170" data-name="Path 170" d="M809.14,259.12a8.67,8.67,0,0,0-11.74,4.75,9.5,9.5,0,0,0,3.39,10.82c3.9,2.94,9.36,3.35,14.05,2.76,2.63-.34,4.85-1.42,5.88-4a8.74,8.74,0,0,0-.2-6.42,13.87,13.87,0,0,0-12.13-8.32c-1.92-.12-1.92,2.88,0,3A11,11,0,0,1,817,266.6c1.6,2.55,2.2,6.93-1.57,7.74-5.55,1.21-16.17-.2-15.51-7.93a5.61,5.61,0,0,1,7.75-4.7,1.55,1.55,0,0,0,2-.54,1.5,1.5,0,0,0-.54-2.05Z" fill="#fff"/>
      <path id="Path_171" data-name="Path 171" d="M895.72,273.05a7.49,7.49,0,0,0-9.85,5.62A10.26,10.26,0,0,0,890.22,289c3.88,2.64,9.06,2.68,13.47,1.65a5.849,5.849,0,0,0,4.78-4.44,9.641,9.641,0,0,0-1.1-6.33,13.52,13.52,0,0,0-12.07-7.11c-1.93.05-1.94,3.05,0,3a10.54,10.54,0,0,1,8.45,4c1.4,1.77,3.37,6.27.39,7.61a14.3,14.3,0,0,1-5.43.88,13.23,13.23,0,0,1-5.2-.89,7.4,7.4,0,0,1-4.82-6.61,5.24,5.24,0,0,1,1.25-3.84,4.61,4.61,0,0,1,5-1,1.5,1.5,0,0,0,.8-2.89Z" fill="#fff"/>
      <path id="Path_172" data-name="Path 172" d="M987.32,284.35a7.48,7.48,0,0,0-9.84,5.62,10.26,10.26,0,0,0,4.34,10.37C985.7,303,990.88,303,995.3,302a5.827,5.827,0,0,0,4.77-4.43,9.55,9.55,0,0,0-1.1-6.34,13.54,13.54,0,0,0-12.07-7.11,1.5,1.5,0,0,0,0,3,10.54,10.54,0,0,1,8.46,4c1.4,1.77,3.36,6.26.39,7.6a14.109,14.109,0,0,1-5.43.88,13.339,13.339,0,0,1-5.2-.88,7.42,7.42,0,0,1-4.83-6.61,5.29,5.29,0,0,1,1.25-3.84,4.61,4.61,0,0,1,5-1,1.5,1.5,0,0,0,.8-2.9Z" fill="#fff"/>
      <path id="Path_173" data-name="Path 173" d="M1019.39,328.8a7.48,7.48,0,0,0-9.84,5.62,10.27,10.27,0,0,0,4.34,10.37c3.88,2.63,9.06,2.67,13.48,1.64a5.827,5.827,0,0,0,4.77-4.43,9.549,9.549,0,0,0-1.1-6.34,13.54,13.54,0,0,0-12.07-7.11c-1.93.05-1.93,3.05,0,3a10.54,10.54,0,0,1,8.46,4c1.4,1.77,3.36,6.26.39,7.6a14.3,14.3,0,0,1-5.43.88,13.34,13.34,0,0,1-5.2-.88,7.42,7.42,0,0,1-4.83-6.61,5.31,5.31,0,0,1,1.25-3.85,4.63,4.63,0,0,1,5-1,1.51,1.51,0,0,0,1.85-1,1.53,1.53,0,0,0-1.05-1.85Z" fill="#fff"/>
      <path id="Path_174" data-name="Path 174" d="M316.76,337.53a8.67,8.67,0,0,0-10.63,6.1A9.54,9.54,0,0,0,310.6,354c4.32,2.5,9.82,2.14,14.47.89,2.49-.67,4.67-2,5.4-4.59a8.69,8.69,0,0,0-1-6.47c-2.53-4.6-8-7-13.14-6.57-1.91.17-1.92,3.17,0,3a11.18,11.18,0,0,1,9.46,3.52c2,2.26,3.19,6.62-.46,7.9-5.3,1.86-16.27,2.29-16.47-5.7a5.6,5.6,0,0,1,7.09-5.58,1.5,1.5,0,0,0,.8-2.89Z" fill="#fff"/>
      <path id="Path_175" data-name="Path 175" d="M421.67,363.89A8.67,8.67,0,0,0,411,370a9.54,9.54,0,0,0,4.47,10.38c4.32,2.51,9.82,2.15,14.47.89,2.49-.67,4.67-2,5.4-4.59a8.74,8.74,0,0,0-1-6.47c-2.53-4.59-8-7-13.15-6.57-1.9.17-1.92,3.17,0,3a11.21,11.21,0,0,1,9.47,3.52c2,2.26,3.18,6.62-.47,7.9-5.3,1.86-16.27,2.29-16.46-5.7a5.59,5.59,0,0,1,7.08-5.57,1.51,1.51,0,0,0,.8-2.9Z" fill="#fff"/>
      <path id="Path_176" data-name="Path 176" d="M542.31,379.4a8.66,8.66,0,0,0-10.63,6.11,9.51,9.51,0,0,0,4.47,10.38c4.31,2.51,9.81,2.15,14.46.89,2.5-.67,4.68-2,5.41-4.59a8.79,8.79,0,0,0-1-6.47c-2.53-4.6-8-7-13.14-6.57-1.91.17-1.93,3.17,0,3a11.18,11.18,0,0,1,9.46,3.52c2,2.26,3.19,6.62-.47,7.9-5.3,1.86-16.27,2.29-16.46-5.7a5.6,5.6,0,0,1,7.09-5.58,1.5,1.5,0,0,0,.8-2.89Z" fill="#fff"/>
      <path id="Path_177" data-name="Path 177" d="M643.19,387.3a8.66,8.66,0,0,0-10.63,6.11A9.51,9.51,0,0,0,637,403.79c4.31,2.51,9.81,2.15,14.46.89,2.5-.67,4.68-2,5.41-4.59a8.79,8.79,0,0,0-1-6.47c-2.53-4.59-8-7-13.14-6.57-1.91.17-1.93,3.17,0,3a11.18,11.18,0,0,1,9.46,3.52c2,2.26,3.19,6.62-.47,7.9-5.3,1.86-16.27,2.29-16.46-5.7a5.59,5.59,0,0,1,7.09-5.57,1.51,1.51,0,0,0,.8-2.9Z" fill="#fff"/>
      <path id="Path_178" data-name="Path 178" d="M743.14,387.24a8.67,8.67,0,0,0-10.63,6.11A9.52,9.52,0,0,0,737,403.74c4.32,2.5,9.81,2.14,14.46.89,2.5-.68,4.68-2,5.41-4.59a8.76,8.76,0,0,0-1-6.48c-2.53-4.59-8-7-13.14-6.57-1.91.18-1.93,3.18,0,3a11.21,11.21,0,0,1,9.46,3.52c2,2.26,3.19,6.62-.47,7.91-5.29,1.85-16.27,2.29-16.46-5.71a5.6,5.6,0,0,1,7.09-5.57,1.51,1.51,0,0,0,.8-2.9Z" fill="#fff"/>
      <path id="Path_179" data-name="Path 179" d="M855.2,371.84a7.52,7.52,0,0,0-9.09,7,10.15,10.15,0,0,0,5.91,9.63c4.45,2,9.74,1.27,14.08-.68,4.9-2.2,3.91-7.92,1.08-11.43a13.54,13.54,0,0,0-12.83-4.68,1.51,1.51,0,0,0-1.05,1.84,1.54,1.54,0,0,0,1.85,1.05,10.41,10.41,0,0,1,8.53,2.47,8.68,8.68,0,0,1,2.67,3.87c.4,1.29.48,2.88-.74,3.75a13.619,13.619,0,0,1-5.25,1.77,13.06,13.06,0,0,1-5.32-.07,7.45,7.45,0,0,1-5.84-5.86,5.231,5.231,0,0,1,.71-4,4.55,4.55,0,0,1,4.49-1.75c1.89.36,2.7-2.53.8-2.89Z" fill="#fff"/>
      <path id="Path_180" data-name="Path 180" d="M947.46,351a7.54,7.54,0,0,0-9.1,7,10.18,10.18,0,0,0,5.92,9.64c4.44,2,9.74,1.26,14.08-.69,4.89-2.2,3.9-7.92,1.07-11.42a13.53,13.53,0,0,0-12.82-4.69,1.5,1.5,0,1,0,.8,2.89,10.45,10.45,0,0,1,8.53,2.47,8.82,8.82,0,0,1,2.67,3.87c.4,1.3.47,2.88-.75,3.75a13.58,13.58,0,0,1-5.24,1.77,13.06,13.06,0,0,1-5.32-.07,7.45,7.45,0,0,1-5.84-5.86,5.24,5.24,0,0,1,.7-4,4.55,4.55,0,0,1,4.5-1.75c1.89.36,2.69-2.53.8-2.9Z" fill="#fff"/>
      <path id="Path_181" data-name="Path 181" d="M230.24,314.34a8.67,8.67,0,0,0-10.63,6.11,9.54,9.54,0,0,0,4.47,10.38c4.32,2.51,9.82,2.15,14.47.89,2.5-.67,4.68-2,5.41-4.59a8.79,8.79,0,0,0-1-6.47c-2.53-4.59-8-7-13.15-6.57-1.9.17-1.92,3.17,0,3a11.21,11.21,0,0,1,9.47,3.52c2,2.26,3.19,6.62-.47,7.9-5.3,1.86-16.27,2.29-16.46-5.7a5.59,5.59,0,0,1,7.09-5.57,1.5,1.5,0,0,0,.79-2.9Z" fill="#fff"/>
      <path id="Path_182" data-name="Path 182" d="M289.25,301.54a7.52,7.52,0,0,0-8.89,7.11,10.16,10.16,0,0,0,5.69,9.34c4.56,2.13,9.87,1.23,14.3-.79a5.68,5.68,0,0,0,3.63-5.34,9.77,9.77,0,0,0-2.47-6.06,13.55,13.55,0,0,0-13.12-4.45c-1.88.41-1.09,3.3.8,2.9a10.41,10.41,0,0,1,8.67,2.15c1.82,1.48,4.94,5.77,2,7.67a15.29,15.29,0,0,1-5.16,1.86,12.79,12.79,0,0,1-5.3.05,7.39,7.39,0,0,1-5.89-5.67,5.22,5.22,0,0,1,.54-3.91,4.56,4.56,0,0,1,4.41-2,1.55,1.55,0,0,0,1.85-1,1.53,1.53,0,0,0-1.05-1.85Z" fill="#fff"/>
      <path id="Path_183" data-name="Path 183" d="M346,300.19a7.52,7.52,0,0,0-8.89,7.11,10.14,10.14,0,0,0,5.69,9.33c4.56,2.14,9.87,1.23,14.3-.79a5.7,5.7,0,0,0,3.63-5.34,9.73,9.73,0,0,0-2.48-6.06A13.52,13.52,0,0,0,345.13,300c-1.88.41-1.09,3.3.8,2.89A10.48,10.48,0,0,1,354.6,305c1.82,1.49,4.94,5.77,2,7.68a15.269,15.269,0,0,1-5.16,1.85,12.79,12.79,0,0,1-5.3.06,7.42,7.42,0,0,1-5.89-5.68,5.21,5.21,0,0,1,.54-3.9,4.52,4.52,0,0,1,4.41-2A1.54,1.54,0,0,0,347,302a1.5,1.5,0,0,0-1-1.84Z" fill="#fff"/>
      <path id="Path_184" data-name="Path 184" d="M414.24,296.7a7.52,7.52,0,0,0-8.89,7.11,10.18,10.18,0,0,0,5.7,9.34c4.55,2.13,9.87,1.23,14.29-.8A5.71,5.71,0,0,0,429,307a9.73,9.73,0,0,0-2.5-6,13.53,13.53,0,0,0-13.11-4.45c-1.89.41-1.09,3.3.79,2.89a10.5,10.5,0,0,1,8.68,2.15c1.81,1.49,4.94,5.77,2,7.68a15.251,15.251,0,0,1-5.17,1.85,12.63,12.63,0,0,1-5.3.06,7.43,7.43,0,0,1-5.89-5.68,5.26,5.26,0,0,1,.55-3.9,4.52,4.52,0,0,1,4.41-2,1.55,1.55,0,0,0,1.84-1,1.5,1.5,0,0,0-1.05-1.84Z" fill="#fff"/>
      <path id="Path_185" data-name="Path 185" d="M490.58,286.68a7.52,7.52,0,0,0-8.89,7.11,10.17,10.17,0,0,0,5.7,9.34c4.55,2.13,9.87,1.23,14.29-.79a5.71,5.71,0,0,0,3.64-5.34,9.76,9.76,0,0,0-2.48-6.06,13.53,13.53,0,0,0-13.11-4.45c-1.89.41-1.09,3.3.8,2.9a10.42,10.42,0,0,1,8.67,2.15c1.81,1.48,4.94,5.77,2,7.67a15.261,15.261,0,0,1-5.17,1.86,12.79,12.79,0,0,1-5.3.05,7.42,7.42,0,0,1-5.89-5.67,5.27,5.27,0,0,1,.55-3.91,4.55,4.55,0,0,1,4.41-2,1.53,1.53,0,0,0,1.84-1,1.51,1.51,0,0,0-1.05-1.85Z" fill="#fff"/>
      <path id="Path_186" data-name="Path 186" d="M570.54,269.88a7.53,7.53,0,0,0-8.89,7.11,10.18,10.18,0,0,0,5.7,9.34c4.55,2.13,9.87,1.23,14.29-.79a5.72,5.72,0,0,0,3.64-5.35,9.76,9.76,0,0,0-2.48-6.05,13.53,13.53,0,0,0-13.11-4.45c-1.89.41-1.09,3.3.8,2.89a10.46,10.46,0,0,1,8.67,2.16c1.81,1.48,4.94,5.76,2,7.67a15.481,15.481,0,0,1-5.17,1.86,12.789,12.789,0,0,1-5.3.05,7.43,7.43,0,0,1-5.89-5.67,5.27,5.27,0,0,1,.55-3.91,4.55,4.55,0,0,1,4.41-2,1.53,1.53,0,0,0,1.84-1,1.5,1.5,0,0,0-1.05-1.85Z" fill="#fff"/>
      <path id="Path_187" data-name="Path 187" d="M717,216.46a8.68,8.68,0,0,0-6.38,10.29,9.52,9.52,0,0,0,9.19,7.12c5,0,9.57-3,13-6.29,1.84-1.79,3-3.92,2.4-6.54a8.72,8.72,0,0,0-4.17-5.29c-4.44-2.68-10.29-2.13-14.51.7-1.6,1.07-.1,3.67,1.51,2.59a11.22,11.22,0,0,1,9.55-1.57c2.9.9,6.49,4.18,3.86,7.21-3.77,4.34-13.4,9.94-17.34,2.81a5.59,5.59,0,0,1,3.69-8.13C719.67,218.89,718.88,215.99,717,216.46Z" fill="#fff"/>
      <path id="Path_188" data-name="Path 188" d="M793,180a8.67,8.67,0,0,0-6.38,10.28,9.53,9.53,0,0,0,9.19,7.13c5,0,9.57-3,13-6.29,1.84-1.79,3-3.93,2.4-6.55a8.78,8.78,0,0,0-4.17-5.29c-4.44-2.68-10.29-2.12-14.51.7-1.6,1.07-.1,3.67,1.51,2.59a11.22,11.22,0,0,1,9.55-1.57c2.9.9,6.49,4.18,3.86,7.22-3.77,4.33-13.41,9.93-17.34,2.8a5.59,5.59,0,0,1,3.69-8.13C795.67,182.42,794.87,179.53,793,180Z" fill="#fff"/>
      <path id="Path_189" data-name="Path 189" d="M870.67,137a8.68,8.68,0,0,0-6.38,10.29,9.53,9.53,0,0,0,9.19,7.12c5,0,9.57-2.95,13-6.29,1.84-1.79,3-3.93,2.41-6.55a8.78,8.78,0,0,0-4.18-5.28c-4.44-2.69-10.29-2.13-14.51.7-1.6,1.06-.1,3.66,1.51,2.59a11.22,11.22,0,0,1,9.56-1.58c2.89.91,6.49,4.18,3.85,7.22-3.77,4.34-13.4,9.93-17.34,2.8a5.6,5.6,0,0,1,3.69-8.13c1.87-.47,1.08-3.36-.8-2.89Z" fill="#fff"/>
      <path id="Path_190" data-name="Path 190" d="M945.19,94.22a7.51,7.51,0,0,0-4.62,10.34A10.17,10.17,0,0,0,951,110.25c4.56-.54,8.56-3.55,11.32-7.09a5.7,5.7,0,0,0,.8-6.4,9.641,9.641,0,0,0-4.92-4.26,13.58,13.58,0,0,0-13.76,2,1.52,1.52,0,0,0,0,2.12,1.55,1.55,0,0,0,2.13,0,10.4,10.4,0,0,1,8.76-1.89c2.31.54,6.89,3,5.09,6a15.181,15.181,0,0,1-3.5,3.74,13.479,13.479,0,0,1-4.18,2.39,7.59,7.59,0,0,1-8.39-1.94c-2.28-2.54-1.83-6.6,1.69-7.74,1.83-.6,1-3.5-.8-2.9Z" fill="#fff"/>
      <path id="Path_191" data-name="Path 191" d="M1020.73,44.39a7.51,7.51,0,0,0-4.63,10.34,10.18,10.18,0,0,0,10.38,5.68c4.56-.54,8.56-3.54,11.33-7.08a5.75,5.75,0,0,0,.8-6.41,9.661,9.661,0,0,0-4.93-4.26,13.58,13.58,0,0,0-13.75,2,1.51,1.51,0,0,0,0,2.12,1.53,1.53,0,0,0,2.12,0,10.48,10.48,0,0,1,8.76-1.89c2.32.54,6.89,3,5.1,6a15.55,15.55,0,0,1-3.5,3.74,13.641,13.641,0,0,1-4.19,2.39,7.58,7.58,0,0,1-8.38-1.95c-2.28-2.54-1.84-6.59,1.68-7.74,1.83-.59,1.05-3.49-.79-2.89Z" fill="#fff"/>
      <path id="Path_192" data-name="Path 192" d="M99.28,273.51a7.52,7.52,0,0,0-11.39,1.3,10.17,10.17,0,0,0-.12,11c2.48,3.87,7,6,11.36,6.82,2.38.44,4.75.3,6.38-1.7a9,9,0,0,0,1.8-6.27,13.59,13.59,0,0,0-8.64-11.71,1.5,1.5,0,0,0-1.84,1,1.54,1.54,0,0,0,1,1.85,10.5,10.5,0,0,1,6.18,7.27,7.92,7.92,0,0,1-.14,4.65,2.89,2.89,0,0,1-3.41,2.08c-5.74-.78-13.39-5.2-10.81-12.05a5.28,5.28,0,0,1,2.64-3,4.57,4.57,0,0,1,4.82.87c1.43,1.3,3.55-.82,2.12-2.12Z" fill="#fff"/>
      <path id="Path_193" data-name="Path 193" d="M174.28,298.51a7.52,7.52,0,0,0-11.39,1.3,10.17,10.17,0,0,0-.12,11c2.48,3.87,7,6,11.36,6.82,2.38.44,4.75.3,6.38-1.7a9,9,0,0,0,1.8-6.27,13.59,13.59,0,0,0-8.64-11.71,1.5,1.5,0,0,0-1.84,1,1.54,1.54,0,0,0,1,1.85,10.5,10.5,0,0,1,6.18,7.27,7.92,7.92,0,0,1-.14,4.65,2.89,2.89,0,0,1-3.41,2.08c-5.74-.78-13.39-5.2-10.81-12.05a5.28,5.28,0,0,1,2.64-3,4.57,4.57,0,0,1,4.82.87c1.43,1.3,3.55-.82,2.12-2.12Z" fill="#fff"/>
    </g>
  </g>
</svg>
