<svg xmlns="http://www.w3.org/2000/svg" viewBox="0 0 1000 1000"><defs><style>.cls-1{fill:#fff;}</style></defs><g id="Layer_2" data-name="Layer 2"><path class="cls-1" d="M979.32,599.47c2.13.38,4.56.66,6.56-.41a5.13,5.13,0,0,0,2.32-6c-.65-2.72-3-4.71-3.23-7.57a8.11,8.11,0,0,1,2.62-6.83,17.76,17.76,0,0,1,7-3.5c2.3-.68,5.23-1.19,7.15.62,1.61,1.51,1.89,4,2,6.1a25.66,25.66,0,0,1-.54,8.29c-.43,1.48-1.35,2.71-1.88,4.14a6.62,6.62,0,0,0-.12,4.15c.88,3,3.39,5,5.83,6.72,1.56,1.14,3.06-1.47,1.51-2.59-2-1.46-4.84-3.47-4.63-6.32.1-1.28,1-2.39,1.52-3.53a14.5,14.5,0,0,0,1.15-4.29,35.87,35.87,0,0,0,.07-7.82,11.69,11.69,0,0,0-2.22-6.36c-3.61-4.41-10-2.55-14.39-.6-4.79,2.12-8.51,6.29-8,11.82a11.11,11.11,0,0,0,1.17,4.14c.7,1.4,1.83,2.68,2.17,4.23.73,3.31-3,3.07-5.2,2.69-1.88-.34-2.69,2.55-.79,2.89Z"/><path class="cls-1" d="M976.61,597.12q-6.08.18-12.14,0c-2.69-.09-7.41.47-7.84-3.16-.18-1.55,0-3.13-.15-4.69a28.45,28.45,0,0,0-4.86-13.6,28.25,28.25,0,0,0-15.93-11.24c-6.18-1.66-13.94-1.56-19.31,2.33s-6.75,10.53-6.92,16.69a51.23,51.23,0,0,0,3.09,19.82,36.44,36.44,0,0,0,5,8.88c.79,1.05,1.72,2.24.41,3.26s-3,1.21-4.42,1.56l-23.67,5.71c-3.25.78-6.61,1.57-9.49,3.35a15.24,15.24,0,0,0-6,7.34,41.2,41.2,0,0,0-2.26,9.29q-.93,6-1.58,12.1a242.5,242.5,0,0,0-1.38,24.54c0,5.93.25,12.13,2.43,17.7a19.89,19.89,0,0,0,12.85,12.14,44.08,44.08,0,0,0,9.54,1.62c3.9.33,7.81.57,11.72.85,2,.14,3.92.3,5.88.41,1.69.1,3.3-.15,4.37-1.58a11.73,11.73,0,0,0,1.37-3.54,2.86,2.86,0,0,1,2.53-2c1.33-.27,2.71-.27,4.06-.53a9.29,9.29,0,0,0,4-1.82,18.83,18.83,0,0,0,5.18-7.13c2.66-5.58,5.7-13.47-.19-18.14-5.73-4.54-13.06-1.61-17.75,2.9a23.5,23.5,0,0,1-3.72,3.25,9.38,9.38,0,0,1-5.12,1.32,22.81,22.81,0,0,1-9-2c-2.08-.94-4.95-2.67-4.8-5.33.09-1.57,1.2-2.87,2.1-4.07a21.28,21.28,0,0,0,2.67-4.56,19.55,19.55,0,0,0,1.4-9.65c-.21-1.9-3.22-1.92-3,0a17,17,0,0,1-1.66,9.61c-1.44,2.81-4.21,5-4.49,8.36-.48,5.81,6.34,8.74,11,9.81,3.2.75,6.68,1.25,9.88.26s5.36-3.55,7.82-5.75,5.36-3.66,8.56-3.46a6.85,6.85,0,0,1,6.46,5.14c.7,3.31-.91,6.86-2.25,9.8-1.14,2.52-2.43,5.24-4.59,7s-5,1.45-7.63,2.1a6,6,0,0,0-3.06,1.72,9.77,9.77,0,0,0-1.69,3.91c-.48,1.55-1.38,1.43-2.89,1.33l-6.37-.45c-3.58-.26-7.16-.48-10.74-.78-6.16-.52-12.71-1.73-16.8-6.82-3.57-4.45-4.58-10.51-4.9-16.05a168.8,168.8,0,0,1,.51-21.8,205.48,205.48,0,0,1,2.71-22.53,23.1,23.1,0,0,1,3-8.73c1.81-2.72,4.68-4.17,7.72-5.11,3.49-1.08,7.11-1.81,10.66-2.66l11.59-2.8,5.32-1.28a22.55,22.55,0,0,0,4.63-1.42c2.59-1.24,4-3.87,2.57-6.57-.76-1.43-1.95-2.65-2.81-4a32.26,32.26,0,0,1-2.32-4.34,41.18,41.18,0,0,1-2.75-9.54c-1-6-1.41-12.93.61-18.78a12.2,12.2,0,0,1,5.52-6.85,18.78,18.78,0,0,1,9.44-2,25.14,25.14,0,0,1,24.82,24c.14,3-.3,6.31,2.56,8.21,2.61,1.73,6.35,1.41,9.32,1.49,3.72.09,7.45.08,11.17,0,1.92-.06,1.93-3.06,0-3Z"/><path class="cls-1" d="M892.9,711.84c-3.7,11.51-3.78,23.71-3.82,35.67q-.06,19.2,0,38.4.08,38.4.54,76.79.25,21.69.64,43.38c0,1.93,3,1.93,3,0q-.68-38.26-1-76.54t-.2-76.54c0-13.49-.45-27.36,3.73-40.36.6-1.84-2.3-2.63-2.89-.8Z"/><path class="cls-1" d="M934.84,808.78c1.11,26.2-6.71,51.55-10.19,77.29A167,167,0,0,0,923,907.73a1.5,1.5,0,0,0,3,0c.13-26.16,8.16-51.38,11-77.24a144.46,144.46,0,0,0,.85-21.71c-.09-1.92-3.09-1.93-3,0Z"/><path class="cls-1" d="M883.31,611.16a67.72,67.72,0,0,0,2.55-24.72c-.12-1.49-.32-3.2,1-4.24a12.62,12.62,0,0,1,3-1.51c2.35-1,4.43-2.11,4.79-4.86a1.43,1.43,0,0,0-.74-1.29,11.08,11.08,0,0,1-6.47-7.77c-.43-2-.35-4-.93-6a8.65,8.65,0,0,0-2.75-4.26c-2.58-2.16-6-2.85-9.32-3.11a76.27,76.27,0,0,0-13.68.27c-3.58.37-7.68,1-9.52,4.54-1.68,3.26-.88,7.14-.06,10.52q1.68,6.94,3.48,13.85c1.13,4.32,2.1,8.77,3.56,13a17.08,17.08,0,0,0,3.31,5.93,19.51,19.51,0,0,0,5,3.79c4.55,2.54,9.34,4.71,14,7,1.72.86,3.24-1.73,1.51-2.59-3.9-1.93-7.81-3.86-11.7-5.81-3.2-1.6-6.39-3.35-8.17-6.59-1.93-3.54-2.64-7.86-3.67-11.73q-1.66-6.3-3.24-12.64c-.87-3.5-2.27-7.3-2-11a4.85,4.85,0,0,1,2.05-3.94,10.81,10.81,0,0,1,4.71-1.3,82.4,82.4,0,0,1,13.14-.42c2.85.13,6.14.48,8.46,2.3,3.19,2.49,2.11,7.11,3.36,10.53a14,14,0,0,0,7.39,8l-.74-1.3c-.11.81-1.1,1.27-1.73,1.59-1,.52-2.18.88-3.23,1.39-3,1.45-4.1,3.93-3.86,7.21a67.37,67.37,0,0,1-2.42,24.34c-.55,1.85,2.35,2.64,2.9.8Z"/><path class="cls-1" d="M852.92,553.59c-2.07-5.24-6.75-8.69-12-10.35a40.78,40.78,0,0,0-9.64-1.57,71.27,71.27,0,0,0-9.91-.21,18.43,18.43,0,0,0-8.64,2.64,25.51,25.51,0,0,0-6.33,5.93,55.61,55.61,0,0,0-8.36,15.5A95.19,95.19,0,0,0,793.71,583c-.47,2.91-.86,5.84-1.2,8.78a57,57,0,0,0-.77,8.54c.08,2.1.68,4.48,2.68,5.54,2.79,1.49,6.36-.8,8.93-1.85,1.47-.6,2.93-1.23,4.41-1.79s3.23-1.07,4.86-.24c1.23.63,2.3,1.5,3.57,2.06a16.38,16.38,0,0,0,4.44,1.23c3.72.53,7.52.62,11.26.88l11.92.81c4,.27,7.91.55,11.87.81,3.72.24,7.52.36,11.06-1,1.79-.68,1-3.58-.8-2.89a21.11,21.11,0,0,1-8.9,1c-3.25-.17-6.5-.43-9.75-.65l-19.62-1.34c-2.89-.2-5.93-.19-8.74-1-2.57-.74-4.51-2.91-7.2-3.3-3-.44-6,1.25-8.73,2.36l-4,1.64c-1,.39-2.59,1.32-3.5.38-1.28-1.33-.73-4.12-.56-5.73.28-2.8.58-5.59.94-8.38A122.74,122.74,0,0,1,799,572.27a63.68,63.68,0,0,1,6.05-15c2.61-4.52,6-9.3,10.86-11.56,3.06-1.42,6.5-1.44,9.8-1.33a78.07,78.07,0,0,1,10.14.73c5.64.92,11.89,3.53,14.15,9.24.7,1.78,3.6,1,2.89-.8Z"/><path class="cls-1" d="M793.26,601.93A12.19,12.19,0,0,0,783,605.05c-3,2.62-4.71,6.42-5.82,10.19-1.3,4.4-2.14,9-3.08,13.46q-1.47,7-2.76,14t-2.43,14.09c-.38,2.36-.8,4.73-1.08,7.11a11.12,11.12,0,0,0,.6,5.66,11.44,11.44,0,0,0,7.29,6.26,13,13,0,0,0,10-1.17c8.55-4.6,10.65-14.74,12.06-23.49.3-1.89-2.59-2.71-2.9-.8-1.14,7.09-2.39,14.91-8.09,19.91a11.37,11.37,0,0,1-8.36,3.06,9,9,0,0,1-6.91-4.23,7.74,7.74,0,0,1-.74-4.74c.2-2,.59-4,.91-6,.67-4.21,1.38-8.43,2.14-12.63q2.25-12.48,5-24.87c.89-4,1.83-8,4.19-11.4,2.05-2.93,5.72-5.29,9.41-4.61,1.89.35,2.7-2.54.8-2.89Z"/><path class="cls-1" d="M782.69,674.38a54.65,54.65,0,0,1-3.55,10.92,20.85,20.85,0,0,1-2.22,4.27c-1.18,1.49-3.13,1.13-4.81,1.08a19.91,19.91,0,0,0-9.9,2.77,38.65,38.65,0,0,0-8.75,5.68c-5.13,4.87-5.05,12.44-5.37,19q-.3,6.14-.34,12.28a66.24,66.24,0,0,0,.3,10.82,8.58,8.58,0,0,0,2.15,4.67c1.09,1.16,2.58,1.87,3,3.51s.25,3.47.89,5.13a5,5,0,0,0,3.29,3.26,1.51,1.51,0,0,0,.8-2.9c-1.29-.37-1.54-2.06-1.67-3.2a11.77,11.77,0,0,0-1-4.51,11.32,11.32,0,0,0-2.74-2.91,6,6,0,0,1-1.9-3.85,72.25,72.25,0,0,1-.19-10.51c0-3.77.14-7.54.32-11.3.3-6.36,0-13.78,5.43-18.18a44,44,0,0,1,8.62-5.11,16.84,16.84,0,0,1,4.84-1.57c1.65-.23,3.31.1,5-.05,4.07-.38,5.53-4,7-7.29a59.62,59.62,0,0,0,3.67-11.22c.41-1.88-2.49-2.68-2.9-.79Z"/><path class="cls-1" d="M777.8,692.81a30.19,30.19,0,0,1,18.68,12.62A29.57,29.57,0,0,1,800.39,729a28.22,28.22,0,0,1-2.24,6c-.86,1.69-2.66,3.64-2.21,5.67s2.63,2.49,4.45,2.68c2.24.22,4.47.48,6.69.83,8.63,1.35,17.64,3.83,24.55,9.43s12,14.52,10.56,23.66c-.31,1.89,2.58,2.7,2.89.79,1.37-8.37-1.86-16.58-7.41-22.82-6.06-6.82-14.67-10.66-23.42-12.72a108,108,0,0,0-13.86-2.17c-.3,0-1.07,0-1.32-.23s-.06-.55.17-1c.52-.94,1.11-1.84,1.59-2.8a32.44,32.44,0,0,0-22.23-46.49c-1.89-.4-2.69,2.49-.8,2.89Z"/><path class="cls-1" d="M754.58,756.43a9.75,9.75,0,0,1-4,2.84,33.56,33.56,0,0,0-4.85,2.48,9.41,9.41,0,0,0-3.66,4.78,17.91,17.91,0,0,0-.63,6.72c.08,1.92,3.09,1.93,3,0a15.19,15.19,0,0,1,.56-6,6.83,6.83,0,0,1,3.32-3.54c3.13-1.76,6.67-2.64,8.85-5.73a1.5,1.5,0,0,0-2.59-1.51Z"/><path class="cls-1" d="M843.34,778.21c-3.5,20.36,6.19,39.53,9.35,59.25a61.59,61.59,0,0,1,.53,16.77c-.22,1.91,2.78,1.89,3,0,2.33-20.19-7.51-38.93-10.09-58.56a55.38,55.38,0,0,1,.11-16.66c.32-1.89-2.57-2.7-2.9-.8Z"/><path class="cls-1" d="M934.33,677.06c15.42-21.38,32.5-44.6,59-52.35a53.15,53.15,0,0,1,21.86-1.82,1.5,1.5,0,0,0,0-3c-13.53-1.79-27.18,2.17-38.83,9-12,7-21.83,17-30.49,27.77-4.94,6.14-9.56,12.52-14.17,18.91-1.13,1.57,1.47,3.07,2.59,1.52Z"/><path class="cls-1" d="M954.29,596c.74,3.67-1.28,7.44,0,11.08,1.36,3.87,5.43,5.14,8.93,6.42a151.64,151.64,0,0,0,26.57,7.11q7.74,1.33,15.58,1.89c1.93.14,1.92-2.86,0-3a150.91,150.91,0,0,1-25.61-4.06q-6.29-1.56-12.42-3.65c-2-.68-3.94-1.38-5.87-2.14-1.53-.61-3.26-1.38-4.07-2.9s-.52-3.66-.3-5.4a18.41,18.41,0,0,0,.09-6.15c-.37-1.89-3.27-1.09-2.89.8Z"/><path class="cls-1" d="M920.17,614.68a67,67,0,0,0,12,5.34c3.93,1.3,8.09,2.27,12.23,1.53a17.13,17.13,0,0,0,13.42-13.46c.34-1.88-2.55-2.69-2.89-.79a14.18,14.18,0,0,1-11.68,11.41c-3.77.53-7.62-.65-11.14-1.88a62.27,62.27,0,0,1-10.38-4.74,1.5,1.5,0,0,0-1.51,2.59Z"/><path class="cls-1" d="M913.23,711.56c.83,5.53,2.07,11,2.37,16.64s-.45,11.47-.93,17.19c-.75,9.08-.59,19.24,5.14,26.87a23.6,23.6,0,0,0,11.29,7.85,75.22,75.22,0,0,0,15.76,3.54,125.82,125.82,0,0,0,32.84-.5c12.46-1.65,24.7-4.51,36.9-7.44,1.87-.45,1.08-3.34-.8-2.89-20.84,5-42.24,10.06-63.82,8.37a88.63,88.63,0,0,1-15.78-2.66c-4.54-1.2-9.15-2.83-12.49-6.28-6.3-6.5-6.77-16.42-6.19-24.92.43-6.13,1.35-12.25,1.11-18.41s-1.6-12.12-2.5-18.16c-.29-1.9-3.18-1.1-2.9.8Z"/><path class="cls-1" d="M920,732.8a20.51,20.51,0,0,1,16.86-6.35c6.77.67,13.1,4.09,20,3,3.47-.55,6.64-2.21,10-3a32.38,32.38,0,0,1,9.16-.66c6.47.36,12.77,2.13,19.06,3.57,7.1,1.63,14.31,2.9,21.59,1.87,1.9-.27,1.09-3.16-.8-2.89-13.26,1.87-26-4.53-39.05-5.5a37,37,0,0,0-9.57.47c-3.28.62-6.29,2.06-9.51,2.89-6.93,1.79-13.72-1.91-20.54-2.68a23.36,23.36,0,0,0-19.41,7.18c-1.33,1.4.79,3.53,2.12,2.12Z"/><path class="cls-1" d="M992.46,1008c-3.89-10.21-5.23-21.12-6.93-31.85-1.66-10.49-3.69-21.22-9-30.54-6-10.51-16.44-17.17-25.79-24.44-4.87-3.79-9.89-7.4-15.63-9.76-6-2.47-12.53-3.5-19-4.29-13.68-1.69-27.57-3.36-41.35-2.08-13.48,1.25-26.64,4.81-40.16,5.7-6.33.41-12.77-.34-19,.73a22.33,22.33,0,0,0-13.58,8,52,52,0,0,0-7.38,13.22c-2.22,5.35-4.18,10.79-6.7,16a64.65,64.65,0,0,1-9.59,15c-4.08,4.61-9.21,8-13.71,12.16a45.53,45.53,0,0,0-9.74,13.65c-2.43,5-4.44,10.1-7.2,14.88A37.42,37.42,0,0,1,743,1011c-1.3,1.43.82,3.55,2.12,2.12,7.41-8.17,9.92-19.18,15.83-28.29,3.27-5,7.87-8.63,12.46-12.38a58.1,58.1,0,0,0,11.73-12.67,93,93,0,0,0,8.13-15.66c2.08-5,3.82-10.07,6.19-14.9,2.14-4.36,4.83-8.76,8.87-11.61,4.89-3.45,10.78-3.71,16.56-3.67a133.83,133.83,0,0,0,19.6-1.23c6.63-.93,13.2-2.22,19.8-3.27a130.45,130.45,0,0,1,20.21-1.83,189.28,189.28,0,0,1,20.19,1.24c6.54.69,13.15,1.28,19.61,2.57a49,49,0,0,1,17.36,6.88c5.14,3.33,9.82,7.34,14.69,11s9.71,7.33,13.59,12c6.67,8.05,9.59,18.34,11.5,28.43,2,10.53,3,21.26,5.76,31.63a77.09,77.09,0,0,0,2.4,7.41c.68,1.79,3.58,1,2.89-.8Z"/><path class="cls-1" d="M853.36,854a339.77,339.77,0,0,1-9.11,56.07c-.47,1.87,2.42,2.67,2.89.8A344.14,344.14,0,0,0,856.36,854c.15-1.93-2.85-1.92-3,0Z"/><path class="cls-1" d="M807.26,916.87c4.16-9.43,5.41-19.7,5.31-29.93-.05-5.15-.42-10.29-.89-15.41-.39-4.28-.87-8.67-2.45-12.7a17.94,17.94,0,0,0-7.62-9.15,29.48,29.48,0,0,1-4.89-3.14,5.53,5.53,0,0,1-1.4-1.85,18.24,18.24,0,0,1-.6-3.68c-.45-2.26-2.57-3.8-2.38-6.21s1.77-4.7,2.94-6.8a64,64,0,0,0,5.56-14.47c1.39-5.12,2.93-10.42,3.34-15.73a19,19,0,0,0-4.07-13.51c-5.58-7.12-14.67-11.67-23.35-13.67a46.22,46.22,0,0,0-26.87,1.6c-4.14,1.61-8.28,4.1-10.58,8a6.45,6.45,0,0,0-1,3.06,11.3,11.3,0,0,0,.9,3.65,9.35,9.35,0,0,1,.11,4.87c-1.65,7.15-8.13,13.06-7.1,20.83.33,2.49,1.77,4.67,2.08,7.15S734,825,734,827.57A21.58,21.58,0,0,0,738,840.16a22.69,22.69,0,0,0,4.55,4.63c1.53,1.17,3-1.43,1.52-2.59a18.68,18.68,0,0,1-6.68-10.47,19.55,19.55,0,0,1-.34-6.56c.24-2.53.55-5-.17-7.52-.6-2.09-1.72-4-1.78-6.24a13.33,13.33,0,0,1,.92-4.87c1.21-3.33,3.18-6.33,4.63-9.55s2.43-6.58,1.64-10.06c-.23-1-.74-1.95-.93-3a4.21,4.21,0,0,1,1.16-3.18,15.65,15.65,0,0,1,4.79-4.07c7.33-4.24,16.87-5.13,25.11-3.88,8.53,1.29,17.09,5,23.29,11.06,3.34,3.29,5.49,7.29,5.5,12.06,0,5-1.58,10.16-2.84,15a67.84,67.84,0,0,1-4.88,13.92c-1.94,3.84-5.5,8.27-3.75,12.83a20.29,20.29,0,0,0,1.55,2.72,9.61,9.61,0,0,1,.74,3.56,7.79,7.79,0,0,0,2.53,4.66c2.78,2.56,6.58,3.62,9.1,6.5s3.67,7,4.31,10.84a125.48,125.48,0,0,1,1.29,13.55c.58,9.73.45,19.67-2.23,29.12a51.12,51.12,0,0,1-2.4,6.68c-.77,1.75,1.81,3.28,2.59,1.52Z"/><path class="cls-1" d="M741.73,843.82a32.33,32.33,0,0,0-27.39,13.81c-1.86,2.65-3.45,5.73-6.06,7.75-1.14.88-3.1,2.17-4.24.77-1.42-1.76-2.62-3.75-3.91-5.6l-7.79-11.17a72.32,72.32,0,0,1-6.56-10.47c-1.82-3.88-2.3-8-2.45-12.29-.08-2.4-.09-4.8-.25-7.19a24.08,24.08,0,0,0-1.07-6.65,4.82,4.82,0,0,0-3.85-3.48,3.53,3.53,0,0,0-3.84,2.35l2.21-.89c-4-2.48-4.52-9.34-10.25-9.16-6.17.2-7.17,8.3-7.52,12.92q-.45,6.13-.36,12.31c.05,3.87.17,7.75,1.73,11.36,1.38,3.2,3.42,6.07,4.85,9.26a68.94,68.94,0,0,1,3.41,10.1c2.07,7.67,3.62,15.53,7.28,22.66.88,1.71,3.47.2,2.59-1.52-6-11.65-6.22-25.32-12.75-36.77-1.71-3-3.4-5.87-3.84-9.36a76.87,76.87,0,0,1-.25-11.15,69.74,69.74,0,0,1,.71-10.52c.37-2,1.07-4.74,3-5.9,2.15-1.33,3.94.81,5,2.44,1.42,2.18,2.66,4.5,4.92,5.92a1.53,1.53,0,0,0,2.21-.9c.09-.27.69-.2.9-.11.74.29,1,1.28,1.23,2a28.39,28.39,0,0,1,.77,5.81c.23,4.07.1,8.15.66,12.19,1.15,8.26,6.32,14.79,11,21.43l7.5,10.76c1.06,1.51,2.09,3.62,3.66,4.67s3.25.67,4.8,0c3-1.29,5.08-3.9,6.88-6.54a46.1,46.1,0,0,1,6.1-7.81,29.54,29.54,0,0,1,21.05-8c1.93.06,1.92-2.94,0-3Z"/><path class="cls-1" d="M675.29,877.66c-.26,3.93-.48,8,.58,11.82s3.56,6.77,6.38,9.5c5.4,5.24,11.55,10.17,18.85,12.4,8.33,2.55,17.09.2,25.48-.86,9-1.15,18.07-2,27.13-2.59,10.22-.72,20.44-1.21,30.67-1.7,1.92-.09,1.93-3.1,0-3-17.34.83-34.69,1.67-52,3.59q-6.42.72-12.82,1.64c-4.25.62-8.54,1.38-12.86,1-7.33-.64-13.81-4.93-19.19-9.66-3.07-2.69-6.7-5.68-8.27-9.55s-1.28-8.43-1-12.6c.13-1.93-2.87-1.92-3,0Z"/><path class="cls-1" d="M679.65,895.56a77.29,77.29,0,0,1-10.22,8.72,102.56,102.56,0,0,0-10,8.6c-6.22,6.14-11.91,12.94-19.18,17.89-1.59,1.08-.09,3.69,1.51,2.59,7.39-5,13.19-11.81,19.49-18.06a99,99,0,0,1,10.06-8.69,78.35,78.35,0,0,0,10.48-8.93c1.31-1.42-.81-3.55-2.12-2.12Z"/><path class="cls-1" d="M744.26,1005c.12-4.61.16-9.38-1.67-13.71A24.88,24.88,0,0,0,735,982c-3.67-3-7.6-5.64-11.42-8.4-4.13-3-8.24-6-12.37-8.94-7.44-5.35-15-10.19-23.64-13.46-7.67-2.92-15.64-4.89-23.46-7.35-8.6-2.71-17.17-6.11-24.09-12.07-1.46-1.25-3.59.86-2.12,2.13,12.27,10.56,28.57,13.39,43.51,18.29a93.59,93.59,0,0,1,11.11,4.33,91,91,0,0,1,12.22,7.23c8.18,5.6,16.14,11.56,24.17,17.38,3.57,2.58,7.33,5.29,9.72,9.07,2.82,4.44,2.74,9.71,2.61,14.78,0,1.93,3,1.93,3,0Z"/><path class="cls-1" d="M641.06,933.14c-9.71-4.08-19.58-7.68-30.25-7.76a39.84,39.84,0,0,0-14.43,2.43c-4.93,1.89-9,5-13,8.31a64.5,64.5,0,0,1-13.91,8.54c-5.13,2.35-10.36,4.5-15.56,6.68a298.35,298.35,0,0,1-32.1,11.74,151.06,151.06,0,0,1-18.66,4.2c-6.09,1-12.24,1.45-17.91,4-1.75.8-.23,3.38,1.51,2.59,5-2.26,10.49-2.75,15.83-3.53A146.49,146.49,0,0,0,519,967a261.27,261.27,0,0,0,31.79-11.11c5.1-2.1,10.17-4.27,15.24-6.44a84.65,84.65,0,0,0,14.39-7.32c4.33-2.93,8-6.73,12.57-9.37a32.7,32.7,0,0,1,13.76-4.19c11.79-1,22.82,3,33.51,7.49a1.52,1.52,0,0,0,1.85-1,1.54,1.54,0,0,0-1.05-1.84Z"/><path class="cls-1" d="M484.25,971.35a461.31,461.31,0,0,0-42.12,27.1q-5.82,4.21-11.5,8.6a1.56,1.56,0,0,0-.54,2.05,1.53,1.53,0,0,0,2.06.54,459.91,459.91,0,0,1,41.25-28.41q6.14-3.74,12.37-7.29a1.5,1.5,0,0,0-1.52-2.59Z"/><path class="cls-1" d="M483.6,965c11.57.42,23.52.81,34.68-2.78,4.42-1.42,9.79-3.55,11.84-8.1,1.09-2.44.67-4.8-.35-7.19a18.1,18.1,0,0,1-1.67-7.27c-.05-9.91,5.72-19.85.52-29.38a28.33,28.33,0,0,0-11.18-10.75c-4.55-2.47-9.86-3.07-14.24.08-4.05,2.9-6.34,7.71-10.52,10.42-5.09,3.31-11.64,2.65-17.38,2.09-1.92-.19-1.91,2.82,0,3,4.94.48,10.15.91,14.95-.66,4.36-1.41,7.26-4.47,10.14-7.86s5.87-6.68,10.58-6.17c4.91.52,9.51,4.34,12.64,7.92a17.13,17.13,0,0,1,4.18,13c-.34,4.7-1.74,9.26-2.37,13.93a26.73,26.73,0,0,0-.15,6.92c.32,2.49,1.35,4.53,2.16,6.87,1.66,4.76-3.46,7.77-7.21,9.23-11.63,4.55-24.37,4.1-36.62,3.65-1.93-.07-1.93,2.93,0,3Z"/><path class="cls-1" d="M511.48,900.29a55.74,55.74,0,0,1,8.14-3.89,29,29,0,0,1,8.2-2.22c3-.17,5.07,1.28,6.93,3.52a59.89,59.89,0,0,1,4.9,6.94,76.19,76.19,0,0,1,7.28,15.77c1.89,5.56,3.6,11.24,6.69,16.29A41.6,41.6,0,0,0,566,949.49c1.6,1.08,3.11-1.52,1.51-2.59A38,38,0,0,1,556,934.83c-3.18-5.33-4.78-11.36-6.84-17.17a75.92,75.92,0,0,0-7.73-15.84c-2.91-4.48-6.39-10.26-12.29-10.64-3.35-.21-6.79,1-9.89,2.17A60.3,60.3,0,0,0,510,897.7a1.5,1.5,0,0,0,1.52,2.59Z"/><path class="cls-1" d="M527.27,941.17c3.64,1.57,6.33,4.5,9.07,7.28s5.79,5.6,9.65,6.93c1.83.63,2.62-2.26.8-2.89-3.58-1.23-6.28-4.07-8.87-6.71s-5.52-5.64-9.14-7.2a1.55,1.55,0,0,0-2,.54,1.51,1.51,0,0,0,.54,2Z"/><path class="cls-1" d="M481.85,961.6c-15.5-.46-31,2.09-46.46.92a65.62,65.62,0,0,1-20.87-4.71,57,57,0,0,1-17-11.61c-2.48-2.39-4.68-4.92-5.74-8.26a75,75,0,0,1-2.15-10.82q-1.86-11.6-2.8-23.33c-1.23-15.38-1.61-31.11,0-46.47,1.55-14.86,7-30.09,19.7-38.94,1.58-1.09.08-3.7-1.51-2.59-11.36,7.9-17.75,20.75-20.15,34.11a151,151,0,0,0-1.92,23.66q-.25,12.2.49,24.39t2.45,24.18c.57,4.08,1.22,8.15,2,12.2.65,3.52,1.6,6.92,3.78,9.83a45.38,45.38,0,0,0,7.45,7.47,61.81,61.81,0,0,0,8.73,6.15,59.39,59.39,0,0,0,20.77,7c15.69,2.38,31.45,0,47.19-.19q3.06,0,6.12.05c1.93.06,1.93-2.94,0-3Z"/><path class="cls-1" d="M475.63,912.61c-14.18-5.82-25-17.36-34-29.44-2.6-3.49-5.07-7.07-7.5-10.69-1.07-1.59-3.67-.09-2.59,1.52,8.77,13.06,18.4,26.14,31.52,35.16a62.61,62.61,0,0,0,11.76,6.34c1.79.74,2.56-2.17.8-2.89Z"/><path class="cls-1" d="M406.69,817.79c6.69,2.51,13.95,2.5,21,2.66,6.85.16,14.15.4,20.17,4.07,6.65,4.05,10.25,11.76,13,18.75,2.79,7.16,4.59,14.65,7.3,21.84s6.49,14.18,12.93,18.76c1.58,1.12,3.08-1.48,1.52-2.59-5.64-4-9-10.28-11.43-16.61-2.75-7.22-4.55-14.76-7.35-22s-6.34-14.82-12.7-19.58c-5.67-4.25-12.86-5.24-19.74-5.54-8-.35-16.25.19-23.88-2.67-1.81-.68-2.59,2.22-.8,2.89Z"/><path class="cls-1" d="M478,875.48a97.54,97.54,0,0,1,5.78-12,50.36,50.36,0,0,1,8-9.51,26.36,26.36,0,0,0,3.76-4.47,15.08,15.08,0,0,0,1.18-2.34,29.09,29.09,0,0,1,1-2.86c.82-1.59,2.62-1.15,4.07-.86a13.32,13.32,0,0,0,5.58.35l-1.9-1.45c-.18,3.63,1.85,6.65,3.75,9.56A22.07,22.07,0,0,1,513,862.5c.65,8.35-2.62,16.34-5.35,24L502.5,901c-.65,1.82,2.25,2.61,2.89.8L509.91,889c1.46-4.11,3-8.2,4.21-12.38,2.2-7.62,3.07-16.15-.71-23.44-1.79-3.44-5.21-6.64-5-10.78a1.52,1.52,0,0,0-1.9-1.44c-2.77.6-5.52-1.27-8.33-.58-3.47.84-3.43,4.44-4.87,7-1.58,2.82-4.16,4.92-6.4,7.19a40.46,40.46,0,0,0-6.25,8.35,106.12,106.12,0,0,0-5.24,11c-.75,1.75,1.83,3.28,2.59,1.51Z"/><path class="cls-1" d="M408.7,817.17c.72-3.82.14-7.57-.6-11.33a68.88,68.88,0,0,1-1.41-10.21,54.25,54.25,0,0,1,2.63-19.51c4-12.14,12.88-22.3,24.94-26.91a39.15,39.15,0,0,1,18-2.49,31.22,31.22,0,0,1,9.16,2.35,10.54,10.54,0,0,1,4.18,3,27.86,27.86,0,0,1,2.72,4.86q5.31,10.64,9.56,21.74c.67,1.76,1.41,3.52,1.91,5.34.46,1.66.59,3.31-.68,4.63a21.72,21.72,0,0,0-3.15,3.28,13.6,13.6,0,0,0-1.59,4.27c-.68,3-1.22,5.84-4,7.59s-5.79,2-8.85,1.87c-3.43-.09-6.86,0-9.49,2.52a13.06,13.06,0,0,0-3.6,8.85,39.21,39.21,0,0,0,.22,5.83c.17,1.91,3.17,1.93,3,0-.32-3.66-.74-7.73,1.26-11,2.14-3.51,5.85-3.22,9.48-3.16a17.65,17.65,0,0,0,9.05-2,11.08,11.08,0,0,0,5.25-7.28,41.48,41.48,0,0,1,1.19-4.67c.63-1.63,1.85-2.51,3.07-3.68,2.81-2.69,2.33-6.22,1.12-9.59a243.25,243.25,0,0,0-9.52-22.6c-.92-1.9-1.84-3.8-2.82-5.67a14.3,14.3,0,0,0-3.21-4.41c-2.56-2.21-6-3.37-9.2-4.16a40,40,0,0,0-19.15.23,44.82,44.82,0,0,0-29.33,24.38,55.35,55.35,0,0,0-5.1,19.57,56.34,56.34,0,0,0,.18,10.39c.41,3.78,1.4,7.46,1.89,11.22a18.87,18.87,0,0,1-.06,6c-.35,1.89,2.54,2.69,2.9.8Z"/><path class="cls-1" d="M462.48,750.46c-3.48,4.26-7,8.57-9.52,13.5a37.34,37.34,0,0,0-2.77,7.36c-.64,2.43-1.22,5-2.95,6.92s-3.95,3.24-5.53,5.31a15.94,15.94,0,0,0-2.91,6.27,15.5,15.5,0,0,0,0,6.71,16.82,16.82,0,0,0,3.19,6.13c4.08,5.7-1.45,12.23-2.32,18.09-.29,1.89,2.6,2.7,2.89.8.81-5.45,4.58-10.22,3.83-15.92a9.39,9.39,0,0,0-1.15-3.49c-.65-1.14-1.58-2.11-2.27-3.24a10.84,10.84,0,0,1-1.52-6.24,13.14,13.14,0,0,1,1.86-6.12c1.28-2.15,3.21-3.52,5-5.17,4-3.62,4.22-8.84,6.14-13.57,2.32-5.68,6.29-10.52,10.13-15.22,1.21-1.48-.9-3.61-2.12-2.12Z"/><path class="cls-1" d="M440.37,796.68c6.05,7,15.45,9,24.14,10.57,1.89.35,2.7-2.54.8-2.89-8.19-1.49-17.11-3.17-22.81-9.8-1.27-1.47-3.38.66-2.13,2.12Z"/><path class="cls-1" d="M500.42,840.23a78.9,78.9,0,0,1,1.37-18c.53-2.92,1.17-5.83,1.86-8.72.61-2.58,1-5.64,2.58-7.84a4.65,4.65,0,0,1,2.5-1.88c1.41-.35,2.13,1.14,2.84,2.14a29.65,29.65,0,0,1,3.58,6.56,24.15,24.15,0,0,1,.93,15.38c-1.63,5.69-5.23,10.6-9,15-1.26,1.46.86,3.59,2.12,2.12,3.94-4.59,7.59-9.57,9.5-15.37a26.71,26.71,0,0,0-.47-17.58,32.8,32.8,0,0,0-4-7.66,11.06,11.06,0,0,0-2.79-3.21,4.74,4.74,0,0,0-4.11-.08c-2.66,1-4.21,3.55-5.09,6.15a88.41,88.41,0,0,0-2.38,9.66,90.06,90.06,0,0,0-2.37,23.3c.1,1.92,3.1,1.93,3,0Z"/><path class="cls-1" d="M619.87,800.47a16.3,16.3,0,0,1,5.53-7.42,17.3,17.3,0,0,1,4.21-2.27,11.79,11.79,0,0,0,4.25-2.3,9.23,9.23,0,0,0,2.21-4.45c.48-1.91.86-3.85,1.22-5.78.79-4.12,1.45-8.26,2.2-12.38,2.47-13.61,6.61-29.46,19.34-37.1,5.52-3.32,12.39-4.84,18.67-2.94,6.59,2,11.14,7.63,14.57,13.3,3.81,6.33,7,13.07,8.11,20.42,1,6.52.82,13.25,2.75,19.61a23,23,0,0,0,4.41,8.28,30.35,30.35,0,0,0,7.82,6.06,76.48,76.48,0,0,1,8.38,5.19,30,30,0,0,1,6.81,8c1,1.54,1.86,3.13,2.75,4.72s3.53.17,2.59-1.51a65.91,65.91,0,0,0-6-9.32,30.65,30.65,0,0,0-8-6.77c-3-1.8-6.09-3.35-8.89-5.42a18.65,18.65,0,0,1-6.12-7.64c-2.68-6.22-2.5-13.29-3.32-19.89a47.38,47.38,0,0,0-2.48-10.65,75,75,0,0,0-5-10.55c-3.4-6-7.7-12.11-14-15.31-6.06-3.07-13.22-3-19.5-.6-14.06,5.3-20.91,19.74-24.14,33.49-2,8.32-2.92,16.83-4.82,25.16-.39,1.7-.76,3.5-2.35,4.48-1.37.85-3,1.23-4.46,1.94a19.34,19.34,0,0,0-7.43,6.53,19.91,19.91,0,0,0-2.16,4.3c-.66,1.82,2.24,2.6,2.9.8Z"/><path class="cls-1" d="M632.17,789.34c4.38,4.27,5.36,11.63,11.77,13.81,5.95,2,11.79-3.38,14.64-8,3.42-5.59,5-12.37,5.73-18.8a63.9,63.9,0,0,0,.34-10.89c-.19-3.89-.57-7.79-.4-11.69.26-5.65,2.06-12.13,7.19-15.28a4.79,4.79,0,0,1,7.5,1.5c1.67,2.6,2.42,5.81,3,8.8a49.67,49.67,0,0,1-.61,21.7c-1.54,6.54-3.33,13.62,0,19.92,2.9,5.5,9.12,9.34,15.41,8.38s11.44-6.39,11.64-12.75c.05-1.93-2.95-1.93-3,0-.16,5.21-4.94,9.66-10.08,9.9-5.42.26-10.46-3.8-12.15-8.82-2.22-6.61.85-13.63,2-20.15a50.35,50.35,0,0,0-.66-20.56c-1.19-4.86-3.48-12.16-9.69-12.07-6,.08-10.31,6-12.1,11.12-2.26,6.44-1.4,13.34-1.08,20a60.71,60.71,0,0,1-2.5,20.93c-1.72,5.57-5.09,12.54-11.34,14-3.38.82-6-1.75-7.73-4.38-1.91-3-3.21-6.28-5.78-8.79-1.39-1.35-3.51.77-2.13,2.12Z"/><path class="cls-1" d="M664.61,777.77a21.57,21.57,0,0,0,15.3,2.89,1.51,1.51,0,0,0,1.05-1.84,1.52,1.52,0,0,0-1.84-1.05,18.46,18.46,0,0,1-13-2.59c-1.64-1-3.15,1.57-1.51,2.59Z"/><path class="cls-1" d="M732.18,808.89c-3.72.89-7.54-1.29-11.25,0s-4.87,5-6.65,8.17c-.76,1.33-1.89,3-3.51,3.29-1.82.36-3.47-1.21-4.85-2.17a15.46,15.46,0,0,0-11.57-2.26c-4.66.81-8.74,3.45-12.39,6.32-1.52,1.19.62,3.3,2.12,2.12,3.2-2.52,6.8-4.75,10.86-5.51a13.46,13.46,0,0,1,5.79.17,16.89,16.89,0,0,1,5.14,2.79,7.53,7.53,0,0,0,5,1.55,6.9,6.9,0,0,0,4.22-2.29,17.55,17.55,0,0,0,2.79-4.45,11.6,11.6,0,0,1,2.78-4.2c1.66-1.31,3.9-1,5.85-.74a17.33,17.33,0,0,0,6.5.08c1.88-.44,1.08-3.34-.8-2.89Z"/><path class="cls-1" d="M620.6,802.24a8.52,8.52,0,0,1,8.35,5.15,24.44,24.44,0,0,0,2.33,4.83,9.5,9.5,0,0,0,3.63,2.86c2.58,1.21,6,1.56,8.11,3.6s1.71,5.66,3.48,8a5.55,5.55,0,0,0,5,2.2c2.14-.19,4.08-1.24,6.2-1.46,1.9-.19,1.92-3.19,0-3a45.4,45.4,0,0,0-5.5,1.33c-1.64.36-3,0-3.73-1.58-1.3-2.8-1.21-5.9-3.78-8-2.4-2-5.52-2.41-8.28-3.68a6.79,6.79,0,0,1-3.36-3.07c-.83-1.59-1.27-3.36-2.22-4.89a11.47,11.47,0,0,0-10.24-5.29c-1.92.1-1.93,3.1,0,3Z"/><path class="cls-1" d="M615.74,799.1c-7.62,1.1-15.26,2.11-22.86,3.3a35.73,35.73,0,0,0-5,1.07c-1.72.52-3.33,1.31-5,2a14.41,14.41,0,0,1-9.48.42c-3.11-.81-6.12-2-9.34-2.33a23.72,23.72,0,0,0-9.44,1.28c-3.14.94-6.29,2.19-9.59,2.4s-6.2-.75-9.16-1.79c-3.21-1.12-6.44-2.37-9.87-2.56a14.4,14.4,0,0,0-4.84.59c-1.64.47-3.72,1.49-5.4.7s-3.26,1.76-1.51,2.59c3.32,1.56,6.19-.35,9.48-.81,3.09-.44,6.19.58,9.06,1.58a45,45,0,0,0,9.22,2.6,23.27,23.27,0,0,0,9.36-1.15c3.2-1,6.42-2.26,9.78-2.49s6.61.88,9.84,1.83,6.45,1.64,9.74,1,6.37-2.6,9.75-3.37c4.21-1,8.59-1.38,12.87-2l13.2-1.9c1.9-.28,1.09-3.17-.8-2.9Z"/><path class="cls-1" d="M668.3,859.18c-3.07,3-7.86,2.58-11.62,1.29-4.84-1.67-9.15-4.5-14.25-5.43-9.67-1.75-19.22,1.36-28.82,2a38.31,38.31,0,0,1-7.42-.14,54.26,54.26,0,0,1-7.54-1.76,32.23,32.23,0,0,0-7.6-1.34,42.18,42.18,0,0,0-7.68.76,31.9,31.9,0,0,1-7.8.54,51.77,51.77,0,0,1-7.67-1.61A58.28,58.28,0,0,0,552,852.22c-12.71.44-25.42,1-38.13,1.52-1.92.08-1.93,3.08,0,3l34.51-1.38c5.49-.22,11.08-.56,16.5.52,2.63.52,5.19,1.32,7.83,1.82a26.17,26.17,0,0,0,7.9.27c2.58-.31,5.13-.85,7.72-1.08a24.47,24.47,0,0,1,8.21.79c2.53.64,5,1.45,7.59,1.92a37.88,37.88,0,0,0,7.37.54c9.83-.24,19.67-3.84,29.53-2.31,5.71.89,10.44,4.25,15.9,5.86,4.56,1.34,10,1.1,13.51-2.39,1.38-1.35-.74-3.47-2.12-2.12Z"/><path class="cls-1" d="M516.87,873.31q30.78,3.21,61.7,4.75t62.12,1.42q17.46-.08,34.9-.68c1.93-.06,1.94-3.06,0-3q-30.93,1.07-61.88.48t-62.07-2.88q-17.4-1.27-34.77-3.09c-1.92-.2-1.9,2.8,0,3Z"/><path class="cls-1" d="M500.21,806.24c-2.3.25-4.24-1.11-6.28-2a21.72,21.72,0,0,0-6.84-1.54c-4.84-.37-9.68.37-14.51,0-1.92-.17-1.91,2.83,0,3,4.83.41,9.67-.33,14.51,0a18.43,18.43,0,0,1,6.63,1.72c2,1,4.14,2,6.49,1.79,1.9-.22,1.92-3.22,0-3Z"/><path class="cls-1" d="M340.19,940.15a205.09,205.09,0,0,1-18.25-20.06c-2.74-3.45-5.55-7-7.35-11.05s-2.37-8.83-2.8-13.34c-1.83-19.29-2.39-38.71-3.37-58.05l-.37-7.4-.17-3.45c0-.61-.3-2,.1-2.5.95-1.3,7.95,5.31,8.92,6.2,2.85,2.63,5.6,5.38,8.59,7.86s6.16,4.87,9.8,6.06,7.58.18,8.68-3.83c1.16-4.23-.67-8.67-2.57-12.37A192.29,192.29,0,0,0,327.19,805c-2.57-3.64-5.24-7.24-8.07-10.67a35.15,35.15,0,0,0-9.23-8.22c-6.9-4-15.05-5-22.88-5.44-1.95-.1-3.9-.16-5.85-.21s-1.93,2.95,0,3c7.78.21,15.8.47,23.15,3.29,8.09,3.11,13.17,10,18.13,16.76A208.84,208.84,0,0,1,337,826.29c2,3.74,4.8,8.08,4.29,12.55-.55,4.82-5.47,2.81-8.23,1.22-6.75-3.89-11.75-10-17.72-14.93-2.24-1.82-6.8-6.18-9.53-2.9-1.17,1.4-1,3.37-.88,5.06l.37,7.4c1,19.19,1.58,38.43,3.22,57.58a81.73,81.73,0,0,0,1.81,13.41,34.23,34.23,0,0,0,5.74,11.6,183.85,183.85,0,0,0,17.3,20.29c1.55,1.6,3.13,3.16,4.73,4.71,1.39,1.34,3.51-.78,2.12-2.13Z"/><path class="cls-1" d="M382.91,852.26l-30.33-2.86c-10-.94-19.92-2-29.92-2.46a148.85,148.85,0,0,0-17,.15c-1.92.13-1.93,3.13,0,3a191.65,191.65,0,0,1,30.11.74c10,.87,20,1.87,30,2.81l17.16,1.62c1.92.18,1.91-2.82,0-3Z"/><path class="cls-1" d="M311.51,864.73c9.15.26,18,2.82,26.95,4.34a137.64,137.64,0,0,0,27.81,1.48c5.3-.18,10.58-.53,15.86-.88,1.92-.13,1.93-3.13,0-3-9.25.61-18.53,1.22-27.81.94a111.4,111.4,0,0,1-14.12-1.28c-4.5-.72-8.94-1.73-13.4-2.61a91.57,91.57,0,0,0-15.29-2c-1.93-.05-1.93,2.95,0,3Z"/><path class="cls-1" d="M279.6,781.29c-2.29.07-3.07-2.63-2.81-4.48.36-2.56,1.8-5,2.73-7.34a71,71,0,0,0,4.07-15.42,62.58,62.58,0,0,0,.52-16A18,18,0,0,0,282,730.9a18.93,18.93,0,0,0-4.74-5.23c-7.42-5.89-17.71-10-27-6.23a17.52,17.52,0,0,0-9.53,9c-1.9,4.14-2.49,8.7-2.76,13.2-.64,10.42-1,21.48,2.11,31.56.78,2.49,2.08,5,2,7.66a10.13,10.13,0,0,1-2.56,6.09c-3.29,3.87-8.28,5.57-12.82,7.48a49,49,0,0,0-12.84,7.31,29.59,29.59,0,0,0-8.15,11.53c-4.14,10-3.59,21-4.18,31.63s-3.5,21.4-2,32.12c.62,4.37,1.89,10.21,6,12.62,2.21,1.28,4.85,1.24,7.32,1.14a71.42,71.42,0,0,0,8.25-.86,69.25,69.25,0,0,0,8.16-1.85,1.5,1.5,0,0,0-.8-2.89,66.94,66.94,0,0,1-16.09,2.62c-2.37.08-4.89.11-6.59-1.8-1.51-1.69-2.2-4.09-2.73-6.24-2.52-10.18.22-20.8,1.15-31,.94-10.4,0-21.11,3.1-31.22a28.85,28.85,0,0,1,6.76-11.93c3.4-3.47,7.76-5.8,12.17-7.74s9.1-3.46,12.95-6.49c3.38-2.66,6.08-6.82,5.83-11.27-.14-2.62-1.24-5-2-7.47a47.47,47.47,0,0,1-1.7-7.35,89.25,89.25,0,0,1-.68-15.68c.21-8.29-.35-19.37,6.83-25.15,7.71-6.23,18.42-3,25.79,2a22.29,22.29,0,0,1,5.24,4.63,13.65,13.65,0,0,1,2.61,6.76,56.91,56.91,0,0,1-.35,15.2,70,70,0,0,1-3.86,15c-1.56,4.12-4.82,9.14-2.09,13.48a5.54,5.54,0,0,0,4.82,2.78c1.92,0,1.93-3,0-3Z"/><path class="cls-1" d="M217.58,831.12c4,7.84,2.55,16.93,1.26,25.24-.46,3-1.89,7.85,1.22,10,1.58,1.08,3.6.8,5.39.64a64.9,64.9,0,0,0,6.65-1c1.9-.36,1.1-3.26-.79-2.89a59.87,59.87,0,0,1-6.09.86c-1.34.12-3.58.67-4-1.07s.17-3.5.41-5.07c.3-2,.61-3.9.87-5.86,1-7.56,1.22-15.42-2.32-22.4-.88-1.72-3.47-.2-2.6,1.51Z"/><path class="cls-1" d="M218.17,831.17a138.8,138.8,0,0,1,12.13,33.39c.43,1.89,3.32,1.09,2.9-.8a142.46,142.46,0,0,0-12.44-34.11c-.89-1.71-3.48-.2-2.59,1.52Z"/><path class="cls-1" d="M230.28,864.17a204.06,204.06,0,0,1-4.74,45.69c-2.76,12.51-7.59,27.44,1.17,38.79,4.12,5.34,10.64,7.51,17,9a112.9,112.9,0,0,0,21.68,2.63c7.38.29,14.76.19,22.14.37s14.76,1.12,22.16,1.5,15.26-.3,21.5-4.74c5.12-3.65,9-9.42,8.38-15.93-.19-1.9-3.19-1.92-3,0,.55,5.44-2.58,10.27-6.89,13.34-5.3,3.78-11.74,4.58-18.1,4.41-7.09-.19-14.13-1.25-21.23-1.5-6.91-.25-13.82-.17-20.73-.32a133,133,0,0,1-21-1.79c-6.15-1.12-13.41-2.59-18-7.13-4.08-4-5.75-9.91-5.89-15.5-.17-7,1.79-13.73,3.34-20.46a207.67,207.67,0,0,0,5.27-48.37,1.5,1.5,0,0,0-3,0Z"/><path class="cls-1" d="M325.75,926.4a337.94,337.94,0,0,0,50,10.49q7.18.95,14.4,1.58c1.92.17,1.91-2.83,0-3a333.38,333.38,0,0,1-49.83-8.27c-4.61-1.13-9.2-2.37-13.77-3.69a1.5,1.5,0,0,0-.79,2.89Z"/><path class="cls-1" d="M221.77,933.66c-8.63.85-16.81,3.62-24.87,6.68a221.05,221.05,0,0,0-21.89,9.2,66.7,66.7,0,0,0-19,14.2c-5.85,6.37-11,13.43-16.4,20.21l-19.17,24.12c-1.18,1.5.92,3.64,2.13,2.12l16.53-20.81c5.37-6.77,10.62-13.66,16.18-20.27a65.56,65.56,0,0,1,18.08-15.25c6.72-3.79,13.92-6.6,21.11-9.36,8.84-3.41,17.84-6.91,27.35-7.84,1.9-.19,1.92-3.19,0-3Z"/><path class="cls-1" d="M340.73,942.38c6.26-.72,13.37-1.58,19.15,1.57,5.59,3,8.67,9.23,12,14.39q11.87,18.58,25,36.29,7.32,9.86,15,19.42c1.21,1.5,3.32-.63,2.12-2.12q-14.16-17.58-27-36.15-6.47-9.36-12.59-18.95c-3.39-5.31-6.54-11.34-12-14.85-6.42-4.14-14.49-3.43-21.71-2.6-1.9.22-1.92,3.22,0,3Z"/><path class="cls-1" d="M246.37,783.76c1.52-.59,2.54,1.3,2.74,2.57.31,1.94,0,3.93.45,5.85.85,3.32,3.78,5.41,6.67,6.87,1.67.84,3.48,1.77,5.39,1.73a7.16,7.16,0,0,0,4.43-1.82c2.71-2.26,3.56-5.73,5.7-8.4,2.38-3,6.8-2.41,9.19-5.37,1.2-1.49-.91-3.63-2.12-2.12a7.15,7.15,0,0,1-3.7,2,12.51,12.51,0,0,0-4.31,2.13c-2.6,2.17-3.46,5.54-5.47,8.14a5.32,5.32,0,0,1-3.72,2.4c-1.74.06-3.71-1.17-5.18-2a9.27,9.27,0,0,1-3.43-3c-.95-1.61-.73-3.5-.81-5.29a7.69,7.69,0,0,0-1.93-5.29,4.37,4.37,0,0,0-4.7-1.28c-1.78.69-1,3.59.8,2.89Z"/><path class="cls-1" d="M228.32,848.08a150.53,150.53,0,0,0,60.19-2.33,147,147,0,0,0,16.42-5.08c1.79-.67,1-3.57-.8-2.89a147.48,147.48,0,0,1-58.32,9.15,143.94,143.94,0,0,1-16.69-1.75c-1.89-.31-2.7,2.58-.8,2.9Z"/><path class="cls-1" d="M156,774.52c7.19,9.58,20.38,10.35,28.77,18.39a30.54,30.54,0,0,1,8.58,16.4c1.25,6.24,1.21,12.65,1.54,19,.38,7.14,1.22,14.32,4.44,20.79.86,1.73,3.45.22,2.59-1.51-5.77-11.62-3.3-25.26-5.42-37.67a34.8,34.8,0,0,0-7.53-16.9c-3.93-4.62-9.08-7.49-14.54-10-5.65-2.53-12-4.91-15.83-10-1.15-1.53-3.75,0-2.6,1.51Z"/><path class="cls-1" d="M113.71,764.66c6.88,4.32,14.48,6,22.52,6.26,7.4.23,15.93-.08,21.83,5.19,1.44,1.29,3.56-.83,2.12-2.12-5.92-5.29-14-5.82-21.53-6a57.32,57.32,0,0,1-12.6-1.26,37.1,37.1,0,0,1-10.82-4.65c-1.64-1-3.15,1.57-1.52,2.59Z"/><path class="cls-1" d="M160.19,771.75c-1.53-2.89,1.38-5.42,3.95-6,2.41-.59,5-.2,7.39-.73a6,6,0,0,0,4.89-5c.48-3.46-.36-7,.14-10.49.47-3.22,2-6.17,1.8-9.49a42.48,42.48,0,0,0-.76-4.87,39.93,39.93,0,0,1-.48-5.68c-.18-5.65-.46-12.27-5.28-16.14-1.19-.95-2.62-1.39-3.85-2.25s-2-2.33-2.93-3.49a15,15,0,0,0-7.13-4.36c-5.86-1.93-12.28-3.23-18.43-2.15a28.88,28.88,0,0,0-22.33,20.08c-2,7.18-.74,14.7.31,21.92a74.48,74.48,0,0,1,1.06,11.55c0,2.8-.11,6.67-2.81,8.32-1.64,1-.14,3.61,1.51,2.59,5.07-3.09,4.54-10.55,4.1-15.65-.57-6.53-2.12-13-2.22-19.55a25.35,25.35,0,0,1,16.76-25.17c5.57-2.05,11.13-1.66,16.82-.27,2.82.69,5.84,1.37,8.29,3s3.35,4.51,5.85,6a19.72,19.72,0,0,1,3.43,2,9.85,9.85,0,0,1,2.33,3.37,23.15,23.15,0,0,1,1.47,8.77,74.66,74.66,0,0,0,1.05,10.12,12.27,12.27,0,0,1,0,4.94c-.36,1.57-.92,3.08-1.25,4.65-.78,3.75-.13,7.43-.33,11.2-.17,3.33-3.36,3.36-6,3.47-3,.13-5.91.46-8.24,2.51a6.88,6.88,0,0,0-1.68,8.37c.91,1.71,3.5.19,2.59-1.51Z"/><path class="cls-1" d="M155.47,755.69A28.55,28.55,0,0,0,166,763.81a1.56,1.56,0,0,0,2.06-.54,1.52,1.52,0,0,0-.54-2,26.14,26.14,0,0,1-9.91-7.66,1.51,1.51,0,0,0-2.12,0,1.54,1.54,0,0,0,0,2.13Z"/><path class="cls-1" d="M115.9,763a9.13,9.13,0,0,0-9.58.63,17.9,17.9,0,0,0-3.45,4.06,6.16,6.16,0,0,1-4.68,2.5c-1.84.18-3.68.1-5.51.37a16.52,16.52,0,0,0-5.25,1.76,28,28,0,0,0-8.76,7.82C76,783.52,73.59,787,71,790.41a54.72,54.72,0,0,0-6.86,10.68,124.1,124.1,0,0,0-4.64,12.07c-1.46,4.25-2.82,8.54-4,12.87a118.35,118.35,0,0,0-4.57,29.67c0,1.93,3,1.93,3,0,.22-16.77,5.05-33.35,11-48.89a49.82,49.82,0,0,1,5.61-10.88c2.37-3.37,5.06-6.52,7.47-9.87,4.35-6,9.18-12.38,17.24-12.72a21.21,21.21,0,0,0,5.78-.67,9,9,0,0,0,4.45-3.46c1.11-1.52,2-3.12,3.86-3.85a6.07,6.07,0,0,1,5.07.23c1.71.89,3.23-1.69,1.51-2.59Z"/><path class="cls-1" d="M50.73,856c1,9.92-.61,19.83-.69,29.75a57.53,57.53,0,0,0,1.47,14.33,69.34,69.34,0,0,0,5.36,13.59c1.86,3.8,3.94,7.75,7.89,9.74s8.71,2,13.11,2.29l31.62,1.85c10.48.61,21,1.2,31.46,1,5.27-.12,10.54-.41,15.8-.72,5-.29,9.95-.46,14.89-1,3.92-.41,8-1.57,10.14-5.18,2-3.33,1.78-7.66.35-11.16-1.68-4.08-4.73-7.31-7.45-10.71a85.62,85.62,0,0,1-7.44-11C158.42,873.46,154,855.91,152,838.46c-.25-2.22-.47-4.43-.65-6.65-.16-1.91-3.16-1.93-3,0,1.41,17,4.7,33.89,11.68,49.48a95.3,95.3,0,0,0,13.29,21.56c2.6,3.15,5.58,6.4,6.57,10.48.86,3.57,0,7.52-3.51,9.27a15.69,15.69,0,0,1-5.74,1.29c-2.38.2-4.77.33-7.15.48-5,.32-9.92.63-14.88.86-10.18.48-20.32.34-30.48-.19s-20.22-1.16-30.33-1.75c-4.89-.29-9.8-.48-14.69-.88-4.22-.35-8.2-1.41-10.77-5a37.73,37.73,0,0,1-3.11-5.64c-1-2.15-2.07-4.33-2.95-6.57a46.45,46.45,0,0,1-3.11-13.66c-.68-9.53.89-19,.87-28.56a67.24,67.24,0,0,0-.34-7c-.19-1.9-3.19-1.92-3,0Z"/><path class="cls-1" d="M178.41,906.66c5.54-.48,10.5-3,15-6.11a64.64,64.64,0,0,0,12.65-11.09c1.24-1.47-.87-3.6-2.12-2.12a61.79,61.79,0,0,1-11.69,10.38c-4.12,2.91-8.72,5.5-13.84,5.94-1.91.17-1.93,3.17,0,3Z"/><path class="cls-1" d="M180.12,908.19a78.28,78.28,0,0,1,8.47,15c2.51,5.6,4.83,11.3,7.22,16.95a1.53,1.53,0,0,0,2.06.54,1.55,1.55,0,0,0,.54-2.05c-2.4-5.66-4.72-11.35-7.23-17a78.59,78.59,0,0,0-8.47-15c-1.15-1.52-3.75,0-2.59,1.52Z"/><path class="cls-1" d="M204.45,891q2.16,23.25,2.65,46.6c0,1.93,3,1.94,3,0q-.48-23.34-2.65-46.6c-.18-1.91-3.18-1.92-3,0Z"/><path class="cls-1" d="M67.87,926.6c-.43,3.38-.8,6.83-.06,10.2s2.78,5.86,5.11,8.26a32.91,32.91,0,0,1,5.61,7.61c1.46,2.78,2.64,5.7,3.91,8.57a47.66,47.66,0,0,0,4.4,8.25,29.86,29.86,0,0,0,6.91,6.92,83.6,83.6,0,0,0,18.6,10.06c7.41,3,15.42,4.64,23.41,3.77,1.89-.21,1.92-3.21,0-3-13.63,1.49-27-4.58-38.22-11.85a30.52,30.52,0,0,1-7.18-6.17,36.09,36.09,0,0,1-4.52-7.7c-2.5-5.38-4.46-11-8.2-15.72-2.16-2.71-5.24-4.85-6.48-8.19s-.74-7.41-.29-11c.25-1.91-2.76-1.89-3,0Z"/><path class="cls-1" d="M68.19,924.31v2.46a1.54,1.54,0,0,0,.44,1.06,1.52,1.52,0,0,0,1.06.44,1.5,1.5,0,0,0,1.06-.44,1.54,1.54,0,0,0,.44-1.06v-2.46a1.5,1.5,0,0,0-1.5-1.5,1.54,1.54,0,0,0-1.06.44,1.58,1.58,0,0,0-.44,1.06Z"/><path class="cls-1" d="M54.15,908.51c-5.9,1.79-12.09.82-18.15,1-5.45.12-10.67,1.37-15.11,4.62-8.14,6-12.56,15.87-16.21,25A28.37,28.37,0,0,0,2.41,948,17.94,17.94,0,0,0,4,956.24c2.18,5,6.09,9.15,10.32,12.45,8.47,6.61,19,10,29.65,10.94,14.7,1.36,29.38-1.81,43.68-4.88,1.88-.4,1.09-3.29-.8-2.89C65,976.54,40.24,981.52,20,969A37.37,37.37,0,0,1,9.06,959a20.08,20.08,0,0,1-3.36-7.19,16.51,16.51,0,0,1,.63-8.5,80.33,80.33,0,0,1,6.08-14,41,41,0,0,1,8.15-11.11,22.51,22.51,0,0,1,15-5.73c6.49-.2,13.07.84,19.4-1.08,1.84-.56,1.06-3.45-.8-2.89Z"/><path class="cls-1" d="M50.93,841.46q-18.57-1.32-37-3.87c-1.38-.19-2.78-.35-4.16-.61-.91-.17-2.79-.56-2.81-1.81,0-1,1.68-1.41,2.4-1.68L14,831.76,23,828.48c2.41-.89,5.16-1.62,6.87-3.68A11.56,11.56,0,0,0,32,818.33c.26-2.81.42-5.62.81-8.42.43-3,1-6,1.69-8.89.33-1.4.69-2.78,1.08-4.15a10,10,0,0,1,1.69-4c1.4-1.58,3.75-1.81,5.73-1.72a9.23,9.23,0,0,1,3.05.48c1,.47.67,2,.63,3l-.84,18.47c-.16,3.44-.31,6.89-.47,10.34-.13,2.8-.5,5.26-3.44,6.26a16.06,16.06,0,0,1-7.64.34,6.61,6.61,0,0,1-3.71-1.64,3.11,3.11,0,0,1-.93-3.17,1.58,1.58,0,0,0-.54-2.06,1.53,1.53,0,0,0-2.06.54,6.2,6.2,0,0,0,1.66,7.06c2.19,2,5.34,2.39,8.18,2.5a14.8,14.8,0,0,0,7.4-1.33c2.6-1.37,3.71-3.86,4-6.68.33-3.54.35-7.13.51-10.69l.5-10.83c.16-3.49.51-7,.46-10.54a4.86,4.86,0,0,0-1-3.29,6.21,6.21,0,0,0-3.9-1.53,13,13,0,0,0-7.52.85c-2.78,1.37-3.78,4.07-4.58,6.88a100,100,0,0,0-3.55,20.32c-.18,2.61-.2,5.9-2.71,7.44a24.35,24.35,0,0,1-4.26,1.76L17,827.49c-3.3,1.21-6.72,2.27-9.94,3.69C4.45,832.33,3,835,4.8,837.57A6.34,6.34,0,0,0,9,839.87c1.94.36,3.92.58,5.87.85q5.81.78,11.63,1.46,12.21,1.41,24.48,2.28c1.93.14,1.92-2.86,0-3Z"/><path class="cls-1" d="M47.42,817.91a63.65,63.65,0,0,0,13.87-3.35,1.5,1.5,0,0,0-.8-2.89,60.09,60.09,0,0,1-13.07,3.24,1.56,1.56,0,0,0-1.5,1.5c0,.73.69,1.61,1.5,1.5Z"/><path class="cls-1" d="M8,830.11c.23-17.35.88-34.84,4.69-51.83a114.15,114.15,0,0,1,8.25-24.41c1.44-3,3.18-6.82,6.44-8.2,1.87-.8,3.94-.28,5.9-.58A9.66,9.66,0,0,0,38,742.76c3-2.62,4.26-6.54,4.87-10.35a117.59,117.59,0,0,1,2.25-12.63c2.16-7.89,6.15-15.31,12.52-20.58,5.65-4.67,13.13-7.26,20.45-5.94a20.88,20.88,0,0,1,9.83,4.46,23.3,23.3,0,0,1,6.45,9.85c3.21,8.6,4.06,17.58,4.29,26.69.12,4.36.79,8.47,3.09,12.25,2.16,3.56,5.25,6.65,6.69,10.61a9.42,9.42,0,0,1,.42,6,1.5,1.5,0,0,0,2.89.8c1.2-4.24-.4-8.54-2.71-12.09s-5.48-6.86-6.63-11.11c-1.23-4.55-.66-9.46-1-14.12A80.62,80.62,0,0,0,99,712.41c-2.12-8-5.66-15.88-13.44-19.79a26.32,26.32,0,0,0-22.25-.39c-7.39,3.19-13.27,9.27-17,16.32a51.7,51.7,0,0,0-4.58,12.33c-1,4.42-1.19,9-2.3,13.42-.9,3.54-3.18,7.62-7.26,7.9-2.15.15-4.15-.12-6.18.79a11.21,11.21,0,0,0-4.08,3.31c-2.58,3.18-4.19,7.13-5.76,10.87a113.29,113.29,0,0,0-4.45,12.63c-5,17.39-6.23,35.63-6.63,53.64Q5,826.77,5,830.11a1.5,1.5,0,0,0,3,0Z"/><path class="cls-1" d="M67.09,721.31a60.06,60.06,0,0,1,16.25-11.56c1.34-.64,3.45-2,5-1.25s1.75,2.77,1.82,4.26c.17,3.65.11,7.34,0,11a85.13,85.13,0,0,1-.91,11.49,20.42,20.42,0,0,1-2.61,7.91,8.23,8.23,0,0,1-7.57,3.92c-3-.23-5.35-2.26-7-4.66-4.28-6.35-6-14.66-6.11-22.21a1.5,1.5,0,0,0-3,0c.07,7.87,1.91,16.33,6.1,23.08,1.85,3,4.52,5.67,8,6.5A11.09,11.09,0,0,0,87,747.27c2.49-2.23,3.84-5.51,4.59-8.7a64.6,64.6,0,0,0,1.42-12.17c.19-4.39.2-8.81.07-13.2-.1-3.48-1.53-7.93-5.76-7.91-2.2,0-4.38,1.29-6.3,2.25a59,59,0,0,0-5.72,3.27A63.74,63.74,0,0,0,65,719.18a1.51,1.51,0,0,0,2.13,2.13Z"/><path class="cls-1" d="M37.06,744.78a84.86,84.86,0,0,1,4.85,16.72c.48,2.7.64,5.58,2,8a10.48,10.48,0,0,0,4.16,4,13.45,13.45,0,0,0,12,.23c4.14-2,7.18-5.82,9-9.94,2.54-5.84,2.84-12.27,3.45-18.52.19-1.92-2.81-1.9-3,0-.84,8.56-1.16,19.59-9.2,24.88a10.58,10.58,0,0,1-10.11,1,7.59,7.59,0,0,1-3.72-3.33c-1.15-2.14-1.23-4.8-1.65-7.15A84.76,84.76,0,0,0,40,744c-.71-1.76-3.61-1-2.89.8Z"/><path class="cls-1" d="M85.43,750.26c-.45,5,1.63,10.53,6.46,12.68a15.5,15.5,0,0,0,7.9.84,2.92,2.92,0,0,0,2.71-2.49c.33-1.46.59-2.93.86-4.4.61-3.28,1.12-6.57,1.55-9.88.11-.8-.76-1.5-1.5-1.5a1.55,1.55,0,0,0-1.5,1.5q-.6,4.56-1.44,9.09c-.15.84-.31,1.67-.48,2.51-.06.31-.12.63-.19.94a5.05,5.05,0,0,0-.25,1.19c-.14.33-.08.34.19,0a.42.42,0,0,1-.29,0,4.29,4.29,0,0,0-.88.05c-.74,0-1.48.06-2.21,0a7.71,7.71,0,0,1-6.11-3,10.9,10.9,0,0,1-1.82-7.61,1.51,1.51,0,0,0-1.5-1.5,1.53,1.53,0,0,0-1.5,1.5Z"/><path class="cls-1" d="M84.49,748.78a5.69,5.69,0,0,0,.06.92,4.12,4.12,0,0,0,.2.91,5.57,5.57,0,0,0,1.09,1.87,1.52,1.52,0,0,0,1.06.44,1.54,1.54,0,0,0,1.07-.44,1.51,1.51,0,0,0,.43-1.06,1.62,1.62,0,0,0-.43-1.06c-.06-.07-.12-.13-.17-.2l.24.3a3.64,3.64,0,0,1-.47-.81l.15.36a3.5,3.5,0,0,1-.25-.91l0,.4a4.34,4.34,0,0,1,0-.72,1.49,1.49,0,0,0-.43-1.06,1.51,1.51,0,0,0-2.13,0,1.69,1.69,0,0,0-.44,1.06Z"/><path class="cls-1" d="M179.44,740.83c5.69-1.11,11.64,1,16,4.71,4.61,3.89,7.58,9.37,9.48,15s2.21,11.85,6.17,16.4c.84,1,2,1.93,1.48,3.34s-1.46,2.33-1.9,3.67c-1,2.95.34,5.89,0,8.86-.38,3.13-3.41,4.95-6.16,5.8-3.6,1.13-7.42,1-11.15.94-1.93,0-1.93,3,0,3,6.35.14,14.66.19,18.81-5.58,2-2.78,1.45-5.87,1.19-9.06a7,7,0,0,1,.92-4.51c.84-1.41,1.67-2.82,1.42-4.53a6.9,6.9,0,0,0-2-3.49,13.87,13.87,0,0,1-2.72-4.35c-1.18-3.06-1.68-6.35-2.62-9.49-1.91-6.41-5-12.75-9.93-17.36-5.29-4.92-12.59-7.67-19.8-6.27-1.89.37-1.09,3.27.8,2.9Z"/><path class="cls-1" d="M214.38,777.13a62.4,62.4,0,0,0,25.16-7c1.72-.89.2-3.48-1.51-2.59a58.78,58.78,0,0,1-23.65,6.57c-1.92.11-1.93,3.11,0,3Z"/><path class="cls-1" d="M181.43,711.88a21.41,21.41,0,0,1,15.86-23c10.31-2.65,19.68,3.22,26.56,10.4,2,2,3.61,4.38,5.64,6.33s4.52,3.38,7.31,2.51c1.84-.57,1.06-3.47-.79-2.89-2.53.78-4.69-1.9-6.11-3.61a74.19,74.19,0,0,0-5.33-5.88,39.33,39.33,0,0,0-13.07-8.81,24.2,24.2,0,0,0-33.07,25c.19,1.9,3.2,1.92,3,0Z"/><path class="cls-1" d="M178.76,712.9A20.76,20.76,0,0,0,186,731.1a21,21,0,0,0,8.61,4.31c3.41.79,7.05.33,10.39,1.41,3,1,4.73,3.74,7.31,5.35a8.81,8.81,0,0,0,4.69,1.28c1.68,0,3.53-.42,5.15.16s2.71,1.81,4.32,2.25a6.08,6.08,0,0,0,4.29-.48c2.89-1.4,4.61-4.47,5.6-7.38a24.27,24.27,0,0,0-3.14-21.45c-1.1-1.56-3.7-.07-2.59,1.51a21.42,21.42,0,0,1,3.47,16.87c-.6,2.71-1.69,5.79-4.1,7.43-2.73,1.86-4.71-.94-7.25-1.71-3-.88-6.19.63-8.93-1.07-2.23-1.39-3.79-3.66-6.16-4.88-2.86-1.48-6.11-1.49-9.24-1.75a18.73,18.73,0,0,1-8.22-2.53,17.91,17.91,0,0,1-8.46-17.52c.22-1.91-2.78-1.9-3,0Z"/><path class="cls-1" d="M235.34,707.55c5.14-1.06,10.48-2.17,15.71-1.18a1.54,1.54,0,0,0,1.85-1,1.51,1.51,0,0,0-1.05-1.84c-5.8-1.1-11.6,0-17.3,1.18-1.89.39-1.09,3.28.79,2.89Z"/><path class="cls-1" d="M236.12,727.47l3,1.37a1.12,1.12,0,0,0,.56.18,1.18,1.18,0,0,0,.59,0,1.5,1.5,0,0,0,1-1.85,1.47,1.47,0,0,0-.69-.89l-3-1.37a1.12,1.12,0,0,0-.56-.18,1.18,1.18,0,0,0-.59,0,1.52,1.52,0,0,0-.9.69,1.5,1.5,0,0,0-.15,1.15,1.46,1.46,0,0,0,.69.9Z"/><path class="cls-1" d="M251.2,707.09a111.51,111.51,0,0,1,15.29-.36,64.56,64.56,0,0,1,14.16,2.85A119.5,119.5,0,0,1,293,713.81c3.35,1.42,6.56,3.39,8.15,6.8.82,1.75,3.4.23,2.59-1.51-2.71-5.82-9.26-8.08-14.9-10-7.58-2.59-15.25-5-23.31-5.43a117.89,117.89,0,0,0-14.31.42c-1.92.14-1.93,3.14,0,3Z"/><path class="cls-1" d="M285.08,751.75c10.07.35,19.43-4,28.18-8.44,4.4-2.26,8.77-4.61,13.36-6.47,4.35-1.75,9.39-3.53,14.14-3.42.67,0,2.34.23,2.25,1.26-.05.66-1.18.9-1.68,1a50.49,50.49,0,0,0-6.25,1.66,22.63,22.63,0,0,0-5.95,3.34c-1.52,1.24-2.73,3.5-1.24,5.24,1,1.19,3,1,3,2.89s-1.91,3-3.61,3.54a52.1,52.1,0,0,1-6.68,1.27c-2.58.41-5.17.78-7.76,1.14-11.19,1.58-22.51,3.1-33.08,7.31-1.77.71-1,3.61.8,2.89,10.06-4,20.82-5.58,31.48-7.08,5.13-.72,10.46-1.19,15.49-2.49a8.91,8.91,0,0,0,5.36-3.29,5.87,5.87,0,0,0,.64-5.27,4.28,4.28,0,0,0-1.61-2,7.74,7.74,0,0,0-1.2-.57c-.58-.27-.55-.26-.12-.8a9.72,9.72,0,0,1,2.83-2,22.29,22.29,0,0,1,3.48-1.59c2.93-1,10.47-1.22,9-6.27s-9.32-3-12.88-2a72.81,72.81,0,0,0-14.44,5.67c-10.55,5.21-21.25,11.93-33.46,11.5-1.93-.06-1.93,2.94,0,3Z"/><path class="cls-1" d="M300.72,721a71.55,71.55,0,0,1,7.72,21.86c.35,1.9,3.24,1.1,2.9-.79a74.39,74.39,0,0,0-8-22.58c-.93-1.7-3.52-.18-2.59,1.51Z"/><path class="cls-1" d="M219.66,745.57a65.63,65.63,0,0,1,9.7,25.94c.28,1.9,3.17,1.09,2.89-.8a67.49,67.49,0,0,0-10-26.65c-1-1.62-3.63-.12-2.59,1.51Z"/><path class="cls-1" d="M162.17,709.77c-7.62,2.31-11,9.82-14.7,16.15a36.26,36.26,0,0,1-3.47,5,35.38,35.38,0,0,0-3.56,4.63c-1.05,1.78-1.59,3.81-2.69,5.55a11.1,11.1,0,0,1-3.83,3.57c-4.11,2.4-9,2.38-13.65,1.88-1.91-.21-1.9,2.8,0,3,7.62.83,16.87-.41,20.69-8a41.5,41.5,0,0,1,2.75-5.5c1.13-1.61,2.52-3,3.71-4.58,2.52-3.29,4.25-7.07,6.42-10.58s5-6.92,9.13-8.16c1.84-.55,1.06-3.45-.8-2.89Z"/><path class="cls-1" d="M196.24,732.72a10.28,10.28,0,0,0,6.1-7.33,39.74,39.74,0,0,0,.88-6.16,12.36,12.36,0,0,1,1.16-4.9c1.67-3,5.5-1.5,8.22-1.49,3.44,0,5.6-2,6.61-5.15.52-1.64.78-3.5,2.16-4.68a4.85,4.85,0,0,1,4.72-.87c1.84.62,2.63-2.28.8-2.89a7.82,7.82,0,0,0-8.68,2.81,14.48,14.48,0,0,0-1.79,4.51c-.41,1.37-.95,2.73-2.46,3.13s-3.14,0-4.62-.13a9.14,9.14,0,0,0-4.72.57c-3.3,1.53-4,5.36-4.35,8.62-.4,3.76-.55,9.48-4.83,11.07-1.79.67-1,3.57.8,2.89Z"/><path class="cls-1" d="M347.15,737.57c10.28-.09,20.11,3.22,29.55,7,8.22,3.26,16.71,6.49,24.05,11.51a34.63,34.63,0,0,1,9.88,10c1,1.63,3.62.12,2.59-1.52-4.78-7.59-12.4-12.55-20.35-16.34-4.19-2-8.49-3.73-12.78-5.47a151.66,151.66,0,0,0-15.31-5.49,62.3,62.3,0,0,0-17.63-2.62,1.5,1.5,0,0,0,0,3Z"/><path class="cls-1" d="M453.33,760.08a6,6,0,0,0-4.44-4.62c-2.69-.74-5.42.22-7.85,1.34-1.22.56-2.41,1.2-3.68,1.65a33.76,33.76,0,0,0-3.63,1.24c-2.11,1-3.89,3.28-3.21,5.73.56,2,2.51,2.75,4.27,3.36a4,4,0,0,1,1.92,1c.56.77.33,2,.63,2.92,1.57,4.53,7.37,5.2,11,2.79,4.73-3.16,6.79-9.55,6.07-15a1.55,1.55,0,0,0-1.5-1.5,1.5,1.5,0,0,0-1.5,1.5,13.89,13.89,0,0,1-3,11,6.5,6.5,0,0,1-4.43,2.45,4,4,0,0,1-3.48-1.69,6.06,6.06,0,0,1-.54-2.31,4.27,4.27,0,0,0-1.21-2.43,10.09,10.09,0,0,0-3.77-1.86c-1.27-.47-2.1-1.28-1-2.53s3.61-1.52,5.23-2.18c2.25-.92,4.41-2.36,6.86-2.69,1.93-.26,4.08.51,4.39,2.63a1.5,1.5,0,0,0,1.84,1,1.53,1.53,0,0,0,1.05-1.85Z"/><path class="cls-1" d="M31.39,743.25a315.4,315.4,0,0,0,.36-85.49q-1.39-10.47-3.48-20.84c-1.44-7.1-3.24-14.16-3.88-21.39-1-11.32,1.31-24.53,11.55-31.19,2.61-1.69,5.47-3,8-4.88a18.61,18.61,0,0,0,5.1-5.68c2.42-4.24,3.09-9.19,3.39-14,.61-9.62-.67-21.49,7.49-28.44A19.09,19.09,0,0,1,73.79,527a16.77,16.77,0,0,1,12.27,7.5,18.46,18.46,0,0,1,2.93,14c-1.27,5.7-5.16,10.39-6.78,16a13.87,13.87,0,0,0-.11,8,15,15,0,0,0,4.64,6.65,59.63,59.63,0,0,0,7.28,5l9.13,5.71c3,1.88,6,3.71,9,5.68a21.51,21.51,0,0,1,6.48,6.12c3.08,4.89,3,11,2,16.49-.5,2.91-1.22,5.77-2,8.61a1.5,1.5,0,0,0,2.89.8c1.59-5.83,3.09-12,2.57-18.06a21.44,21.44,0,0,0-2.34-8.36,21,21,0,0,0-6-6.64c-2.62-2-5.48-3.66-8.27-5.41l-9.54-6a98.78,98.78,0,0,1-8.28-5.4c-2.25-1.75-4.28-3.93-5-6.78-1.32-5.59,2.77-11.11,5-15.91,2.37-5.1,3.31-10.38,1.72-15.87A21.8,21.8,0,0,0,82.63,527a20.07,20.07,0,0,0-15.14-2.57,21.53,21.53,0,0,0-12.84,8.17c-3.09,4.2-4.16,9.52-4.63,14.61-.49,5.31-.28,10.66-.91,16-.58,4.79-2.07,9.55-5.74,12.88-2.37,2.15-5.35,3.49-8.06,5.14a26,26,0,0,0-6.7,5.71,33.43,33.43,0,0,0-6.78,15.37c-2.47,13.93,2.26,28,4.72,41.59a311.51,311.51,0,0,1,3.25,88q-.56,5.31-1.31,10.61a1.55,1.55,0,0,0,1.05,1.84,1.51,1.51,0,0,0,1.85-1Z"/><path class="cls-1" d="M50.91,561.28a34.77,34.77,0,0,1,5.15,13.19c1,5,1.65,10.15,2.41,15.23l5,33.24.59,3.94a8.56,8.56,0,0,0,.87,3.42c1.16,1.8,3.67,1.68,5.13.34,1.68-1.55,1.48-4.08,1.45-6.16,0-2.81-.06-5.63-.07-8.45q0-8.32,0-16.65c0-5.44-.08-11,.37-16.38a29,29,0,0,1,5.55-15.09c3.06-4.15,7-7.63,10.8-11,1.45-1.29-.68-3.4-2.12-2.12-6.48,5.79-13.24,12-15.87,20.62-1.45,4.7-1.55,9.7-1.62,14.58q-.12,8.07-.14,16.15t.07,16.16c0,1.29,0,2.58,0,3.86,0,.65.09,2.29-.76,2.5s-.67-1.53-.74-2l-.59-3.94-4.8-32c-.82-5.51-1.5-11.07-2.58-16.54C58,569,56.47,564,53.5,559.76c-1.1-1.57-3.7-.07-2.59,1.52Z"/><path class="cls-1" d="M119.44,628.54c-3.87,5.33-7.69,10.71-11.62,16-2.82,3.78-6.65,8.45-11.72,8.91-3,.27-5.71-1.23-8.6-1.66a8.48,8.48,0,0,0-6.6,1.53,5.25,5.25,0,0,0-1.76,2.6c-.42,1.46,0,3-.14,4.43-.28,2.84-1.45,5.44-.41,8.28,1.59,4.37,6.32,6.53,10.44,7.87,6,2,12.26,3.59,18.44,5,5.52,1.27,12.35,3.28,17.58.09a17.89,17.89,0,0,0,5.44-5.84c1.57-2.44,3-5,4.34-7.57a167.76,167.76,0,0,0,14.92-38.74c.46-1.88-2.43-2.68-2.9-.8a163.67,163.67,0,0,1-11.92,32.79c-1.26,2.57-2.59,5.12-4,7.62a60.9,60.9,0,0,1-4.14,6.79,10.13,10.13,0,0,1-5.93,4.21c-2.81.6-5.78,0-8.54-.57-6.16-1.22-12.21-2.9-18.24-4.63-4-1.14-9.26-2.2-11.9-5.77-1.52-2.06-1-4.28-.53-6.61a16,16,0,0,0,.31-4.2c-.08-1.25,0-2.14,1.14-2.86,2-1.33,4.5-.64,6.61,0,2.61.76,5.12,1.37,7.84.86,5.26-1,9.18-5.41,12.27-9.45,4.2-5.48,8.14-11.17,12.2-16.76,1.13-1.56-1.47-3.06-2.59-1.51Z"/><path class="cls-1" d="M115.69,683l1.47,35.44c.08,1.92,3.08,1.93,3,0L118.69,683c-.08-1.92-3.08-1.93-3,0Z"/><path class="cls-1" d="M120.83,600.83c3.62.66,6.86-1.22,9.22-3.86s3.85-5.73,6.84-7.46c5.56-3.22,12.65-1.33,18.6-3.4,3.27-1.15,5.57-3.36,7.76-6s4.53-4.94,7.82-6.17a23.7,23.7,0,0,1,9.63-1.3c3.34.18,7.3.71,10.24,2.38a13.77,13.77,0,0,1,3.89,4,32.18,32.18,0,0,0,3.1,3.5,53.21,53.21,0,0,0,7.42,5.79c5.12,3.44,10.68,6.44,14.94,11,5.06,5.37,6.6,12.5,7.35,19.62.82,7.85,1.4,15.75,1.67,23.64.53,15.76-.42,31.78-5.38,46.86-.61,1.85-1.28,3.69-2,5.5s2.19,2.57,2.9.8c6-15,7.76-31.37,7.61-47.47-.07-8.12-.61-16.22-1.32-24.31-.66-7.49-1.21-15.44-5.13-22.06-6.71-11.35-21-14.46-28.82-24.7a19.1,19.1,0,0,0-3.81-4.16,15.41,15.41,0,0,0-5.25-2.21A35.72,35.72,0,0,0,178,569.66a23.89,23.89,0,0,0-9.8,2.32c-3.22,1.59-5.44,4.14-7.74,6.82a13.87,13.87,0,0,1-8.21,5.06c-3.25.64-6.6.54-9.88,1a16.61,16.61,0,0,0-9,3.51c-2.69,2.3-4.2,5.67-6.92,7.93a6.15,6.15,0,0,1-4.85,1.68c-1.89-.35-2.7,2.54-.8,2.89Z"/><path class="cls-1" d="M160.49,574c-3.49-.26-5.85-3.67-6.47-6.85-.85-4.38.6-9,1.73-13.19,1.84-6.82,4.32-14,9.59-19a24.22,24.22,0,0,1,10.85-5.45c3.78-1,8-1.76,11.78-.53,7.37,2.37,8,11.77,7.85,18.24-.24,9-2.6,18.26-8.26,25.43-1.19,1.49.92,3.63,2.12,2.12,5.75-7.29,8.48-16.3,9-25.49.47-7.59,0-17.75-7.42-22.08-3.93-2.29-8.71-2.08-13-1.24-4.69.9-9.43,2.41-13.26,5.36-6.58,5.06-9.76,13.17-11.92,20.93-1.44,5.15-3.21,10.91-1.85,16.26,1.1,4.37,4.6,8.14,9.23,8.48,1.93.14,1.92-2.86,0-3Z"/><path class="cls-1" d="M91.26,577a30.78,30.78,0,0,1,4.8-15.62,20.58,20.58,0,0,1,5.64-5.71c2-1.37,4.27-2.44,6.41-3.66a20.19,20.19,0,0,0,5.64-4.28c1.49-1.75,3.13-4.61,2.19-7a5.75,5.75,0,0,0-2.36-2.45A8.69,8.69,0,0,1,111,535.5a11.19,11.19,0,0,1-1.27-6.86c.79-6.26,6.53-10.44,12.14-12.24,1.84-.58,1-3.48-.79-2.89-5.45,1.74-10.7,5.23-13.12,10.59a14.08,14.08,0,0,0,1.83,14.83,19.49,19.49,0,0,0,2.86,2.36c1.11.89.28,2.38-.34,3.39a14.55,14.55,0,0,1-5.39,4.57c-2.13,1.23-4.36,2.3-6.43,3.64a24,24,0,0,0-6.14,5.76c-3.95,5.24-5.76,11.86-6.06,18.34-.09,1.93,2.91,1.92,3,0Z"/><path class="cls-1" d="M123.32,513.73a16.41,16.41,0,0,1,13.82-18c4.14-.62,9.31.26,11.83,3.94,1.23,1.78,1.59,3.88,2.61,5.75,1.13,2.07,3.1,2.34,5.25,2.39,4.1.08,8.38.73,11.95,2.88a10.65,10.65,0,0,1,4.12,4.09c.83,1.6,1.12,3.73-.55,4.88-1.86,1.28-4.27,2-6.33,2.93q-3.37,1.5-6.77,3c-4.55,2-9.14,3.83-13.79,5.52-10.49,3.83-21.36,6.79-32.53,7.63-1.91.14-1.93,3.14,0,3a122.75,122.75,0,0,0,32-7.26c5.13-1.83,10.17-3.89,15.17-6,2.55-1.09,5.09-2.21,7.62-3.33,2.2-1,4.84-1.77,6.73-3.29,3.75-3,1.84-8.43-1.05-11.29-3.3-3.27-7.84-4.79-12.35-5.39-1.09-.14-2.18-.24-3.28-.28s-2.7.28-3.44-.61a10.85,10.85,0,0,1-1.15-2.86,16.45,16.45,0,0,0-1.76-3.38c-2.85-4.07-8-5.63-12.76-5.41A19.37,19.37,0,0,0,125,499.12a19.57,19.57,0,0,0-4.67,14.61c.19,1.9,3.19,1.92,3,0Z"/><path class="cls-1" d="M103.94,555.73a128.75,128.75,0,0,1,1.79,17.63,51.55,51.55,0,0,1-.54,8.51,40.42,40.42,0,0,1-.94,4.34c-.18.65-.37,1.29-.59,1.92-.14.44-.34,1.46-.76,1.77-1.54,1.13,0,3.74,1.52,2.59a6.18,6.18,0,0,0,2.06-3.35,36.69,36.69,0,0,0,1.28-4.73,51,51,0,0,0,1-9.7,126.16,126.16,0,0,0-1.89-19.78c-.29-1.9-3.18-1.1-2.9.8Z"/><path class="cls-1" d="M121.61,517.54c-.76,3.86-1.44,8.2,1,11.61A7.12,7.12,0,0,0,126.8,532c2,.43,4.12-.18,6.08-.73a70.18,70.18,0,0,0,12.29-4.75c3.37-1.67,6.89-3.56,9.21-6.62,2.88-3.79,2.6-8.54,2.05-13-.23-1.9-3.23-1.92-3,0,.5,4.09,1,8.63-2,11.92-2.82,3.07-7.11,4.94-10.86,6.57a65.67,65.67,0,0,1-6.49,2.41c-2,.61-4.55,1.73-6.64,1.27a4.86,4.86,0,0,1-3.26-3.67c-.63-2.32-.11-4.79.34-7.09.37-1.89-2.52-2.7-2.89-.8Z"/><path class="cls-1" d="M208.38,586c5.44-8,17.25-7,25.64-8.52,4.7-.84,9.59-2.48,12.92-6.07a5.25,5.25,0,0,0,1.57-3,18.34,18.34,0,0,0-.53-4.34,49,49,0,0,1-.44-9.14c.43-10.12,3.86-22.48,14.24-26.55,9.72-3.81,20.5.66,26.12,9.11a16.31,16.31,0,0,1,3.15,8.91c0,3.2-1.27,6.3-2.33,9.27a32.29,32.29,0,0,1-4.26,8.58c-1.69,2.28-3.57,4.58-3.42,7.6.1,1.92,3.1,1.93,3,0-.14-2.72,2.16-4.82,3.6-6.9a34.82,34.82,0,0,0,3.82-8.06,40,40,0,0,0,2.46-8.68,16.23,16.23,0,0,0-1.39-8.52c-4.23-9.72-14.74-16.63-25.42-15.61a22.09,22.09,0,0,0-14.05,6.67A31,31,0,0,0,246,544.83a52.17,52.17,0,0,0-1,18.92c.17,1.32.74,2.92.61,4.24s-1.7,2.34-2.65,3a20,20,0,0,1-6.69,3c-10.23,2.66-23.63.52-30.41,10.54-1.08,1.61,1.52,3.11,2.59,1.52Z"/><path class="cls-1" d="M249.17,570.09c6-.93,12-2.16,18.06-2.46a17.88,17.88,0,0,1,8,1.21,31.23,31.23,0,0,1,6.23,3.85c1.93,1.45,3.82,3,5.85,4.3a37.16,37.16,0,0,0,6.33,3.19c4.29,1.74,9.09,3.15,12.2,6.8a23.87,23.87,0,0,1,3.61,6.82c1.1,2.75,2.18,5.52,3.24,8.29,2.08,5.42,4.07,10.89,5.78,16.45a125.7,125.7,0,0,1,4,17.1,53.7,53.7,0,0,1,.84,8.66c0,2.46-.64,5.29-2.83,6.75-2.63,1.75-6.47,0-9.19-.68-3-.79-6.15-1.92-9.29-2.08a7,7,0,0,0-6.5,2.92,5,5,0,0,0,.31,6.26c1.33,1.41,3.44-.71,2.12-2.12s.61-3.5,2-3.89c2.62-.72,5.67.52,8.2,1.18,5,1.32,11.61,4.21,15.63-.56,3.68-4.37,2.53-10.66,1.8-15.85a120.63,120.63,0,0,0-4-17.59c-1.71-5.72-3.74-11.34-5.88-16.91-1.06-2.79-2.15-5.57-3.25-8.34a34,34,0,0,0-3.42-7.08c-2.86-4.1-7.27-6.12-11.79-7.9a55.69,55.69,0,0,1-6.63-2.9,49.61,49.61,0,0,1-6.12-4.22,44.1,44.1,0,0,0-6.93-4.64,19.81,19.81,0,0,0-8.75-2.06,67.8,67.8,0,0,0-9.84,1c-3.55.51-7.1,1.06-10.65,1.6-1.9.3-1.09,3.19.8,2.9Z"/><path class="cls-1" d="M220.56,575.3c-.71-4.78-1.47-9.58-1.87-14.4a12.75,12.75,0,0,1,.73-6.62,14.09,14.09,0,0,1,4.06-4.6c3.2-2.57,7.21-4.48,11.37-4.35a10.81,10.81,0,0,1,9,4.9c1,1.65,3.6.14,2.6-1.51-3.83-6.31-12-7.69-18.52-5.09a24.35,24.35,0,0,0-9.26,6.48c-2.76,3.2-3.31,6.91-3,11,.44,5,1.21,10,2,15,.29,1.9,3.18,1.09,2.89-.8Z"/><path class="cls-1" d="M294.5,657.33a255.25,255.25,0,0,1,4.17,58.4c-.08,1.93,2.92,1.93,3,0a258.31,258.31,0,0,0-4.28-59.2c-.36-1.89-3.25-1.09-2.89.8Z"/><path class="cls-1" d="M294.34,535.78a6,6,0,0,1,1.74-6.45c2-2,5-2.7,7.67-3.05,5.35-.7,11.39-.66,16.24,2a15.32,15.32,0,0,1,7.7,11.91c.47,5.28-2.29,9.86-4.32,14.52s-3.15,9.66-1,14.59c2,4.46,5.88,7.73,9.22,11.14a36,36,0,0,1,8.3,13.35,66.9,66.9,0,0,1,3.24,16.09c.6,6.38,1.12,13.43-2.15,19.23s-9.67,7.24-15.91,7.93c-1.89.21-1.92,3.22,0,3,5.9-.65,12.23-1.71,16.36-6.41s5.27-11.33,5.11-17.53c-.3-11.7-2.26-24.64-9.62-34.13-3.27-4.23-7.82-7.41-10.73-11.92a12.12,12.12,0,0,1-2.09-7.28,22.54,22.54,0,0,1,2.47-8c2.41-5.24,4.84-10.32,3.87-16.25a18.24,18.24,0,0,0-9-12.86c-5.87-3.23-13.36-3.3-19.81-2.11-3.23.6-6.48,1.94-8.57,4.57a8.78,8.78,0,0,0-1.68,8.43c.68,1.79,3.58,1,2.9-.8Z"/><path class="cls-1" d="M289.67,561.38c3.7,2.88,4.18,8,6.31,12a12.9,12.9,0,0,0,1.94,2.71,21,21,0,0,0,3.06,2.32c2.28,1.68,2.62,4.72,2.89,7.34.19,1.9,3.19,1.92,3,0-.29-2.81-.65-5.8-2.43-8.11a16,16,0,0,0-3.46-2.83,8.56,8.56,0,0,1-2.26-2.67c-2.42-4.23-2.85-9.66-6.93-12.83-1.5-1.17-3.64.94-2.12,2.12Z"/><path class="cls-1" d="M293.86,537.78a10.6,10.6,0,0,1,5.91-1.31c1.37.1,4,.53,4.56,2.1.29.87-.41,2-.56,2.89a6.49,6.49,0,0,0,3.2,6.74c1.45.81,3.59.91,4.38,2.56s.59,3.49,1.13,5.14a7.45,7.45,0,0,0,8.49,4.94c1.89-.33,1.09-3.23-.8-2.89a4.44,4.44,0,0,1-4.47-2.1c-.88-1.52-.75-3.45-1.2-5.11a5.89,5.89,0,0,0-3.17-4c-1.62-.78-3.55-1-4.36-2.82s.6-3.56.38-5.47a5.21,5.21,0,0,0-3.09-3.89,13.18,13.18,0,0,0-11.91.6c-1.7.93-.18,3.52,1.51,2.59Z"/><path class="cls-1" d="M291,537.41v.3a1.15,1.15,0,0,0,.13.58,1.11,1.11,0,0,0,.31.49,1.28,1.28,0,0,0,.48.31,1.14,1.14,0,0,0,.58.12l.4-.05a1.57,1.57,0,0,0,.66-.38l.23-.31a1.43,1.43,0,0,0,.21-.76v-.3a1.72,1.72,0,0,0-.44-1.06,1.24,1.24,0,0,0-.48-.31,1.27,1.27,0,0,0-.58-.13l-.4.06a1.57,1.57,0,0,0-.66.38l-.24.31a1.5,1.5,0,0,0-.2.75Z"/><path class="cls-1" d="M301.54,575.32c7.57-.26,14-4.52,20-8.73,1.57-1.1.07-3.7-1.52-2.59-5.52,3.86-11.52,8.08-18.5,8.32-1.93.07-1.94,3.07,0,3Z"/><path class="cls-1" d="M322.87,649.6a61.74,61.74,0,0,1,4.18,8.23c1.18,2.83,2.5,6,2.76,9,.19,2.23-.64,5.53-3.38,5.75-2.21.18-4.65-1.56-6.41.65a1.55,1.55,0,0,0,0,2.12,40.51,40.51,0,0,1,9.84,26.11,37.39,37.39,0,0,1-.58,7.08c-.35,1.94-.87,4.62-3.2,5s-5-.62-6.95-1.69a25.14,25.14,0,0,1-5.73-4.37c-4.25-4.23-7.4-9.4-11.78-13.51-1.4-1.32-3.53.8-2.12,2.12,4.37,4.11,7.53,9.29,11.78,13.51,3.7,3.68,8.87,7.23,14.35,7,5.94-.27,6.74-6.9,7.11-11.57a43.51,43.51,0,0,0-10.6-31.78v2.12c.61-.76,2.42,0,3.25.16a5.77,5.77,0,0,0,3.87-.8,8.15,8.15,0,0,0,3.58-7.42c-.13-3.39-1.46-6.77-2.72-9.89a67,67,0,0,0-4.66-9.37,1.5,1.5,0,0,0-2.59,1.52Z"/><path class="cls-1" d="M416.49,757.23l3.85-46.9c.41-5,.76-11.55-3.34-15.28-2.42-2.2-5.52-2.06-8.36-3.32a11.33,11.33,0,0,1-5.1-4.87c-2.8-4.91-3-10.82-2.65-16.33.54-7.69,2.39-15.21,4.17-22.69,3.24-13.54,6.57-27.35,13.51-39.55a40.5,40.5,0,0,1,5.37-7.78,14.57,14.57,0,0,1,8.17-4.42c3.12-.63,6.4-.91,9.2-2.59s4.6-4.64,7.32-6.49a17.37,17.37,0,0,1,17-1.35c5.25,2.42,9.4,6.6,13.77,10.27a51.89,51.89,0,0,0,6.74,5,67.29,67.29,0,0,0,8.29,3.77c2.75,1.17,5.58,2.57,7.44,5s2.69,5.79,3.27,8.88c2.84,15.08,5.05,30.43,5.53,45.78.18,5.69.24,14.28-6.54,16.34a7.29,7.29,0,0,1-4.26-.28,4,4,0,0,0-4,.92c-2.1,2.21-1.13,6.23-.92,8.9l3.69,47,.89,11.39c.15,1.91,3.15,1.93,3,0l-3.8-48.54-.93-11.89c-.11-1.34-.52-3.13,0-4.44.27-.67.6-.63,1.29-.49a24.23,24.23,0,0,0,2.68.62,10.15,10.15,0,0,0,7.81-3.19,14.92,14.92,0,0,0,3.87-8.58,59.33,59.33,0,0,0,.1-11.23q-.28-5.85-.89-11.68c-.79-7.92-1.95-15.8-3.25-23.64-1.05-6.33-1.47-14-6.16-18.92-4.35-4.53-11-5.5-16.19-8.74-9.68-6-17.27-17.76-30-16.86a20.47,20.47,0,0,0-9.28,2.94,19.59,19.59,0,0,0-3.41,2.67,41,41,0,0,1-3.89,3.8c-2.64,1.93-6.08,2.11-9.17,2.74a17.07,17.07,0,0,0-8.66,4.36,35.18,35.18,0,0,0-5.78,7.71,80.9,80.9,0,0,0-4.78,9.31,140.48,140.48,0,0,0-6.89,20.29c-1.93,7.22-3.71,14.51-5.25,21.83-1.44,6.88-2.76,14.18-2.05,21.23.53,5.22,2.18,11,6.32,14.49,2.33,2,4.9,2.58,7.78,3.35s4.43,2.75,5.11,5.58a25.5,25.5,0,0,1,.31,8c-.31,3.95-.65,7.9-1,11.85l-2,24.19-1,11.85c-.15,1.92,2.85,1.91,3,0Z"/><path class="cls-1" d="M476.73,764.46c.46-6.69,7.08-10.57,13-11.83a62.32,62.32,0,0,1,11.33-1,19.06,19.06,0,0,1,5.33.36,11.07,11.07,0,0,1,4.69,2.7c8.86,8.05,13.06,20.67,12.56,32.43a40.91,40.91,0,0,1-5.57,19.1,1.5,1.5,0,0,0,2.59,1.52c6.8-11.52,7.77-26.05,3.24-38.57A41.25,41.25,0,0,0,513,752.42a15.08,15.08,0,0,0-10.65-3.83,72,72,0,0,0-12.36.93c-7.7,1.38-15.7,6.4-16.28,14.94-.13,1.92,2.87,1.92,3,0Z"/><path class="cls-1" d="M437.59,592.3c-.87-4,1.34-8.12-.13-12.13-.7-1.89-2.08-3.32-3.21-4.94a18.79,18.79,0,0,1-2.6-5.32,19.14,19.14,0,0,1,.15-11.74c1.39-4.12,4.11-7.74,6.88-11a20.69,20.69,0,0,1,4.63-4.33,15.62,15.62,0,0,1,6-2.07,25.64,25.64,0,0,1,10.94.92,22.27,22.27,0,0,1,15.39,15.4c2.56,9.55-1,19.26-6.73,26.93-1.15,1.55,1.45,3,2.59,1.52,5.56-7.5,9-16.72,7.67-26.14a24.88,24.88,0,0,0-14.66-19.3c-7.5-3.32-17.69-4.06-24.42,1.36a31.52,31.52,0,0,0-4.78,5.08,50.08,50.08,0,0,0-4.11,5.82,23.34,23.34,0,0,0-3.42,12.93,23.59,23.59,0,0,0,5.28,13.39,8.9,8.9,0,0,1,1.71,3.1,10.41,10.41,0,0,1,.1,3.61c-.26,2.61-.78,5.13-.21,7.75.41,1.88,3.3,1.08,2.89-.8Z"/><path class="cls-1" d="M439.65,544.08c0,2,1.73,2.46,2.69,3.88,1.09,1.6.68,3.79.35,5.54s-.81,3.83-.29,5.69a4.36,4.36,0,0,0,3.73,3.22c1.87.21,3.6-.69,5.44-.67a5.16,5.16,0,0,1,4.09,2.67,15,15,0,0,1,1.78,5.86c.26,1.71.29,3.73,1.34,5.19,1.35,1.88,4,1.75,6.09,1.83a47.79,47.79,0,0,0,7.75-.35c1.89-.24,1.91-3.24,0-3a49.84,49.84,0,0,1-6.1.39c-1,0-2,0-3.06-.11-.77-.06-1.88.07-2.35-.66a6.64,6.64,0,0,1-.52-2.33c-.14-1-.27-1.9-.44-2.85a15.43,15.43,0,0,0-1.8-5.33,8,8,0,0,0-8.12-4.18c-1.2.18-3.5,1.21-4.54.24-1.2-1.12-.26-3.94,0-5.25a12.19,12.19,0,0,0,0-5.76,6.67,6.67,0,0,0-1.28-2.39c-.31-.36-1.74-1.22-1.74-1.63,0-1.93-3-1.93-3,0Z"/><path class="cls-1" d="M506.82,610.06a17.1,17.1,0,0,1,6.24-6.56c2.21-1.31,5.67-1.73,6.86-4.3,1.36-3-1.37-5.5-3.67-6.86-2.11-1.24-4.7-2-6.51-3.66-2.33-2.18-1.22-5.76-2.34-8.52-1-2.5-3.22-4.58-3.79-7.24-.35-1.68.33-3.31,1-4.83s1.4-3.29,2.18-4.9a28,28,0,0,1,5.74-8.27A23.09,23.09,0,0,1,529,548.78,22.38,22.38,0,0,1,544,555.7c4.59,4.74,6.4,10.91,6.48,17.4.1,7.27-1.43,14.47-1,21.75.11,2,.57,4,.51,6,0,1.32-.69,3.64-2.45,3.5-.94-.07-1.88-1.07-2.56-1.63s-1.58-1.39-2.33-2.12a45.29,45.29,0,0,1-3.78-4.29,12.7,12.7,0,0,0-3.55-3.42,9.75,9.75,0,0,0-5.53-.93,54.72,54.72,0,0,0-12.24,2.21c-1.85.55-1.06,3.44.79,2.89A51.37,51.37,0,0,1,530,594.94c1.74-.1,3.35,0,4.71,1.18a32.38,32.38,0,0,1,3.23,3.78,39.28,39.28,0,0,0,4.07,4.19c1.27,1.13,2.71,2.55,4.38,3.06,3.37,1,6.1-2.12,6.51-5.19a27.14,27.14,0,0,0-.32-5.76,46.34,46.34,0,0,1-.13-5.65c.12-3.88.59-7.73.87-11.6.5-7.07.21-14.4-3.53-20.64A26.3,26.3,0,0,0,535.83,547a25.3,25.3,0,0,0-18.61,1.16c-6.4,2.91-10.63,8.22-13.53,14.48-1.45,3.11-3.59,6.8-3.09,10.35.44,3.06,2.7,5.24,3.91,8,.73,1.62.58,3.36.8,5.07a7.68,7.68,0,0,0,1.8,4.21c1.74,2,4.35,2.93,6.64,4.12,1.16.61,2.69,1.36,3.32,2.59s-1.11,1.95-2.12,2.34a19.7,19.7,0,0,0-10.72,9.23c-.91,1.7,1.67,3.21,2.59,1.51Z"/><path class="cls-1" d="M514.29,553.64A41.4,41.4,0,0,1,519,564.42c.86,3.12.81,7.22,4.09,8.9,2.56,1.31,6.1.79,7.38,3.87a15.68,15.68,0,0,1,.85,4.34,41.7,41.7,0,0,0,.89,5.46,35.35,35.35,0,0,0,5.21,11.59c1.08,1.58,3.68.09,2.59-1.51a33,33,0,0,1-4.75-10.25c-.86-3.27-.7-6.78-1.74-10a7.69,7.69,0,0,0-2.32-3.64,9.9,9.9,0,0,0-4.25-1.78c-1.32-.3-2.91-.55-3.59-1.88-.8-1.55-.86-3.6-1.29-5.27a44.56,44.56,0,0,0-5.19-12.15c-1-1.64-3.6-.13-2.59,1.52Z"/><path class="cls-1" d="M543.75,607c4.94,14.73,7.5,31.9-1.07,45.85a26.32,26.32,0,0,0-2.54,4.7,15.05,15.05,0,0,0-.58,5.43c0,1.87,0,3.63-1.12,5.2s-2.44,2.66-3.22,4.32c-1.52,3.26-.91,6.92.13,10.22,1.16,3.68,2.62,7.22,3.54,11a65.3,65.3,0,0,1,.86,26.95c-.34,1.88,2.55,2.69,2.89.79a69.38,69.38,0,0,0,.08-24.05,67.47,67.47,0,0,0-3.14-11.69c-1.19-3.23-2.93-7-2.12-10.56.43-1.86,1.69-3.08,2.85-4.51a9.14,9.14,0,0,0,2.14-4.69c.25-1.92-.06-3.84.14-5.75a12.14,12.14,0,0,1,2.13-5,44.15,44.15,0,0,0,6.55-21.52c.46-9.37-1.67-18.68-4.63-27.51-.61-1.83-3.51-1-2.89.79Z"/><path class="cls-1" d="M522.53,621.61a12.4,12.4,0,0,1,6-11A15.74,15.74,0,0,1,535,608.4c1.86-.2,4.91-.6,6,1.33s1.39,4.79,1.65,7a52.3,52.3,0,0,1,.29,7.61,152,152,0,0,1-1.5,15.21,105.42,105.42,0,0,0-1.18,17.56c.08,1.93,3.08,1.94,3,0-.48-11.76,2.79-23.27,2.7-35a48.22,48.22,0,0,0-.8-8.64c-.44-2.37-.94-5.32-2.92-6.93s-4.91-1.39-7.2-1.16a19.34,19.34,0,0,0-7.33,2.23,15.5,15.5,0,0,0-8.13,14c.09,1.92,3.09,1.93,3,0Z"/><path class="cls-1" d="M519.41,621.94c.16,12.37,1.36,24.7,1.51,37.07.13,11.9-.91,23.71-4.4,35.13a96.75,96.75,0,0,1-7.6,18.06c-.93,1.69,1.66,3.21,2.59,1.51a99.71,99.71,0,0,0,11.11-33c1.84-12.36,1.37-24.87.71-37.31-.39-7.15-.82-14.31-.92-21.47a1.5,1.5,0,0,0-3,0Z"/><path class="cls-1" d="M508.88,712.46c-3.63,5.48-7.38,11.4-7.26,18.23.05,2.76.71,6.13,2.61,8.26,2.24,2.5,5.19,1,6.81-1.29a81.36,81.36,0,0,0,5.06-9.09q2.4-4.55,4.65-9.15,4.68-9.6,8.73-19.49,4.51-11,8.2-22.32c.6-1.84-2.29-2.63-2.89-.8A318.44,318.44,0,0,1,521,712q-3.91,8.46-8.33,16.69-1.1,2.06-2.23,4.09a21.87,21.87,0,0,1-2.17,3.64c-.89,1-1.54,1-2.22-.16a11.28,11.28,0,0,1-1.27-3.92c-1-6.82,3.15-13,6.73-18.38,1.07-1.61-1.53-3.12-2.59-1.51Z"/><path class="cls-1" d="M539.62,720.62c-.52,4.3-2.38,8.31-3.82,12.36a45.5,45.5,0,0,0-2.51,12.76c-.52,8.9,1,18-.6,26.83-.34,1.88-.89,4.12-2.5,5.34-1.07.82-3.17,1.2-4.07-.07-1.11-1.56-3.72-.06-2.59,1.52,2.25,3.16,6.91,2.83,9.4.08,2.94-3.25,3.15-8.42,3.36-12.56.52-10.17-1.4-20.63,1.56-30.56,1.57-5.27,4.1-10.18,4.77-15.7.23-1.92-2.77-1.9-3,0Z"/><path class="cls-1" d="M389.34,554c-9.75,4.07-20.58,8.8-26.23,18.28-3.29,5.51-3.85,11.9-4.34,18.17q-.87,10.89-1.72,21.79c-.59,7.36-1.33,14.74-1.68,22.12A54.23,54.23,0,0,0,358,654.87c2.17,6.33,4.75,12.45,6.44,18.94A111,111,0,0,1,362,737.52c-.63,1.83,2.27,2.62,2.9.8a114.16,114.16,0,0,0-1.07-76.46c-2.41-6.46-5-12.79-5.44-19.74s.41-14,1-20.93l1.72-21.79c.27-3.43.54-6.87.82-10.3a50.45,50.45,0,0,1,1.48-9.79c3.45-12.2,16-17.89,26.77-22.38a1.54,1.54,0,0,0,1.05-1.84,1.5,1.5,0,0,0-1.84-1.05Z"/><path class="cls-1" d="M389,557.5c4.77-.26,6-5,7.18-8.76a47.73,47.73,0,0,1,6-12.29,24.74,24.74,0,0,1,4-4.85,10,10,0,0,1,6.14-2.37c3.42-.22,9.9-.67,10.9,3.71.43,1.88,3.32,1.09,2.89-.8-.78-3.43-4.05-5.26-7.31-5.72-3.48-.5-7.68-.59-11,.72s-5.71,4.18-7.74,7.07a50.86,50.86,0,0,0-5.52,10.21c-.79,2-1.38,4-2,6-.53,1.69-1.47,4-3.53,4.07s-1.93,3.11,0,3Z"/><path class="cls-1" d="M458.51,536.6c-7.11-8.73-20.31-11.53-30.23-6.1a25.1,25.1,0,0,0-10.73,11.67,24.24,24.24,0,0,0-2.06,8c-.28,3.49.47,7-.12,10.49-.95,5.55-5.56,9.17-10.28,11.62-5,2.61-10.57,4-15.61,6.61-5.39,2.77-9.51,6.86-11.39,12.71a61,61,0,0,0-1.94,9.75q-.78,5.35-1.27,10.76a195.67,195.67,0,0,0,1.94,49.77c.31,1.9,3.21,1.1,2.89-.8a192.33,192.33,0,0,1-2.29-42.67,178.77,178.77,0,0,1,2.32-20.64,27.13,27.13,0,0,1,2.75-8.86,17.26,17.26,0,0,1,5.61-5.76c8.82-5.79,20.83-6.47,27.46-15.49a15.27,15.27,0,0,0,2.88-7.51c.37-3.32-.22-6.65.05-10a21.72,21.72,0,0,1,6.73-13.7,20.61,20.61,0,0,1,16-5.68,22,22,0,0,1,15.2,8c1.22,1.49,3.33-.64,2.12-2.13Z"/><path class="cls-1" d="M377,663.88a433.54,433.54,0,0,1-.69,61.9q-.72,8.73-1.8,17.43c-.24,1.91,2.77,1.89,3,0a434.45,434.45,0,0,0,3.2-61.82q-.18-8.76-.71-17.51c-.11-1.92-3.11-1.93-3,0Z"/><path class="cls-1" d="M412.52,573.14A28.12,28.12,0,0,0,421.1,584a17.77,17.77,0,0,0,13.63,3.28c1.89-.35,1.09-3.24-.8-2.89-8.7,1.6-15.45-5.65-18.82-12.78-.83-1.74-3.42-.22-2.59,1.51Z"/><path class="cls-1" d="M392.67,556.93c7.12.65,14.91-2.07,21.72.9,1.75.76,3.28-1.83,1.51-2.59-7.5-3.27-15.42-.6-23.23-1.31-1.92-.18-1.91,2.82,0,3Z"/><path class="cls-1" d="M882.36,582.35A68.81,68.81,0,0,1,859.45,590a1.52,1.52,0,0,0-1.05,1.85,1.54,1.54,0,0,0,1.85,1,71.37,71.37,0,0,0,23.62-7.93c1.7-.93.19-3.52-1.51-2.59Z"/><path class="cls-1" d="M537.24,760.84c10.16,2.9,20.46,5.7,31,6.55a63.6,63.6,0,0,0,15.41-.52c4.66-.76,10-2,13.9-4.79a10.79,10.79,0,0,0,4.18-5.56,30.55,30.55,0,0,0,1-7.31l1.34-17.45,1.34-17.44c.43-5.6,1-11.26.31-16.87s-2.43-11.13-4-16.62-2.9-11.32-2.12-17.1a1.54,1.54,0,0,0-1-1.84,1.51,1.51,0,0,0-1.85,1.05c-1.36,10,2.67,19.33,4.93,28.89,2.5,10.57.81,21.52,0,32.21l-1.28,16.7-.65,8.47c-.18,2.42-.19,5.07-1.23,7.31-1.94,4.22-7.7,5.65-11.79,6.66a54.74,54.74,0,0,1-14.93,1.42c-11.53-.38-22.78-3.5-33.8-6.65a1.5,1.5,0,0,0-.8,2.89Z"/><path class="cls-1" d="M541.34,761.85c-.64,3.73.61,7.1,1.74,10.59a35.09,35.09,0,0,1,1.29,11.27l0,24.65a1.5,1.5,0,0,0,3,0l0-24.15c0-3.72.09-7.46-.94-11.07-.95-3.37-2.81-6.89-2.2-10.49.32-1.89-2.57-2.7-2.89-.8Z"/><path class="cls-1" d="M564,767.58c-1.28,12.68.92,25.51,2.39,38.08.23,1.9,3.23,1.92,3,0-1.47-12.57-3.67-25.4-2.39-38.08.2-1.92-2.8-1.91-3,0Z"/><path class="cls-1" d="M575.85,768c.11,3.12,1.34,5.9,2.64,8.68a67.72,67.72,0,0,1,3.53,9,64.76,64.76,0,0,1,2.83,19.11,1.5,1.5,0,0,0,3,0A66.6,66.6,0,0,0,581.93,777c-1.3-2.89-3-5.76-3.08-9-.07-1.92-3.07-1.93-3,0Z"/><path class="cls-1" d="M591.88,764a30.92,30.92,0,0,0,3.86,8.93,50.83,50.83,0,0,1,4.15,9,44.22,44.22,0,0,1,1.9,19.87,1.57,1.57,0,0,0,1.05,1.85,1.51,1.51,0,0,0,1.84-1,47.54,47.54,0,0,0-1.62-20.63,48.59,48.59,0,0,0-4.1-9.38c-1.68-3-3.48-5.93-4.19-9.33-.39-1.89-3.28-1.09-2.89.79Z"/><path class="cls-1" d="M599.12,665.68a13.37,13.37,0,0,0-1.65-10.25c-2-3.06-5.63-5.3-6.51-9-.83-3.49,2.62-5.24,5-7a16.74,16.74,0,0,0,5.9-8.14c1.56-4.44,1.46-9.25,1.34-13.9,0-1.92-3-1.93-3,0,.11,4.13.24,8.36-1,12.35a14.34,14.34,0,0,1-5.77,7.81c-2.53,1.78-5.2,3.73-5.55,7.06-.38,3.71,2.13,6.74,4.49,9.28a15.25,15.25,0,0,1,3.54,5,10.4,10.4,0,0,1,.33,6c-.44,1.88,2.45,2.68,2.9.8Z"/><path class="cls-1" d="M602.46,619c1.1-8.32,2.09-17.72-3.08-25a21.58,21.58,0,0,0-3.76-3.94,16.93,16.93,0,0,1-3.53-3.49c-1-1.57-.64-3.06.17-4.63a18.51,18.51,0,0,0,2.2-5.42c.7-4.21-.55-8.38-2.2-12.22-.78-1.81-1.58-3.66-3.47-4.53a17.49,17.49,0,0,0-6-1.11c-7.92-.54-16.15,2.14-21.14,8.54a19.13,19.13,0,0,0-3,5.36,47.37,47.37,0,0,0-1.45,7.28c-.93,4.88-3.69,9-6.42,13.06-1.08,1.6,1.51,3.1,2.59,1.51a49.16,49.16,0,0,0,5.77-10.33c1.4-3.8,1.12-8,2.81-11.73,3.14-6.84,10.41-10.47,17.69-10.74a28.22,28.22,0,0,1,6,.39,4.54,4.54,0,0,1,2.43.88,8,8,0,0,1,1.38,2.53c1.5,3.47,2.84,7.55,1.85,11.33-.89,3.39-3.9,6.09-2.57,9.85,1.07,3,3.93,4.77,6.17,6.86,6.95,6.51,5.63,17.06,4.51,25.54a1.5,1.5,0,0,0,3,0Z"/><path class="cls-1" d="M548.8,606.15a12.25,12.25,0,0,0,5.43,8.77c3.37,2.37,7.57,3.14,11.57,3.65,8.43,1,17.52.86,25.74-1.44,3.9-1.1,7.7-3,10.29-6.16,1.21-1.49-.9-3.62-2.12-2.12-2.58,3.2-6.35,4.78-10.26,5.72a62.4,62.4,0,0,1-14.54,1.56,50.6,50.6,0,0,1-14.76-1.71c-3.83-1.18-7.9-3.93-8.35-8.27-.2-1.9-3.21-1.92-3,0Z"/><path class="cls-1" d="M598.74,638.23a17.29,17.29,0,0,1,8.88,1.12,16.7,16.7,0,0,1,3.42,1.93c1.22.88,2.21,2.11,3.58,2.77,2.55,1.23,4.79-.44,5.53-2.91a23.39,23.39,0,0,0,.54-3.83,27.14,27.14,0,0,1,1.1-5c1.87-5.8,6.39-10.68,12.75-11,3.69-.18,7.35.31,11.05.06,3.52-.24,7-.7,10.57-.7,6.68,0,13.83,1.12,19.86,4.12,5.13,2.56,9.69,7.2,9.63,13.29,0,3.13-1.7,5.54-3.5,8a20.15,20.15,0,0,0-4,8.46,59.88,59.88,0,0,0-.69,10c-.06,3.68,0,7.36.14,11,.58,16.42,2.48,32.82,1.49,49.26-.12,1.93,2.88,1.92,3,0,.91-15-.61-30.07-1.32-45.09-.35-7.35-.7-14.85,0-22.19a17.71,17.71,0,0,1,3.38-9.15c1.8-2.48,3.74-4.89,4.29-8,1.05-6-2-11.84-6.64-15.47-5.12-4-11.76-5.83-18.1-6.7a54.32,54.32,0,0,0-10.89-.41c-3.69.23-7.36.75-11.07.73s-7.25-.63-10.79.31a16,16,0,0,0-7.44,4.59,21.76,21.76,0,0,0-4.91,9.11,33.17,33.17,0,0,0-1,5.23c-.09.9,0,3-.9,3.62s-2.88-1.67-3.55-2.19a19.4,19.4,0,0,0-4.41-2.55,19.62,19.62,0,0,0-10-1.38c-1.89.25-1.91,3.25,0,3Z"/><path class="cls-1" d="M596.84,657c8.91,2,16.65-6.9,19.24-14.46.63-1.83-2.27-2.62-2.89-.8a21.74,21.74,0,0,1-6.07,9.06c-2.52,2.27-6,4.09-9.48,3.3-1.88-.42-2.68,2.47-.8,2.9Z"/><path class="cls-1" d="M638.21,617.9a3.16,3.16,0,0,0,1.52-3.71,4.62,4.62,0,0,0-3.38-3.18c-1.66-.55-3.22-.69-4.48-2a10,10,0,0,1-2.1-4.11,46.11,46.11,0,0,1-1.48-10.65c-.16-3.69.07-7.59,1.91-10.88,3.81-6.85,13.51-8.49,20.61-7.24a16.61,16.61,0,0,1,10,5.44c2.77,3.31,3,7.46,2.66,11.59-.22,2.45-.59,4.9-.67,7.36s.56,4.94,0,7.26c-.53,2.07-2.43,3.33-3.32,5.22a4.91,4.91,0,0,0,.53,5.52c1.27,1.46,3.38-.67,2.12-2.12s.94-3.41,1.68-4.34a9.4,9.4,0,0,0,2.18-5.56c.12-2.22-.24-4.44-.13-6.67s.47-4.6.66-6.9c.35-4.24,0-8.56-2.53-12.14a18.27,18.27,0,0,0-9.18-6.73c-7.31-2.5-17.09-1.58-23.29,3.25-6.57,5.12-6.74,13.73-5.86,21.31.44,3.83.85,8.12,3.15,11.36a8.71,8.71,0,0,0,4.26,3.28c1,.35,2.3.37,3.18,1a1.08,1.08,0,0,1,.54.66,1,1,0,0,1,.05.4c0,.17.32-.17-.15,0-1.75.81-.23,3.39,1.51,2.59Z"/><path class="cls-1" d="M655.21,617.79a17,17,0,0,1-.12-6.74c.52-2,1.49-3.69,1-5.83-1-4.16-5.27-5.52-8.26-7.93-3.41-2.76-2.9-7-3.35-10.91a6.54,6.54,0,0,0-2.59-4.84c-1.6-1.2-2.77-2.74-2.42-4.86.32-1.89-2.58-2.7-2.89-.8a7.84,7.84,0,0,0,1.17,5.81c1.07,1.55,3.16,2.24,3.62,4.15s.25,4.21.56,6.26a12.22,12.22,0,0,0,2.16,5.61,16.22,16.22,0,0,0,4.7,3.81c1.63,1,3.49,2.13,4.24,4s-.76,4.1-1,6a24.08,24.08,0,0,0,.36,7c.29,1.9,3.18,1.09,2.89-.8Z"/><path class="cls-1" d="M635.82,615.78a9.2,9.2,0,0,0-3.49,3.18,1.5,1.5,0,0,0,1.69,2.2,1.59,1.59,0,0,0,.9-.69,5.74,5.74,0,0,1,.36-.5l-.23.3a7.72,7.72,0,0,1,1.34-1.34l-.3.23a8.5,8.5,0,0,1,1.25-.79,1.54,1.54,0,0,0,.69-.89,1.5,1.5,0,0,0-1-1.85,1.67,1.67,0,0,0-1.16.15Z"/><path class="cls-1" d="M601,743.38a9.19,9.19,0,0,0,2.86,8.45c2.84,2.5,6.81,2.46,10.37,2.75l25.75,2.09c1.92.16,1.91-2.84,0-3l-22.28-1.81-5.45-.45a16.17,16.17,0,0,1-4.69-.78,6,6,0,0,1-3.67-6.45c.32-1.89-2.57-2.7-2.89-.8Z"/><path class="cls-1" d="M644.48,570.39c-2.05-1.09-2.58-3.7-3.42-5.68a10.1,10.1,0,0,0-5-5.48,28.38,28.38,0,0,0-8.13-2,38.25,38.25,0,0,0-9-.51c-2.8.26-5.9,1-8.11,2.82-2.69,2.22-1.62,5.79-1.71,8.84a34,34,0,0,1-.56,5.22,40.32,40.32,0,0,0-1,4.84c-.16,2.9,2.4,4.81,2.35,7.62,0,1.44-.26,2.93.38,4.28a5.12,5.12,0,0,0,3.64,2.52,21.71,21.71,0,0,0,11.23,0,1.51,1.51,0,0,0-.8-2.9,18.59,18.59,0,0,1-8.74.27c-1.05-.23-2.56-.38-2.76-1.65s.13-2.4,0-3.58a8.06,8.06,0,0,0-1.07-3.11c-.59-1.09-1.36-2.11-1.25-3.41a41.29,41.29,0,0,1,.89-4.05,41.92,41.92,0,0,0,.59-4.6,37.49,37.49,0,0,0,.05-4.24c-.06-1.33-.48-2.82.71-3.76,2-1.58,4.91-2.06,7.37-2.15a42.52,42.52,0,0,1,7.8.61,22.69,22.69,0,0,1,6.9,1.71c2.3,1.16,3.18,3.14,4.07,5.43s1.85,4.4,4,5.57c1.71.91,3.22-1.68,1.52-2.59Z"/><path class="cls-1" d="M614.61,594.18c-5,15.77.48,32.18-.26,48.24-.09,1.93,2.91,1.93,3,0,.72-15.76-4.72-32,.15-47.44.59-1.85-2.31-2.64-2.89-.8Z"/><path class="cls-1" d="M611.37,563.75a3.18,3.18,0,0,0,1.89,2.84c1,.5,2.2.39,3.27.78,2.14.78,2.69,2.81,3.9,4.51a5.55,5.55,0,0,0,2.42,2,27.37,27.37,0,0,0,3.39.79,14.62,14.62,0,0,1,6.07,3.34c1.43,1.3,3.55-.81,2.12-2.12a18.35,18.35,0,0,0-5.67-3.54,16.44,16.44,0,0,0-3-.86,3.91,3.91,0,0,1-2.62-1c-1.24-1.47-1.74-3.34-3.27-4.61a8,8,0,0,0-2.82-1.51c-.39-.11-2.66-.28-2.67-.63-.07-1.93-3.07-1.94-3,0Z"/><path class="cls-1" d="M636.85,558.07c2.33-7.49,12.64-9.88,19.43-8.43a14.83,14.83,0,0,1,9.17,5.8c2.41,3.48,2.65,7.8,1.64,11.81-1.24,4.86-4.14,9.07-6.92,13.17-1.09,1.6,1.51,3.1,2.59,1.51,5.26-7.75,11.37-18.16,5.69-27.39-5.07-8.22-16.19-10-24.72-6.72-4.42,1.71-8.33,4.81-9.78,9.45-.57,1.85,2.32,2.64,2.9.8Z"/><path class="cls-1" d="M641.45,562.88c3.07.18,5.77-1.21,8.67-2,1.84-.48,4.69-.65,5.87,1.21s.64,4.36,2.44,6a6.53,6.53,0,0,0,3.75,1.32,40.89,40.89,0,0,0,5.19.36,1.5,1.5,0,0,0,0-3,36.17,36.17,0,0,1-5-.34c-1.44-.2-2.2-.48-2.58-1.92-.61-2.29-.91-4.44-3.07-5.82a9.28,9.28,0,0,0-6.76-.88c-2.89.57-5.51,2.18-8.52,2-1.93-.11-1.92,2.89,0,3Z"/><path class="cls-1" d="M688.37,603.86c-.18.14-.87-.52-1-.69a7.7,7.7,0,0,1-.78-1.87,8.47,8.47,0,0,0-2.73-3.83,13.12,13.12,0,0,1-4.77-6.79c-1.55-5.44-.68-11.73,1.41-16.91s6.23-9.89,11.83-11.61,11.55-.31,15.21,4.42c4.66,6,4.51,14,3.91,21.23-.16,1.93,2.84,1.92,3,0,.63-7.56.6-15.83-4-22.28a16.56,16.56,0,0,0-17.5-6.64c-6.87,1.51-12.16,6.67-14.91,13-2.65,6.08-3.76,13.67-1.7,20.1a15.48,15.48,0,0,0,2.5,4.84c1.2,1.54,3,2.47,4.19,4s1.13,3.66,2.73,5a3.58,3.58,0,0,0,4.7.16c1.52-1.18-.61-3.29-2.12-2.12Z"/><path class="cls-1" d="M692.69,606.45a93.92,93.92,0,0,1,20.52-15c1.7-.91.19-3.5-1.51-2.59a97.33,97.33,0,0,0-21.13,15.42c-1.4,1.34.73,3.46,2.12,2.12Z"/><path class="cls-1" d="M689.12,606.55a40.2,40.2,0,0,0-1.61,13c.13,4.2.44,8.66-2.07,12.29-1.1,1.59,1.5,3.1,2.59,1.52,2.52-3.64,2.66-8.13,2.53-12.39A41.41,41.41,0,0,1,692,607.35c.56-1.86-2.33-2.65-2.89-.8Z"/><path class="cls-1" d="M692.45,636c-.2,4-.12,8.65,3,11.57a1.53,1.53,0,0,0,2.12,0,1.51,1.51,0,0,0,0-2.12c-.16-.16-.33-.32-.48-.49s-.13-.15-.19-.22.1.15,0-.05a8.17,8.17,0,0,1-.68-1.14l-.07-.16a2.34,2.34,0,0,0-.09-.24c-.07-.19-.13-.38-.19-.57a12.38,12.38,0,0,1-.31-1.34c0-.1,0-.2,0-.3s0-.23,0-.07c0-.23,0-.46-.07-.7,0-.45-.06-.89-.07-1.34,0-.94,0-1.89.07-2.83a1.5,1.5,0,0,0-3,0Z"/><path class="cls-1" d="M715.24,647.37A28.38,28.38,0,0,1,707.9,646a58.35,58.35,0,0,0-7.52-1.56,59.89,59.89,0,0,0-15.31-.17c-1.89.23-1.91,3.23,0,3a57,57,0,0,1,15.44.2,64.22,64.22,0,0,1,7.25,1.6,28.41,28.41,0,0,0,7.48,1.34,1.5,1.5,0,0,0,0-3Z"/><path class="cls-1" d="M681.32,661.18c11.27,4.52,23.39,9.27,35.76,7.78a20.4,20.4,0,0,0,7.75-2.09c2.44-1.4,3.66-3.7,4.52-6.29a50.22,50.22,0,0,0,2.44-17,51.63,51.63,0,0,0-4.15-18.81,1.5,1.5,0,1,0-2.59,1.51,48.14,48.14,0,0,1,2.15,31c-.63,2.37-1.25,5.25-3.4,6.72-2,1.35-4.63,1.74-6.95,2a46.34,46.34,0,0,1-16.61-1.42,140.12,140.12,0,0,1-18.12-6.28c-1.79-.72-2.57,2.18-.8,2.89Z"/><path class="cls-1" d="M714.91,592.35c3.05-.25,5.74,1.41,8,3.31a30.84,30.84,0,0,1,5.72,6.45c3.41,5.09,5.54,10.84,7.42,16.64,1,3.12,2,6.26,3,9.36s2.36,6.29,3.34,9.5a35.2,35.2,0,0,1,.47,18.72c-1.72,7.18-5,13.84-8.56,20.26-.93,1.7,1.66,3.21,2.59,1.52,6.57-11.94,12.52-25.48,9-39.33-.86-3.32-2.13-6.51-3.28-9.72-1.22-3.38-2.27-6.81-3.37-10.22-2-6.26-4.24-12.56-7.9-18.08a33.6,33.6,0,0,0-6.76-7.61c-2.75-2.21-6-4.1-9.66-3.8-1.91.16-1.93,3.16,0,3Z"/><path class="cls-1" d="M733.4,676.83a11.62,11.62,0,0,0-4.52,3.33c-1.36,1.88-1.13,4.05-.67,6.19a60.07,60.07,0,0,1,1.27,14.9c-.37,10-2.93,19.8-6.22,29.22-1.88,5.38-4,10.68-6.12,16-.72,1.8,2.18,2.57,2.89.8,7.08-17.61,14.36-36.31,12.08-55.68-.15-1.3-.34-2.61-.58-3.9a21.74,21.74,0,0,1-.72-4.06c0-2.26,2.34-3.31,4.1-4.17s.22-3.43-1.51-2.59Z"/><path class="cls-1" d="M717.59,747.28A410.64,410.64,0,0,1,716.42,793c-.15,1.93,2.85,1.92,3,0a410.64,410.64,0,0,0,1.17-45.74c-.06-1.93-3.06-1.94-3,0Z"/><path class="cls-1" d="M682,681.88c15.38-1.39,30.42,3.57,45.77,3.07,1.93-.06,1.94-3.06,0-3-15.35.5-30.39-4.46-45.77-3.07-1.9.18-1.92,3.18,0,3Z"/><path class="cls-1" d="M-56.68,191.08C-2.16,233.49,64.72,254,130.24,272.55,206,294,281.84,315.59,359,331.33c72.06,14.69,145.23,23.52,218.78,25.26A1114.2,1114.2,0,0,0,793.68,341c71.48-12.35,141.74-32.14,208.79-59.9q11.76-4.87,23.4-10.06c1.76-.78.24-3.37-1.51-2.59a972.23,972.23,0,0,1-204.95,64.72A1094.79,1094.79,0,0,1,604.9,353.91,1205.89,1205.89,0,0,1,388.71,334c-76.55-14-151.7-34.51-226.54-55.58C95.6,259.71,26.43,242.39-32.42,204.63Q-43.83,197.3-54.56,189c-1.51-1.17-3.64.94-2.12,2.13Z"/><path class="cls-1" d="M-58.72,214.2c59.49,40.14,132,51.9,202.37,55.48,39,2,78.18,2.07,117.23,1.3,42.05-.82,84.1-3.19,125.87-8.29,76.17-9.29,150.43-28.88,221.94-56.57,70-27.09,137-61.2,201.94-98.63,65.9-38,129.73-79.44,193.18-121.35q12-7.92,24-15.86c1.6-1.07.1-3.66-1.51-2.59C963.71,9.12,901,50.45,836.51,88.84s-131,74-200.4,103S494.32,243.16,419.92,255c-81.19,13-164,14.73-246.07,12.76-70.95-1.71-145.16-8.39-208.73-42.65C-42.55,221-50,216.48-57.21,211.61c-1.6-1.09-3.11,1.51-1.51,2.59Z"/><path class="cls-1" d="M71.86-15.67c53,37.34,106.8,73.85,163.66,105.16,57.67,31.76,118.11,56.72,181.7,73.87,67.25,18.13,136.06,31.11,204.47,44q103.84,19.51,208.53,34.15,51.33,7.08,102.83,12.76c34.64,3.81,69.55,7.3,104.43,5.09,8.11-.51,16.17-1.37,24.21-2.52,1.9-.27,1.09-3.17-.8-2.89-34.46,5-69.37,3.18-103.9-.17-34.8-3.37-69.52-7.65-104.18-12.22-69.38-9.16-138.5-20.24-207.34-32.83-68.05-12.45-136.27-25.46-203.46-42-32.78-8.09-65.26-17.48-96.88-29.35a798.36,798.36,0,0,1-89.19-40.25C199.23,67.39,145.66,32.16,93.2-4.38Q83.26-11.3,73.37-18.27c-1.58-1.11-3.08,1.49-1.51,2.6Z"/><path class="cls-1" d="M119,16.75A7.52,7.52,0,0,0,107.57,18a10.19,10.19,0,0,0-.11,11c2.48,3.86,7,6,11.35,6.81,2.39.45,4.76.3,6.39-1.7A9,9,0,0,0,127,27.89a13.6,13.6,0,0,0-8.63-11.72,1.5,1.5,0,1,0-.8,2.89,10.52,10.52,0,0,1,6.18,7.28,8,8,0,0,1-.13,4.64,2.9,2.9,0,0,1-3.42,2.08c-5.73-.78-13.39-5.2-10.8-12A5.23,5.23,0,0,1,112,18a4.55,4.55,0,0,1,4.81.87c1.43,1.29,3.56-.82,2.12-2.12Z"/><path class="cls-1" d="M166,48.52a7.52,7.52,0,0,0-11.39,1.3,10.15,10.15,0,0,0-.11,11c2.48,3.87,7,6,11.35,6.82,2.39.45,4.76.3,6.39-1.7A9.05,9.05,0,0,0,174,59.66,13.58,13.58,0,0,0,165.37,48a1.51,1.51,0,0,0-1.85,1,1.53,1.53,0,0,0,1,1.84,10.5,10.5,0,0,1,6.18,7.28,8,8,0,0,1-.13,4.64,2.9,2.9,0,0,1-3.42,2.08c-5.73-.78-13.39-5.2-10.8-12.05a5.25,5.25,0,0,1,2.64-3,4.57,4.57,0,0,1,4.81.87c1.43,1.3,3.56-.82,2.12-2.12Z"/><path class="cls-1" d="M226,81.52a7.52,7.52,0,0,0-11.39,1.3,10.15,10.15,0,0,0-.11,11c2.48,3.87,7,6,11.35,6.82,2.39.45,4.76.3,6.39-1.7A9.05,9.05,0,0,0,234,92.66,13.58,13.58,0,0,0,225.37,81a1.51,1.51,0,0,0-1.85,1,1.53,1.53,0,0,0,1,1.84,10.5,10.5,0,0,1,6.18,7.28,8,8,0,0,1-.13,4.64,2.9,2.9,0,0,1-3.42,2.08c-5.73-.78-13.39-5.2-10.8-12a5.25,5.25,0,0,1,2.64-3,4.57,4.57,0,0,1,4.81.87c1.43,1.3,3.56-.82,2.12-2.12Z"/><path class="cls-1" d="M294.11,116.86a7.52,7.52,0,0,0-11.39,1.3,10.17,10.17,0,0,0-.11,11c2.48,3.87,7,6,11.36,6.82,2.38.45,4.75.3,6.38-1.7a9.05,9.05,0,0,0,1.79-6.27,13.58,13.58,0,0,0-8.63-11.71,1.51,1.51,0,0,0-1.85,1,1.53,1.53,0,0,0,1,1.84,10.48,10.48,0,0,1,6.18,7.28,8,8,0,0,1-.13,4.64,2.9,2.9,0,0,1-3.42,2.08c-5.73-.78-13.38-5.2-10.8-12.05a5.28,5.28,0,0,1,2.64-3A4.59,4.59,0,0,1,292,119c1.43,1.3,3.56-.82,2.12-2.12Z"/><path class="cls-1" d="M370.11,146.86a7.52,7.52,0,0,0-11.39,1.3,10.17,10.17,0,0,0-.11,11c2.48,3.87,7,6,11.36,6.82,2.38.45,4.75.3,6.38-1.7a9.05,9.05,0,0,0,1.79-6.27,13.58,13.58,0,0,0-8.63-11.71,1.51,1.51,0,0,0-1.85,1.05,1.53,1.53,0,0,0,1,1.84,10.48,10.48,0,0,1,6.18,7.28,8,8,0,0,1-.13,4.64,2.9,2.9,0,0,1-3.42,2.08c-5.73-.78-13.38-5.2-10.8-12.05a5.28,5.28,0,0,1,2.64-3A4.59,4.59,0,0,1,368,149c1.43,1.3,3.56-.82,2.12-2.12Z"/><path class="cls-1" d="M448.78,168A8.66,8.66,0,0,0,437,172.77a9.52,9.52,0,0,0,3.38,10.83c3.91,2.94,9.36,3.35,14.05,2.75,2.64-.33,4.85-1.41,5.88-4a8.69,8.69,0,0,0-.2-6.42A13.85,13.85,0,0,0,448,167.62c-1.93-.13-1.92,2.87,0,3a11,11,0,0,1,8.57,4.89c1.59,2.54,2.19,6.92-1.57,7.74-5.55,1.2-16.17-.21-15.51-7.93a5.6,5.6,0,0,1,7.74-4.71,1.55,1.55,0,0,0,2.05-.54,1.51,1.51,0,0,0-.53-2Z"/><path class="cls-1" d="M507.84,184.63a8.67,8.67,0,0,0-11.74,4.75,9.51,9.51,0,0,0,3.39,10.83c3.9,2.94,9.36,3.35,14,2.75,2.63-.33,4.85-1.41,5.88-4a8.74,8.74,0,0,0-.2-6.42,13.87,13.87,0,0,0-12.13-8.32c-1.93-.13-1.92,2.87,0,3a11,11,0,0,1,8.57,4.89c1.59,2.54,2.2,6.92-1.57,7.74-5.55,1.2-16.17-.21-15.51-7.93a5.61,5.61,0,0,1,7.75-4.71,1.55,1.55,0,0,0,2.05-.54,1.51,1.51,0,0,0-.54-2.05Z"/><path class="cls-1" d="M581.21,198.55a8.66,8.66,0,0,0-11.74,4.75,9.51,9.51,0,0,0,3.38,10.82c3.91,2.94,9.36,3.35,14,2.76,2.64-.34,4.85-1.41,5.88-4a8.72,8.72,0,0,0-.2-6.43,13.87,13.87,0,0,0-12.12-8.32c-1.93-.12-1.92,2.88,0,3A11.06,11.06,0,0,1,589,206c1.59,2.55,2.19,6.93-1.57,7.74-5.55,1.21-16.17-.2-15.51-7.92a5.6,5.6,0,0,1,7.74-4.71,1.56,1.56,0,0,0,2.06-.54,1.51,1.51,0,0,0-.54-2Z"/><path class="cls-1" d="M664,212.29A8.67,8.67,0,0,0,652.22,217a9.51,9.51,0,0,0,3.39,10.83c3.9,2.94,9.35,3.35,14,2.75,2.64-.33,4.86-1.41,5.89-4a8.79,8.79,0,0,0-.2-6.42,13.88,13.88,0,0,0-12.13-8.32c-1.93-.12-1.92,2.88,0,3a11,11,0,0,1,8.57,4.89c1.59,2.54,2.19,6.92-1.57,7.74-5.55,1.2-16.17-.2-15.51-7.93a5.6,5.6,0,0,1,7.74-4.71,1.55,1.55,0,0,0,2.06-.54,1.51,1.51,0,0,0-.54-2.05Z"/><path class="cls-1" d="M749.74,226.55A8.66,8.66,0,0,0,738,231.3a9.52,9.52,0,0,0,3.39,10.83c3.9,2.93,9.35,3.34,14.05,2.75,2.63-.34,4.85-1.41,5.88-4a8.82,8.82,0,0,0-.2-6.43A13.91,13.91,0,0,0,749,226.14c-1.93-.12-1.92,2.88,0,3a11,11,0,0,1,8.57,4.9c1.59,2.54,2.2,6.92-1.57,7.74-5.55,1.2-16.17-.21-15.51-7.93a5.61,5.61,0,0,1,7.75-4.71,1.55,1.55,0,0,0,2-.54,1.51,1.51,0,0,0-.54-2Z"/><path class="cls-1" d="M836.31,240.48a7.48,7.48,0,0,0-9.84,5.62,10.25,10.25,0,0,0,4.34,10.36c3.89,2.64,9.06,2.68,13.48,1.65,2.37-.55,4.27-2,4.78-4.43a9.67,9.67,0,0,0-1.1-6.34,13.55,13.55,0,0,0-12.08-7.11c-1.92.05-1.93,3.05,0,3a10.56,10.56,0,0,1,8.46,4c1.4,1.78,3.36,6.27.39,7.61a14.3,14.3,0,0,1-5.43.88,13.4,13.4,0,0,1-5.2-.88,7.41,7.41,0,0,1-4.82-6.61,5.21,5.21,0,0,1,1.25-3.85,4.63,4.63,0,0,1,5-1,1.51,1.51,0,0,0,1.84-1,1.53,1.53,0,0,0-1.05-1.85Z"/><path class="cls-1" d="M927.92,251.78a7.5,7.5,0,0,0-9.85,5.63,10.27,10.27,0,0,0,4.35,10.36c3.88,2.63,9.06,2.67,13.48,1.64,2.36-.55,4.27-2,4.77-4.43a9.62,9.62,0,0,0-1.1-6.34,13.54,13.54,0,0,0-12.07-7.11c-1.93.05-1.94,3.05,0,3a10.59,10.59,0,0,1,8.46,4c1.4,1.77,3.36,6.26.38,7.61a14.21,14.21,0,0,1-5.42.87,13.34,13.34,0,0,1-5.2-.88,7.42,7.42,0,0,1-4.83-6.61,5.29,5.29,0,0,1,1.25-3.84,4.61,4.61,0,0,1,5-1,1.53,1.53,0,0,0,1.85-1.05,1.55,1.55,0,0,0-1.05-1.85Z"/><path class="cls-1" d="M960,296.23a7.5,7.5,0,0,0-9.85,5.62,10.28,10.28,0,0,0,4.35,10.37c3.88,2.63,9.06,2.67,13.48,1.64,2.36-.55,4.27-1.95,4.77-4.43a9.61,9.61,0,0,0-1.1-6.34A13.54,13.54,0,0,0,959.57,296c-1.93,0-1.94,3,0,3a10.56,10.56,0,0,1,8.46,4c1.4,1.77,3.36,6.26.38,7.6a14,14,0,0,1-5.42.88,13.34,13.34,0,0,1-5.2-.88A7.42,7.42,0,0,1,953,304a5.29,5.29,0,0,1,1.25-3.84,4.61,4.61,0,0,1,5-1,1.53,1.53,0,0,0,1.85-1.05,1.55,1.55,0,0,0-1-1.85Z"/><path class="cls-1" d="M257.36,305a8.66,8.66,0,0,0-10.63,6.11,9.52,9.52,0,0,0,4.47,10.38c4.32,2.51,9.81,2.15,14.46.89,2.5-.67,4.68-2,5.41-4.59a8.74,8.74,0,0,0-1-6.47c-2.53-4.6-8-7-13.14-6.57-1.91.17-1.93,3.17,0,3a11.18,11.18,0,0,1,9.46,3.52c2,2.26,3.19,6.62-.47,7.9-5.29,1.86-16.27,2.29-16.46-5.7a5.6,5.6,0,0,1,7.09-5.58,1.5,1.5,0,0,0,.8-2.89Z"/><path class="cls-1" d="M362.27,331.32a8.67,8.67,0,0,0-10.63,6.11,9.55,9.55,0,0,0,4.47,10.39c4.32,2.5,9.82,2.14,14.47.89,2.49-.68,4.67-2,5.4-4.59a8.71,8.71,0,0,0-1-6.48c-2.53-4.59-8-7-13.14-6.57-1.91.17-1.93,3.18,0,3a11.21,11.21,0,0,1,9.46,3.52c2,2.26,3.19,6.62-.46,7.91-5.3,1.85-16.27,2.29-16.47-5.71a5.6,5.6,0,0,1,7.09-5.57,1.51,1.51,0,0,0,.8-2.9Z"/><path class="cls-1" d="M482.9,346.83a8.67,8.67,0,0,0-10.63,6.11,9.53,9.53,0,0,0,4.47,10.38c4.32,2.51,9.82,2.15,14.47.89,2.49-.67,4.68-2,5.4-4.59a8.74,8.74,0,0,0-1-6.47c-2.53-4.59-8-7-13.15-6.57-1.9.17-1.92,3.18,0,3A11.24,11.24,0,0,1,492,353.1c2,2.26,3.19,6.62-.47,7.9-5.3,1.86-16.27,2.3-16.46-5.7a5.59,5.59,0,0,1,7.09-5.57,1.5,1.5,0,0,0,.79-2.9Z"/><path class="cls-1" d="M583.78,354.73a8.67,8.67,0,0,0-10.63,6.11,9.54,9.54,0,0,0,4.47,10.39c4.32,2.5,9.82,2.14,14.47.89,2.49-.68,4.68-2,5.4-4.59a8.75,8.75,0,0,0-1-6.48c-2.53-4.59-8-7-13.15-6.57-1.9.18-1.92,3.18,0,3a11.24,11.24,0,0,1,9.47,3.52c2,2.26,3.19,6.62-.47,7.91-5.3,1.85-16.27,2.29-16.46-5.71a5.6,5.6,0,0,1,7.09-5.57,1.5,1.5,0,0,0,.79-2.9Z"/><path class="cls-1" d="M683.74,354.68a8.66,8.66,0,0,0-10.63,6.1,9.52,9.52,0,0,0,4.47,10.39c4.31,2.5,9.81,2.14,14.46.89,2.5-.67,4.68-2,5.41-4.59a8.81,8.81,0,0,0-1-6.48c-2.53-4.59-8-7-13.14-6.57-1.91.18-1.93,3.18,0,3a11.22,11.22,0,0,1,9.46,3.53c2,2.25,3.19,6.61-.47,7.9-5.3,1.86-16.27,2.29-16.46-5.7a5.6,5.6,0,0,1,7.09-5.58,1.5,1.5,0,0,0,.8-2.89Z"/><path class="cls-1" d="M795.8,339.27a7.52,7.52,0,0,0-9.09,7,10.16,10.16,0,0,0,5.91,9.64c4.45,2,9.74,1.26,14.08-.69,4.89-2.2,3.91-7.92,1.08-11.42A13.55,13.55,0,0,0,795,339.08a1.5,1.5,0,1,0,.8,2.89,10.44,10.44,0,0,1,8.53,2.47,8.68,8.68,0,0,1,2.67,3.87c.4,1.3.47,2.88-.75,3.75a13.58,13.58,0,0,1-5.24,1.77,13.06,13.06,0,0,1-5.32-.07,7.45,7.45,0,0,1-5.84-5.86,5.27,5.27,0,0,1,.7-4,4.58,4.58,0,0,1,4.5-1.75c1.89.37,2.7-2.53.8-2.89Z"/><path class="cls-1" d="M888.05,318.4a7.53,7.53,0,0,0-9.09,7,10.18,10.18,0,0,0,5.91,9.64c4.45,2,9.75,1.26,14.09-.69,4.89-2.2,3.9-7.92,1.07-11.42a13.55,13.55,0,0,0-12.82-4.69,1.5,1.5,0,0,0,.79,2.9,10.44,10.44,0,0,1,8.54,2.47,8.81,8.81,0,0,1,2.67,3.86c.39,1.3.47,2.88-.75,3.75a13.63,13.63,0,0,1-5.24,1.77,12.93,12.93,0,0,1-5.33-.07,7.42,7.42,0,0,1-5.83-5.86,5.21,5.21,0,0,1,.7-4,4.54,4.54,0,0,1,4.5-1.75c1.88.36,2.69-2.53.79-2.9Z"/><path class="cls-1" d="M170.84,281.77a8.67,8.67,0,0,0-10.63,6.11,9.54,9.54,0,0,0,4.47,10.39c4.32,2.5,9.82,2.14,14.47.89,2.49-.68,4.67-2,5.4-4.59a8.71,8.71,0,0,0-1-6.48c-2.52-4.59-8-7-13.14-6.57-1.91.18-1.92,3.18,0,3a11.21,11.21,0,0,1,9.46,3.52c2,2.26,3.19,6.62-.46,7.91-5.3,1.85-16.27,2.29-16.46-5.71a5.59,5.59,0,0,1,7.08-5.57,1.51,1.51,0,0,0,.8-2.9Z"/><path class="cls-1" d="M229.85,269a7.52,7.52,0,0,0-8.89,7.11,10.14,10.14,0,0,0,5.69,9.34c4.55,2.13,9.87,1.23,14.29-.79a5.69,5.69,0,0,0,3.64-5.34,9.73,9.73,0,0,0-2.48-6.06A13.55,13.55,0,0,0,229,268.78c-1.89.41-1.09,3.31.8,2.9a10.41,10.41,0,0,1,8.67,2.15c1.82,1.49,4.94,5.77,2,7.67a15.26,15.26,0,0,1-5.17,1.86,12.75,12.75,0,0,1-5.29.05,7.39,7.39,0,0,1-5.89-5.67,5.22,5.22,0,0,1,.54-3.91,4.53,4.53,0,0,1,4.41-2,1.55,1.55,0,0,0,1.84-1.05,1.52,1.52,0,0,0-1-1.85Z"/><path class="cls-1" d="M286.58,267.62a7.53,7.53,0,0,0-8.89,7.11,10.18,10.18,0,0,0,5.7,9.34c4.55,2.13,9.87,1.23,14.29-.8a5.71,5.71,0,0,0,3.64-5.34,9.73,9.73,0,0,0-2.48-6.05,13.53,13.53,0,0,0-13.11-4.45c-1.89.41-1.09,3.3.8,2.89a10.49,10.49,0,0,1,8.67,2.15c1.81,1.49,4.94,5.77,2,7.68A15.25,15.25,0,0,1,292,282a12.58,12.58,0,0,1-5.29.06,7.4,7.4,0,0,1-5.89-5.68,5.21,5.21,0,0,1,.54-3.9,4.52,4.52,0,0,1,4.41-2,1.54,1.54,0,0,0,1.84-1.05,1.5,1.5,0,0,0-1.05-1.84Z"/><path class="cls-1" d="M354.84,264.13a7.52,7.52,0,0,0-8.89,7.11,10.16,10.16,0,0,0,5.7,9.34c4.55,2.13,9.87,1.23,14.29-.79a5.72,5.72,0,0,0,3.64-5.35,9.81,9.81,0,0,0-2.48-6.05A13.54,13.54,0,0,0,354,263.94c-1.89.41-1.09,3.3.79,2.89a10.44,10.44,0,0,1,8.67,2.16c1.82,1.48,4.94,5.76,2,7.67a15.56,15.56,0,0,1-5.17,1.86,12.79,12.79,0,0,1-5.3.05,7.42,7.42,0,0,1-5.89-5.67,5.23,5.23,0,0,1,.55-3.91,4.54,4.54,0,0,1,4.4-2,1.55,1.55,0,0,0,1.85-1,1.51,1.51,0,0,0-1.05-1.85Z"/><path class="cls-1" d="M431.18,254.11a7.52,7.52,0,0,0-8.89,7.11,10.15,10.15,0,0,0,5.7,9.34c4.55,2.13,9.87,1.23,14.29-.79a5.71,5.71,0,0,0,3.64-5.34,9.84,9.84,0,0,0-2.48-6.06,13.56,13.56,0,0,0-13.11-4.45c-1.89.41-1.09,3.31.79,2.9a10.4,10.4,0,0,1,8.67,2.15c1.82,1.49,4.94,5.77,2,7.67a15.26,15.26,0,0,1-5.17,1.86,12.79,12.79,0,0,1-5.3.05,7.41,7.41,0,0,1-5.89-5.67A5.23,5.23,0,0,1,426,259a4.51,4.51,0,0,1,4.4-2,1.56,1.56,0,0,0,1.85-1,1.52,1.52,0,0,0-1.05-1.85Z"/><path class="cls-1" d="M511.14,237.31a7.52,7.52,0,0,0-8.89,7.11,10.15,10.15,0,0,0,5.7,9.34c4.55,2.13,9.87,1.23,14.29-.79a5.71,5.71,0,0,0,3.64-5.34,9.84,9.84,0,0,0-2.48-6.06,13.54,13.54,0,0,0-13.11-4.45c-1.89.41-1.09,3.3.79,2.9a10.43,10.43,0,0,1,8.68,2.15c1.81,1.48,4.93,5.77,2,7.67a15.26,15.26,0,0,1-5.17,1.86,12.79,12.79,0,0,1-5.3.05,7.41,7.41,0,0,1-5.89-5.67,5.23,5.23,0,0,1,.55-3.91,4.54,4.54,0,0,1,4.4-2,1.55,1.55,0,0,0,1.85-1,1.52,1.52,0,0,0-1.05-1.85Z"/><path class="cls-1" d="M657.56,183.89a8.67,8.67,0,0,0-6.38,10.29,9.53,9.53,0,0,0,9.19,7.13c5,0,9.57-2.95,13-6.29,1.84-1.8,3-3.93,2.4-6.55a8.79,8.79,0,0,0-4.17-5.29c-4.44-2.68-10.29-2.12-14.52.7-1.59,1.07-.09,3.67,1.52,2.59a11.22,11.22,0,0,1,9.55-1.57c2.9.9,6.49,4.18,3.85,7.22-3.76,4.33-13.4,9.93-17.34,2.8a5.6,5.6,0,0,1,3.69-8.13c1.88-.47,1.08-3.36-.79-2.9Z"/><path class="cls-1" d="M733.56,147.39a8.66,8.66,0,0,0-6.38,10.29,9.52,9.52,0,0,0,9.19,7.12c5,0,9.57-3,13-6.29,1.84-1.79,3-3.93,2.4-6.55a8.77,8.77,0,0,0-4.17-5.28c-4.44-2.69-10.29-2.13-14.52.69-1.59,1.07-.09,3.67,1.52,2.6a11.19,11.19,0,0,1,9.55-1.58c2.9.91,6.49,4.18,3.85,7.22-3.76,4.34-13.4,9.93-17.34,2.8a5.61,5.61,0,0,1,3.69-8.13c1.88-.47,1.08-3.36-.79-2.89Z"/><path class="cls-1" d="M811.27,104.44a8.67,8.67,0,0,0-6.38,10.29,9.53,9.53,0,0,0,9.19,7.12c5,0,9.57-2.95,13-6.29,1.84-1.79,3-3.92,2.4-6.55a8.73,8.73,0,0,0-4.17-5.28c-4.44-2.69-10.29-2.13-14.51.7-1.6,1.07-.1,3.67,1.51,2.59a11.22,11.22,0,0,1,9.55-1.58c2.9.91,6.49,4.19,3.86,7.22-3.77,4.34-13.4,9.93-17.34,2.8a5.6,5.6,0,0,1,3.69-8.13c1.87-.46,1.08-3.36-.8-2.89Z"/><path class="cls-1" d="M885.79,61.66A7.51,7.51,0,0,0,881.16,72a10.18,10.18,0,0,0,10.39,5.69c4.56-.54,8.56-3.54,11.32-7.09a5.7,5.7,0,0,0,.8-6.4,9.64,9.64,0,0,0-4.92-4.26,13.58,13.58,0,0,0-13.76,2A1.52,1.52,0,0,0,885,64a1.54,1.54,0,0,0,2.12,0,10.45,10.45,0,0,1,8.76-1.89c2.32.54,6.9,3,5.1,6a15.31,15.31,0,0,1-3.5,3.73,13.09,13.09,0,0,1-4.18,2.39,7.57,7.57,0,0,1-8.39-1.94c-2.28-2.54-1.83-6.6,1.69-7.74,1.83-.6,1-3.5-.8-2.89Z"/><path class="cls-1" d="M961.32,11.82a7.51,7.51,0,0,0-4.62,10.34,10.16,10.16,0,0,0,10.38,5.68c4.56-.54,8.56-3.54,11.32-7.08a5.72,5.72,0,0,0,.8-6.41,9.58,9.58,0,0,0-4.92-4.25,13.56,13.56,0,0,0-13.75,2,1.5,1.5,0,0,0,0,2.12,1.53,1.53,0,0,0,2.12,0,10.47,10.47,0,0,1,8.76-1.89c2.31.54,6.89,3,5.09,6A15.51,15.51,0,0,1,973,22a13.64,13.64,0,0,1-4.19,2.39,7.59,7.59,0,0,1-8.38-1.94c-2.29-2.55-1.84-6.6,1.68-7.75,1.83-.59,1-3.49-.8-2.89Z"/><path class="cls-1" d="M39.88,240.94a7.52,7.52,0,0,0-11.39,1.3,10.17,10.17,0,0,0-.12,11c2.48,3.87,7,6,11.36,6.82,2.38.45,4.75.3,6.38-1.7a9.05,9.05,0,0,0,1.79-6.27,13.58,13.58,0,0,0-8.63-11.71,1.51,1.51,0,0,0-1.84,1,1.53,1.53,0,0,0,1,1.84,10.51,10.51,0,0,1,6.19,7.28,8.06,8.06,0,0,1-.14,4.64,2.89,2.89,0,0,1-3.41,2.08c-5.74-.78-13.39-5.2-10.81-12a5.23,5.23,0,0,1,2.64-3,4.57,4.57,0,0,1,4.82.87c1.42,1.29,3.55-.83,2.12-2.13Z"/><path class="cls-1" d="M114.88,265.94a7.52,7.52,0,0,0-11.39,1.3,10.17,10.17,0,0,0-.12,11c2.48,3.87,7,6,11.36,6.82,2.38.45,4.75.3,6.38-1.7a9.05,9.05,0,0,0,1.79-6.27,13.58,13.58,0,0,0-8.63-11.71,1.51,1.51,0,0,0-1.84,1.05,1.53,1.53,0,0,0,1,1.84,10.51,10.51,0,0,1,6.19,7.28,8.06,8.06,0,0,1-.14,4.64,2.89,2.89,0,0,1-3.41,2.08c-5.74-.78-13.39-5.2-10.81-12.05a5.23,5.23,0,0,1,2.64-3,4.57,4.57,0,0,1,4.82.87c1.42,1.29,3.55-.83,2.12-2.13Z"/></g></svg>